<?xml version="1.0" encoding="utf-8"?>
<!-- Generator: Adobe Illustrator 18.1.0, SVG Export Plug-In . SVG Version: 6.00 Build 0)  -->
<svg version="1.1" id="Layer_1" xmlns="http://www.w3.org/2000/svg" xmlns:xlink="http://www.w3.org/1999/xlink" x="0px" y="0px"
	 viewBox="0 0 612 792" enable-background="new 0 0 612 792" xml:space="preserve">
<g>
	<path d="M199,500.4l-0.2-0.4c1.6-1.2,2.6-1.8,3.2-1.8c0.2,0,0.3,0,0.4,0.1c0.1,0.1,0.1,0.2,0.1,0.4c0,0.5-0.2,1.2-0.5,2.3
		c-0.7,2.9-1.2,4.6-1.2,5.2c0,0.2,0.1,0.4,0.3,0.4c0.3,0,0.7-0.3,1.5-0.9l0.2,0.4c-0.9,0.7-1.7,1.3-2.3,1.6
		c-0.3,0.2-0.5,0.2-0.7,0.2c-0.2,0-0.4-0.1-0.5-0.3s-0.2-0.4-0.2-0.6c0-0.5,0.2-1.3,0.5-2.5c0.6-2.5,1-4,1-4.5
		c0-0.3-0.1-0.4-0.3-0.4C200.4,499.5,199.9,499.7,199,500.4z M201.5,494.7c0-0.4,0.1-0.6,0.4-0.9c0.3-0.3,0.5-0.4,0.8-0.4
		c0.3,0,0.4,0.1,0.5,0.2c0.1,0.2,0.2,0.4,0.2,0.6c0,0.4-0.1,0.6-0.4,0.9c-0.2,0.3-0.5,0.4-0.7,0.4c-0.3,0-0.5-0.1-0.5-0.3
		C201.6,495.2,201.5,495,201.5,494.7z"/>
	<path d="M205.2,494.3l0.1-0.4c1.4-0.2,2.4-0.5,3.2-0.8l0.3,0.2l-1.2,5.6l-0.2,0.9l-1,5c-0.1,0.6-0.2,1.1-0.2,1.4
		c0,0.1,0,0.3,0.1,0.3c0.1,0.1,0.1,0.1,0.2,0.1c0.3,0,0.9-0.4,1.8-1.2l0.2,0.4c-0.8,0.7-1.6,1.3-2.4,1.6c-0.4,0.2-0.7,0.4-0.9,0.4
		s-0.4-0.1-0.5-0.2c-0.1-0.1-0.2-0.4-0.2-0.5c0-0.1,0-0.3,0.1-0.5l0.4-1.7c0.4-1.7,0.6-3.2,0.9-4.4l0.2-0.9c0.2-1.1,0.5-2.2,0.6-3.4
		c0.1-0.6,0.1-1,0.1-1.3c0-0.2-0.1-0.4-0.2-0.4S206.1,494.3,205.2,494.3z"/>
	<path d="M210.7,494.3l0.1-0.4c1.4-0.2,2.4-0.5,3.2-0.8l0.3,0.2l-1.2,5.6l-0.2,0.9l-1,5c-0.1,0.6-0.2,1.1-0.2,1.4
		c0,0.1,0,0.3,0.1,0.3c0.1,0.1,0.1,0.1,0.2,0.1c0.3,0,0.9-0.4,1.8-1.2l0.2,0.4c-0.8,0.7-1.6,1.3-2.4,1.6c-0.4,0.2-0.7,0.4-0.9,0.4
		s-0.4-0.1-0.5-0.2c-0.1-0.1-0.2-0.4-0.2-0.5c0-0.1,0-0.3,0.1-0.5l0.4-1.7c0.4-1.7,0.6-3.2,0.9-4.4l0.2-0.9c0.2-1.1,0.5-2.2,0.6-3.4
		c0.1-0.6,0.1-1,0.1-1.3c0-0.2-0.1-0.4-0.2-0.4S211.6,494.3,210.7,494.3z"/>
	<path d="M215.4,500.3l-0.2-0.4c1.6-1.2,2.8-1.8,3.3-1.8c0.2,0,0.3,0,0.4,0.1c0.1,0.1,0.1,0.2,0.1,0.4s-0.2,1.2-0.6,2.9
		c-0.6,2.4-0.9,3.9-0.9,4.5c0,0.2,0,0.3,0.1,0.4c0.1,0.1,0.2,0.1,0.3,0.1c0.3,0,0.7-0.3,1.3-0.7c1.2-1,2-2,2.5-3
		c0.5-1.1,1-2.4,1.3-4.3c0.5-0.1,1-0.3,1.4-0.4l0.1,0.2c-0.5,1.9-1,3.7-1.4,5.4c-0.2,1.1-0.4,1.9-0.4,2.3c0,0.2,0,0.3,0.1,0.4
		c0.1,0.1,0.1,0.1,0.2,0.1c0.2,0,0.5-0.2,1.1-0.6l0.5-0.5l0.3,0.4c-1.6,1.4-2.6,2.1-3.2,2.1c-0.2,0-0.3-0.1-0.4-0.2
		c-0.1-0.1-0.2-0.3-0.2-0.5c0-0.3,0.1-0.6,0.2-1.2l0.6-2.8c-1,1.5-2.1,2.8-3.3,3.7c-0.8,0.6-1.5,1-1.8,1c-0.3,0-0.5-0.1-0.5-0.3
		c-0.2-0.2-0.2-0.5-0.2-0.7c0-0.5,0.1-1.2,0.4-2.3c0.6-2.7,1-4.3,1-4.6c0-0.1,0-0.3-0.1-0.3c-0.1-0.1-0.1-0.1-0.2-0.1
		C216.8,499.5,216.3,499.7,215.4,500.3z"/>
	<path d="M226.5,504.7h0.5v0.9v0.7c0.4,0.3,0.6,0.5,1,0.5c0.4,0.1,0.7,0.2,1.1,0.2c0.6,0,1.2-0.2,1.5-0.6c0.4-0.5,0.6-0.9,0.6-1.5
		c0-0.5-0.1-0.7-0.3-1c-0.2-0.2-0.6-0.4-1.3-0.5c-1.2-0.2-1.9-0.4-2.3-0.6c-0.5-0.4-0.6-0.8-0.6-1.5c0-0.5,0.2-1,0.5-1.5
		c0.3-0.5,0.9-0.9,1.6-1.4c0.5-0.4,1.2-0.5,1.8-0.5c0.3,0,0.6,0,1,0.1c0.4,0.1,0.6,0.2,1,0.4c-0.2,0.5-0.3,1.4-0.4,2.3H232
		c0-0.3,0-0.5,0-0.7c0-0.4-0.1-0.5-0.2-0.6c-0.5-0.4-1-0.5-1.6-0.5c-0.6,0-1.2,0.2-1.5,0.5c-0.4,0.4-0.5,0.7-0.5,1.3
		c0,0.5,0.2,0.8,0.5,1c0.2,0.2,0.7,0.3,1.6,0.5c1,0.2,1.5,0.4,1.9,0.5c0.4,0.3,0.6,0.7,0.6,1.4c0,0.8-0.5,1.7-1.4,2.4
		c-0.9,0.7-1.9,1.2-3,1.2c-0.4,0-0.7,0-1.1-0.2c-0.4-0.1-0.7-0.2-1-0.4C226.3,506.5,226.4,505.7,226.5,504.7z"/>
	<path d="M238.8,505.3l0.3,0.4c-1.7,1.5-2.9,2.2-3.4,2.2c-0.2,0-0.4-0.1-0.5-0.3s-0.2-0.4-0.2-0.6c0-0.4,0.2-1.2,0.5-2.4
		c0.4-1.8,0.7-3.4,0.9-4.6h-0.7h-1l0.1-0.4c0.6-0.2,1.3-0.5,1.7-0.7c0.2-0.7,0.4-1.9,0.5-3.4c0.5-0.2,1.1-0.4,1.5-0.6l0.2,0.2
		c-0.2,0.6-0.5,2-0.9,4.1h1c0.5,0,0.8,0,1.1-0.1l0.1,0.1c-0.1,0.3-0.2,0.6-0.2,1c-0.6-0.1-1.4-0.1-2.2-0.1c-0.7,3.5-1.1,5.5-1.1,6.1
		c0,0.2,0,0.3,0.1,0.4s0.2,0.1,0.3,0.1C237.1,506.5,237.8,506.1,238.8,505.3z"/>
	<path d="M241.3,500.4l-0.2-0.4c1.1-0.8,2-1.5,2.5-1.7c0.4-0.2,0.6-0.3,0.8-0.3c0.1,0,0.2,0,0.3,0.1c0.1,0.1,0.1,0.2,0.1,0.4
		c0,0.3,0,0.5-0.1,0.9l-0.6,2.9c1-1.7,1.9-3,2.6-3.6c0.4-0.4,0.8-0.6,1.1-0.6c0.2,0,0.4,0,0.5,0.1c-0.2,0.6-0.3,1.3-0.4,2.1
		l-0.3,0.1c-0.2-0.3-0.4-0.4-0.6-0.4c-0.3,0-0.5,0.1-0.8,0.3c-0.5,0.4-1,0.9-1.5,1.6c-0.5,0.7-0.8,1.6-1,2.4c-0.1,0.2-0.3,1.2-0.6,3
		c-0.4,0.1-0.8,0.2-1.4,0.4l-0.2-0.2c0.5-1.6,0.9-3.3,1.2-4.9s0.5-2.6,0.5-3c0-0.3-0.1-0.4-0.3-0.4
		C242.7,499.5,242.2,499.8,241.3,500.4z"/>
	<path d="M256.1,498.2l0.2,0.2c-0.6,2.2-1.1,4.2-1.5,5.9c-0.2,1-0.3,1.6-0.3,1.9c0,0.1,0,0.2,0.1,0.3c0.1,0.1,0.1,0.1,0.2,0.1
		c0.2,0,0.7-0.3,1.5-0.9l0.1,0.5c-0.7,0.6-1.4,1.1-2,1.5c-0.4,0.2-0.6,0.3-0.8,0.3c-0.2,0-0.3-0.1-0.4-0.2c-0.1-0.1-0.1-0.3-0.1-0.5
		c0-0.5,0.2-1.6,0.6-3.4h-0.1c-0.9,1.4-1.9,2.4-2.9,3.3c-0.7,0.5-1.2,0.8-1.5,0.8c-0.2,0-0.4-0.1-0.5-0.3c-0.2-0.3-0.3-0.7-0.3-1.3
		c0-1,0.2-2.1,0.5-3.4c0.4-1.4,0.8-2.3,1.2-2.8c0.3-0.5,0.9-0.9,1.8-1.4c0.5-0.3,1.1-0.5,1.7-0.5c0.3,0,0.5,0,0.8,0.1
		c0.3,0.1,0.6,0.2,0.9,0.3L256.1,498.2z M254.5,499.5c-0.3-0.1-0.5-0.2-0.8-0.3c-0.3-0.1-0.5-0.1-0.7-0.1c-0.5,0-1,0.1-1.4,0.3
		c-0.1,0.1-0.3,0.3-0.5,0.6c-0.4,0.7-0.6,1.7-1,2.8c-0.4,1.1-0.5,2.2-0.5,3c0,0.3,0,0.4,0.1,0.5c0.1,0.1,0.2,0.2,0.3,0.2
		c0.3,0,0.7-0.4,1.5-1s1.3-1.4,1.7-2.1C253.9,502.4,254.3,501.1,254.5,499.5z"/>
	<path d="M262.3,505.3l0.3,0.4c-1.7,1.5-2.9,2.2-3.4,2.2c-0.2,0-0.4-0.1-0.5-0.3c-0.1-0.2-0.2-0.4-0.2-0.6c0-0.4,0.2-1.2,0.5-2.4
		c0.4-1.8,0.7-3.4,0.9-4.6h-0.7h-1l0.1-0.4c0.6-0.2,1.3-0.5,1.7-0.7c0.2-0.7,0.4-1.9,0.5-3.4c0.5-0.2,1.1-0.4,1.5-0.6l0.2,0.2
		c-0.2,0.6-0.5,2-0.9,4.1h1c0.5,0,0.8,0,1.1-0.1l0.1,0.1c-0.1,0.3-0.2,0.6-0.2,1c-0.6-0.1-1.4-0.1-2.2-0.1c-0.7,3.5-1.1,5.5-1.1,6.1
		c0,0.2,0,0.3,0.1,0.4c0.1,0.1,0.2,0.1,0.3,0.1C260.6,506.5,261.2,506.1,262.3,505.3z"/>
	<path d="M264.7,500.4l-0.2-0.4c1.6-1.2,2.6-1.8,3.2-1.8c0.2,0,0.3,0,0.4,0.1c0.1,0.1,0.1,0.2,0.1,0.4c0,0.5-0.2,1.2-0.5,2.3
		c-0.7,2.9-1.2,4.6-1.2,5.2c0,0.2,0.1,0.4,0.3,0.4c0.3,0,0.7-0.3,1.5-0.9l0.2,0.4c-0.9,0.7-1.7,1.3-2.3,1.6
		c-0.3,0.2-0.5,0.2-0.7,0.2c-0.2,0-0.4-0.1-0.5-0.3c-0.1-0.2-0.2-0.4-0.2-0.6c0-0.5,0.2-1.3,0.5-2.5c0.6-2.5,1-4,1-4.5
		c0-0.3-0.1-0.4-0.3-0.4C266.1,499.5,265.6,499.7,264.7,500.4z M267.1,494.7c0-0.4,0.1-0.6,0.4-0.9c0.3-0.3,0.5-0.4,0.8-0.4
		c0.3,0,0.4,0.1,0.5,0.2c0.1,0.2,0.2,0.4,0.2,0.6c0,0.4-0.1,0.6-0.4,0.9c-0.2,0.3-0.5,0.4-0.7,0.4c-0.3,0-0.5-0.1-0.5-0.3
		C267.2,495.2,267.1,495,267.1,494.7z"/>
	<path d="M270.1,504.7c0-2.1,0.5-3.7,1.6-4.8c1.1-1.2,2.3-1.7,3.5-1.7c0.8,0,1.5,0.3,2,0.7c0.5,0.5,0.7,1.3,0.7,2.2
		c0,1.2-0.3,2.4-0.8,3.4c-0.5,1.1-1.2,1.9-2,2.4c-0.8,0.5-1.6,0.8-2.4,0.8s-1.5-0.3-1.9-0.7C270.4,506.6,270.1,505.8,270.1,504.7z
		 M271.7,504.5c0,0.9,0.2,1.5,0.5,2c0.4,0.4,0.8,0.5,1.4,0.5c0.9,0,1.5-0.5,2-1.5c0.6-1.3,0.9-2.6,0.9-4.3c0-0.9-0.2-1.6-0.5-2
		c-0.4-0.4-0.8-0.6-1.5-0.6c-0.5,0-0.9,0.2-1.4,0.5c-0.4,0.4-0.7,1-1.1,2C271.8,502.4,271.7,503.4,271.7,504.5z"/>
	<path d="M279.5,500.4l-0.2-0.5c1.1-0.7,1.9-1.3,2.4-1.6c0.3-0.2,0.5-0.2,0.7-0.2c0.2,0,0.3,0,0.4,0.2c0.1,0.2,0.1,0.3,0.1,0.5
		s0,0.4-0.1,0.5l-0.7,3.4c0.5-0.9,1.3-1.7,2-2.4c0.7-0.7,1.5-1.3,2.2-1.5c0.7-0.4,1.3-0.5,1.6-0.5c0.2,0,0.3,0.1,0.5,0.2
		c0.1,0.1,0.2,0.3,0.2,0.5s0,0.4-0.1,0.6c-0.1,0.4-0.4,1.6-0.9,4c-0.5,1.7-0.6,2.7-0.6,3c0,0.2,0.1,0.3,0.3,0.3
		c0.2,0,0.5-0.2,1.1-0.5l0.6-0.5l0.2,0.4c-1.6,1.3-2.6,1.8-3.2,1.8c-0.2,0-0.4-0.1-0.5-0.2c-0.1-0.1-0.2-0.3-0.2-0.5
		c0-0.4,0.2-1.4,0.6-3.1c0.6-2.3,0.9-3.7,0.9-4.3c0-0.2,0-0.3-0.1-0.3c-0.1-0.1-0.2-0.1-0.3-0.1c-0.4,0-0.9,0.3-1.6,0.8
		c-1,0.8-1.7,1.7-2.3,2.8c-0.5,1.1-1,2.6-1.3,4.5c-0.4,0-0.8,0.2-1.4,0.3l-0.2-0.2c0.5-1.5,0.9-3.3,1.3-5.1c0.3-1.4,0.4-2.3,0.4-2.7
		c0-0.2,0-0.3-0.1-0.3c-0.1-0.1-0.1-0.1-0.3-0.1C280.8,499.5,280.3,499.8,279.5,500.4z"/>
</g>
<g>
	<path d="M315,500.4l-0.3-0.4c1.3-0.8,2.1-1.4,2.5-1.5c0.4-0.2,0.6-0.3,0.8-0.3s0.3,0.1,0.4,0.2c0.1,0.1,0.1,0.3,0.1,0.5
		c0,0.3-0.2,1.3-0.5,3.1c0.5-0.9,1.1-1.5,1.6-2.1c0.5-0.5,1.1-0.9,1.8-1.2c0.6-0.3,1.2-0.5,1.5-0.5c0.3,0,0.5,0.2,0.7,0.5
		c0.3,0.5,0.5,1,0.5,1.6c0,1.1-0.2,2.2-0.6,3.3c-0.5,1.1-0.9,1.9-1.5,2.4c-0.5,0.5-1.1,0.9-1.8,1.4c-0.7,0.5-1.4,0.6-1.9,0.6
		c-0.4,0-0.7-0.1-1.3-0.3c-0.5,2.1-0.7,3.9-0.9,5.3c-0.5,0.1-1.1,0.2-1.5,0.3l-0.2-0.1c0.6-2.7,1.4-6.3,2.1-10.3
		c0.3-1.5,0.5-2.5,0.5-2.9c0-0.2,0-0.3-0.1-0.3c-0.1-0.1-0.2-0.1-0.3-0.1C316.5,499.4,315.9,499.7,315,500.4z M317.2,506.4
		c0.6,0.4,1.2,0.5,1.8,0.5c0.5,0,1.1-0.2,1.5-0.6c0.5-0.4,0.9-1.3,1.4-2.5c0.5-1.3,0.7-2.4,0.7-3.5c0-0.4-0.1-0.6-0.2-0.8
		c-0.1-0.2-0.3-0.3-0.5-0.3c-0.5,0-1.3,0.3-2,0.9c-0.7,0.6-1.4,1.5-1.8,2.5c-0.3,0.5-0.5,1.6-0.8,3.1L317.2,506.4z"/>
	<path d="M325.2,507.9l-0.2-0.2c0.5-1.7,1.2-4.8,2-9.1c0.5-2.3,0.6-3.5,0.6-3.8c0-0.3-0.1-0.5-0.3-0.5c-0.1,0-0.5-0.1-1.4-0.1
		l0.1-0.5c1.1-0.2,2.2-0.4,3.3-0.8l0.2,0.2c-1.1,4.8-1.7,7.8-1.9,9.1c1.3-1.5,2.4-2.6,3.4-3.3c1-0.6,1.7-0.9,2.4-0.9
		c0.2,0,0.4,0.1,0.5,0.2c0.1,0.1,0.2,0.3,0.2,0.5c0,0.3,0,0.5-0.1,0.7c-0.1,0.6-0.5,1.9-0.9,3.8c-0.4,1.6-0.6,2.5-0.6,2.9
		c0,0.3,0.1,0.4,0.3,0.4c0.1,0,0.2,0,0.4-0.1c0.2-0.1,0.4-0.2,0.8-0.5l0.6-0.4l0.2,0.4c-1.2,0.9-2,1.5-2.4,1.6
		c-0.3,0.2-0.5,0.2-0.7,0.2s-0.4-0.1-0.5-0.2c-0.1-0.1-0.2-0.4-0.2-0.5c0-0.3,0.2-1,0.5-2.2c0.7-2.8,1.1-4.5,1.1-5
		c0-0.2,0-0.4-0.1-0.5c-0.1-0.1-0.2-0.2-0.3-0.2c-0.4,0-1,0.3-1.7,0.9c-1,0.8-1.8,1.7-2.4,2.7c-0.5,1-0.9,2.5-1.3,4.5
		C326,507.6,325.5,507.7,325.2,507.9z"/>
	<path d="M335.7,504.7c0-2.1,0.5-3.7,1.6-4.8c1.1-1.2,2.3-1.7,3.5-1.7c0.8,0,1.5,0.3,2,0.7c0.5,0.5,0.7,1.3,0.7,2.2
		c0,1.2-0.3,2.4-0.8,3.4c-0.5,1.1-1.2,1.9-2,2.4c-0.8,0.5-1.6,0.8-2.4,0.8s-1.5-0.3-1.9-0.7C336,506.5,335.7,505.8,335.7,504.7z
		 M337.2,504.5c0,0.9,0.2,1.5,0.5,2c0.4,0.4,0.8,0.5,1.4,0.5c0.9,0,1.5-0.5,2-1.5c0.6-1.3,0.9-2.6,0.9-4.3c0-0.9-0.2-1.6-0.5-2
		c-0.4-0.4-0.8-0.6-1.5-0.6c-0.5,0-0.9,0.2-1.4,0.5c-0.4,0.4-0.7,1-1.1,2C337.2,502.3,337.2,503.4,337.2,504.5z"/>
	<path d="M349.6,505.3l0.3,0.4c-1.7,1.5-2.9,2.2-3.4,2.2c-0.2,0-0.4-0.1-0.5-0.3c-0.1-0.2-0.2-0.4-0.2-0.6c0-0.4,0.2-1.2,0.5-2.4
		c0.4-1.8,0.7-3.4,0.9-4.6h-0.7h-1l0.1-0.4c0.6-0.2,1.3-0.5,1.7-0.7c0.2-0.7,0.4-1.9,0.5-3.4c0.5-0.2,1.1-0.4,1.5-0.6l0.2,0.2
		c-0.2,0.6-0.5,2-0.9,4.1h1c0.5,0,0.8,0,1.1-0.1l0.1,0.1c-0.1,0.3-0.2,0.6-0.2,1c-0.6-0.1-1.4-0.1-2.2-0.1c-0.7,3.5-1.1,5.5-1.1,6.1
		c0,0.2,0,0.3,0.1,0.4c0.1,0.1,0.2,0.1,0.3,0.1C347.8,506.5,348.5,506.1,349.6,505.3z"/>
	<path d="M351.3,504.7c0-2.1,0.5-3.7,1.6-4.8c1.1-1.2,2.3-1.7,3.5-1.7c0.8,0,1.5,0.3,2,0.7c0.5,0.5,0.7,1.3,0.7,2.2
		c0,1.2-0.3,2.4-0.8,3.4c-0.5,1.1-1.2,1.9-2,2.4c-0.8,0.5-1.6,0.8-2.4,0.8s-1.5-0.3-1.9-0.7C351.5,506.5,351.3,505.8,351.3,504.7z
		 M352.8,504.5c0,0.9,0.2,1.5,0.5,2c0.4,0.4,0.8,0.5,1.4,0.5c0.9,0,1.5-0.5,2-1.5c0.6-1.3,0.9-2.6,0.9-4.3c0-0.9-0.2-1.6-0.5-2
		c-0.4-0.4-0.8-0.6-1.5-0.6c-0.5,0-0.9,0.2-1.4,0.5c-0.4,0.4-0.7,1-1.1,2C352.8,502.3,352.8,503.4,352.8,504.5z"/>
	<path d="M369.2,500.1H368c0,0.3,0.1,0.5,0.1,0.6c0,0.5-0.2,1-0.5,1.6s-0.6,1.1-1.1,1.5c-0.5,0.4-1.1,0.7-1.9,1
		c-0.3,0.3-0.5,0.6-0.5,0.9c0,0.2,0.1,0.4,0.2,0.5c0.1,0.2,0.5,0.5,0.9,0.8c1,0.8,1.5,1.3,1.8,1.6c0.4,0.5,0.5,0.9,0.5,1.5
		c0,0.8-0.4,1.5-1.1,2c-1,0.7-2.3,1.1-3.7,1.1c-1.2,0-2.1-0.2-2.6-0.6c-0.5-0.5-0.9-1-0.9-1.7c0-0.7,0.3-1.4,0.9-2.1
		c0.6-0.6,1.5-1.2,2.9-1.5c-0.2-0.2-0.4-0.5-0.4-0.6s0.1-0.4,0.2-0.5c0.1-0.2,0.5-0.5,1.2-1.1c-0.3,0-0.5,0-0.5,0
		c-0.8,0-1.4-0.2-1.8-0.6c-0.5-0.5-0.6-1.1-0.6-1.8c0-1.2,0.5-2.2,1.3-3.1c0.9-0.8,1.9-1.3,3.2-1.3c0.5,0,1,0.1,1.4,0.3
		s0.6,0.5,0.9,0.8c0.5,0,1.1,0,1.7-0.1L369.2,500.1z M363.5,507.6c-1.1,0.3-1.8,0.7-2.4,1.2c-0.5,0.5-0.7,1.1-0.7,1.7
		c0,0.6,0.3,1.1,0.7,1.5c0.5,0.4,1.2,0.5,2.1,0.5c0.9,0,1.6-0.2,2.2-0.6c0.5-0.4,0.8-0.8,0.8-1.4c0-0.3-0.1-0.5-0.2-0.7
		c-0.2-0.4-0.5-0.7-1-1.1L363.5,507.6z M366.5,500.9c0-0.5-0.1-1-0.2-1.3c-0.2-0.3-0.4-0.5-0.6-0.6c-0.3-0.1-0.6-0.3-1-0.3
		c-0.7,0-1.3,0.3-1.6,0.8c-0.5,0.6-0.7,1.5-0.7,2.5c0,0.7,0.2,1.3,0.5,1.6c0.4,0.4,0.8,0.5,1.4,0.5c0.5,0,0.8-0.1,1.1-0.4
		c0.3-0.3,0.6-0.6,0.8-1.2C366.4,502.2,366.5,501.5,366.5,500.9z"/>
	<path d="M370.8,500.4l-0.2-0.4c1.1-0.8,2-1.5,2.5-1.7c0.4-0.2,0.6-0.3,0.8-0.3c0.1,0,0.2,0,0.3,0.1c0.1,0.1,0.1,0.2,0.1,0.4
		c0,0.3,0,0.5-0.1,0.9l-0.6,2.9c1-1.7,1.9-3,2.6-3.6c0.4-0.4,0.8-0.6,1.1-0.6c0.2,0,0.4,0,0.5,0.1c-0.2,0.6-0.3,1.3-0.4,2.1
		l-0.3,0.1c-0.2-0.3-0.4-0.4-0.6-0.4c-0.3,0-0.5,0.1-0.8,0.3c-0.5,0.4-1,0.9-1.5,1.6c-0.5,0.7-0.8,1.6-1,2.4c-0.1,0.2-0.3,1.2-0.6,3
		c-0.4,0.1-0.8,0.2-1.4,0.4l-0.2-0.2c0.5-1.6,0.9-3.3,1.2-4.9c0.3-1.6,0.5-2.6,0.5-3c0-0.3-0.1-0.4-0.3-0.4
		C372.2,499.5,371.7,499.8,370.8,500.4z"/>
	<path d="M385.6,498.2l0.2,0.2c-0.6,2.2-1.1,4.2-1.5,5.9c-0.2,1-0.3,1.6-0.3,1.9c0,0.1,0,0.2,0.1,0.3c0.1,0.1,0.1,0.1,0.2,0.1
		c0.2,0,0.7-0.3,1.5-0.9l0.1,0.5c-0.7,0.6-1.4,1.1-2,1.5c-0.4,0.2-0.6,0.3-0.8,0.3s-0.3-0.1-0.4-0.2c-0.1-0.1-0.1-0.3-0.1-0.5
		c0-0.5,0.2-1.6,0.6-3.4h-0.1c-0.9,1.4-1.9,2.4-2.9,3.3c-0.7,0.5-1.2,0.8-1.5,0.8c-0.2,0-0.4-0.1-0.5-0.3c-0.2-0.3-0.3-0.7-0.3-1.3
		c0-1,0.2-2.1,0.5-3.4c0.4-1.4,0.8-2.3,1.2-2.8c0.3-0.5,0.9-0.9,1.8-1.4c0.5-0.3,1.1-0.5,1.7-0.5c0.3,0,0.5,0,0.8,0.1
		c0.3,0.1,0.6,0.2,0.9,0.3L385.6,498.2z M384.1,499.5c-0.3-0.1-0.5-0.2-0.8-0.3c-0.3-0.1-0.5-0.1-0.7-0.1c-0.5,0-1,0.1-1.4,0.3
		c-0.1,0.1-0.3,0.3-0.5,0.6c-0.4,0.7-0.6,1.7-1,2.8c-0.4,1.1-0.5,2.2-0.5,3c0,0.3,0,0.4,0.1,0.5c0.1,0.1,0.2,0.2,0.3,0.2
		c0.3,0,0.7-0.4,1.5-1s1.3-1.4,1.7-2.1C383.4,502.4,383.8,501.1,384.1,499.5z"/>
	<path d="M387,500.4l-0.3-0.4c1.3-0.8,2.1-1.4,2.5-1.5c0.4-0.2,0.6-0.3,0.8-0.3s0.3,0.1,0.4,0.2c0.1,0.1,0.1,0.3,0.1,0.5
		c0,0.3-0.2,1.3-0.5,3.1c0.5-0.9,1.1-1.5,1.6-2.1c0.5-0.5,1.1-0.9,1.8-1.2c0.6-0.3,1.2-0.5,1.5-0.5c0.3,0,0.5,0.2,0.7,0.5
		c0.3,0.5,0.5,1,0.5,1.6c0,1.1-0.2,2.2-0.6,3.3c-0.5,1.1-0.9,1.9-1.5,2.4c-0.5,0.5-1.1,0.9-1.8,1.4c-0.7,0.5-1.4,0.6-1.9,0.6
		c-0.4,0-0.7-0.1-1.3-0.3c-0.5,2.1-0.7,3.9-0.9,5.3c-0.5,0.1-1.1,0.2-1.5,0.3l-0.2-0.1c0.6-2.7,1.4-6.3,2.1-10.3
		c0.3-1.5,0.5-2.5,0.5-2.9c0-0.2,0-0.3-0.1-0.3c-0.1-0.1-0.2-0.1-0.3-0.1C388.5,499.4,387.8,499.7,387,500.4z M389.2,506.4
		c0.6,0.4,1.2,0.5,1.8,0.5c0.5,0,1.1-0.2,1.5-0.6c0.5-0.4,0.9-1.3,1.4-2.5c0.5-1.3,0.7-2.4,0.7-3.5c0-0.4-0.1-0.6-0.2-0.8
		c-0.1-0.2-0.3-0.3-0.5-0.3c-0.5,0-1.3,0.3-2,0.9c-0.7,0.6-1.4,1.5-1.8,2.5c-0.3,0.5-0.5,1.6-0.8,3.1L389.2,506.4z"/>
	<path d="M397.1,507.9l-0.2-0.2c0.5-1.7,1.2-4.8,2-9.1c0.5-2.3,0.6-3.5,0.6-3.8c0-0.3-0.1-0.5-0.3-0.5c-0.1,0-0.5-0.1-1.4-0.1
		l0.1-0.5c1.1-0.2,2.2-0.4,3.3-0.8l0.2,0.2c-1.1,4.8-1.7,7.8-1.9,9.1c1.3-1.5,2.4-2.6,3.4-3.3c1-0.6,1.7-0.9,2.4-0.9
		c0.2,0,0.4,0.1,0.5,0.2c0.1,0.1,0.2,0.3,0.2,0.5c0,0.3,0,0.5-0.1,0.7c-0.1,0.6-0.5,1.9-0.9,3.8c-0.4,1.6-0.6,2.5-0.6,2.9
		c0,0.3,0.1,0.4,0.3,0.4c0.1,0,0.2,0,0.4-0.1c0.2-0.1,0.4-0.2,0.8-0.5l0.6-0.4l0.2,0.4c-1.2,0.9-2,1.5-2.4,1.6
		c-0.3,0.2-0.5,0.2-0.7,0.2s-0.4-0.1-0.5-0.2c-0.1-0.1-0.2-0.4-0.2-0.5c0-0.3,0.2-1,0.5-2.2c0.7-2.8,1.1-4.5,1.1-5
		c0-0.2,0-0.4-0.1-0.5c-0.1-0.1-0.2-0.2-0.3-0.2c-0.4,0-1,0.3-1.7,0.9c-1,0.8-1.8,1.7-2.4,2.7c-0.5,1-0.9,2.5-1.3,4.5
		C398,507.6,397.5,507.7,397.1,507.9z"/>
	<path d="M407.5,500.4l-0.3-0.4c1-0.8,1.7-1.4,2.3-1.6c0.3-0.2,0.5-0.3,0.7-0.3s0.4,0.1,0.5,0.3c0.1,0.2,0.2,0.5,0.2,0.7
		c0,0.5-0.1,1.4-0.2,2.9c-0.2,1.7-0.2,2.8-0.2,3.4c0,0.4,0,0.5,0.1,0.7c0.1,0.1,0.2,0.2,0.4,0.2c0.5,0,1.4-0.8,2.4-2.4
		c0.8-1.3,1.5-3.1,1.9-5.4c0.6-0.1,1.1-0.3,1.5-0.4l0.2,0.2c-0.4,0.7-0.7,2-1.3,3.7l-1.4,4.4c-0.4,1.1-0.7,2.1-1.2,3
		c-0.5,0.9-1,1.6-1.5,2.2c-0.5,0.5-1.1,1-1.5,1.2c-0.5,0.2-0.9,0.4-1.4,0.4c-0.5,0-0.9-0.2-1.3-0.5c-0.4-0.3-0.5-0.7-0.5-1.2v-0.3
		c0.4-0.2,0.6-0.4,1-0.6l0.2,0.1v0.5c0,0.4,0.1,0.7,0.4,0.9c0.3,0.3,0.5,0.4,0.9,0.4c0.3,0,0.5,0,0.7-0.2c0.3-0.2,0.5-0.3,0.7-0.5
		c0.3-0.3,0.5-0.7,0.9-1.4c0.3-0.6,0.6-1.5,0.9-2.5l1-3.7c-1,1.5-1.9,2.4-2.6,3.1c-0.5,0.5-0.9,0.6-1.2,0.6s-0.5-0.1-0.6-0.4
		c-0.2-0.3-0.3-0.6-0.3-1.2c0-0.4,0-1,0.2-2.1c0.1-1.4,0.2-2.5,0.2-3.4c0-0.6,0-1-0.1-1.2s-0.2-0.3-0.3-0.3
		C408.8,499.5,408.2,499.8,407.5,500.4z"/>
</g>
<g>
	<g>
		<defs>
			<rect id="SVGID_1_" x="1" y="159" width="610.7" height="499.4"/>
		</defs>
		<clipPath id="SVGID_2_">
			<use xlink:href="#SVGID_1_"  overflow="visible"/>
		</clipPath>
		<path clip-path="url(#SVGID_2_)" d="M303,472.4c1,0,1.8-0.6,1.8-1.5c0-0.8-0.8-1.5-1.8-1.5c-1,0-1.8,0.6-1.8,1.5
			C301.2,471.7,302,472.4,303,472.4"/>
	</g>
</g>
<g>
	<path d="M197.6,315.2h5.3v63.1h34.5v4.1h-39.7V315.2z"/>
	<path d="M243.7,315.2h5.3v40.9c0,17.9,9.3,23.3,19.9,23.3c10.8,0,20.4-5.4,20.4-23.3v-40.9h4.9v41.4c0,21-12.3,27-25.3,27
		c-12.8,0-25-6-25-27L243.7,315.2L243.7,315.2z"/>
	<path d="M343.6,359.4H314l-8.9,23h-5.3l26.3-67.2h5.3l26.3,67.2h-5.4L343.6,359.4z M342.1,355.4l-4.8-12.5c-3.1-8-5.7-15-8.3-23.3
		h-0.5c-2.6,8.3-5.3,15.3-8.3,23.3l-4.8,12.5H342.1z"/>
	<path d="M367.1,315.2h5.4l31.6,47.4l8.4,13.3h0.5c-0.3-6.5-0.7-13.1-0.7-19.6v-41.3h5v67.2h-5.4l-31.6-47.4l-8.4-13.3h-0.5
		c0.3,6.4,0.7,12.5,0.7,19v41.7h-5V315.2z"/>
</g>
<g>
	<path d="M219.9,402.2H198v-4h48.6v4h-21.9v61.3h-4.8L219.9,402.2L219.9,402.2z"/>
	<path d="M294.8,463.6l-18.7-30h-14.6v30h-4.8v-65.3h19.7c13.7,0,22.5,4.7,22.5,17.2c0,10.4-6.8,16.4-17.6,17.8l19,30.3H294.8z
		 M275.2,429.8c12.1,0,18.9-4.6,18.9-14.2c0-9.8-6.8-13.3-18.9-13.3h-13.7v27.6H275.2z"/>
	<path d="M347,441.2h-27.2l-8.2,22.4h-4.8l24.2-65.3h4.8l24.2,65.3h-5L347,441.2z M345.7,437.3l-4.4-12.2
		c-2.8-7.7-5.3-14.6-7.6-22.6h-0.5c-2.4,8-4.8,14.9-7.6,22.6l-4.4,12.2H345.7z"/>
	<path d="M369.2,398.3h5l29,46.1l7.7,13h0.5c-0.2-6.3-0.6-12.7-0.6-19v-40h4.6v65.3h-5l-29-46.1l-7.7-13h-0.5
		c0.2,6.3,0.6,12.2,0.6,18.5v40.5h-4.6V398.3z"/>
</g>
<g>
	<g>
		<defs>
			<rect id="SVGID_3_" x="1" y="344.7" width="251.8" height="313.7"/>
		</defs>
		<clipPath id="SVGID_4_">
			<use xlink:href="#SVGID_3_"  overflow="visible"/>
		</clipPath>
		<path clip-path="url(#SVGID_4_)" d="M125,456.4c-1-0.1-2.1,0.4-3.1-0.4c-0.2-0.2-0.6-0.1-1,0c-0.7,0.2-1.5,0.5-2.3,0.6
			c0.2,0.3,0.4,0.5,0.5,0.6c0.1,0.5,2.7,1.1,3.5,1.4c2.6,0.8,4.4,1.7,7.2,1.5c1.4-0.2,2.9-0.5,4.3,0c1.8,0.5,8.6,0.3,10-1.2
			c0.4-0.4,1.2-0.5,1.7-0.5c1-0.3,2-0.5,3-0.7c1-0.3,2.7-1.5,2.9-1.5c-0.5,0-1,0.1-1.5,0.1c-0.3,0-0.6-0.2-0.9-0.4
			c-1.4-0.8-3.8-0.1-5.2,0c-1.9,0.2-8.7,1-8.6,1.5c-1.9-0.2-3.7,0-5.5-0.4C128.3,456.5,126.7,456.5,125,456.4 M145.2,457.1
			c-0.3,0-0.9,0.1-1.5,0.2c0-0.1,0-0.2,0-0.2H145.2z"/>
	</g>
	<g>
		<defs>
			<rect id="SVGID_5_" x="1" y="344.7" width="251.8" height="313.7"/>
		</defs>
		<clipPath id="SVGID_6_">
			<use xlink:href="#SVGID_5_"  overflow="visible"/>
		</clipPath>
		<path clip-path="url(#SVGID_6_)" d="M240.1,540.4c-0.2,0-7.3-4.2-9.2-4.5c-5.6-1.5-19-3-19.9-2.8c-2.3,0.2-7.5,1-8.3,1.2
			c-4.9,1.2-9.5,2.8-14.1,4.9c-2.8,1.3-5.8,2.4-8.7,3.5c-0.8,0.4-3.3,1.8-4.1,2.1c-2.8,1-4.2,0.7-7.2,1.7c-0.2-0.4-0.5-0.6-0.5-1.1
			c-0.9-2.2-2-4.2-4.1-5.5c-1.1-0.7-2.2-1.5-3.3-2.3c-0.3-0.2-0.6-0.4-0.9-0.5c-0.7-0.4-1.4-0.6-2-1.1c-0.2-0.2-0.4-0.5-0.5-0.8
			c-0.3-1.4-1.3-3.5-1.6-4.8c-1.1-3.6-0.4-6.5-0.8-10.2c-0.1-0.9,0.4-1.9,0.5-2.8c0.3-1.2,1.9-20.6,2-25.7c0-1.4-0.3-2.7-0.3-4.1
			c-0.1-2.8-0.1-5.5-0.1-8.3c0-1.9,0-3.8-0.1-5.7c0-2.4,0.1-4.9,0-7.3c0-0.6-0.3-3.6-0.3-4c-0.1-0.6-0.1-1.4-0.1-2
			c0-1.3,0.1-2.5,0.2-3.7c0.1-1.6,0.1-3.2,0.2-4.8c0.1-1.7,0.3-3.4,0.4-5.1c0.2-2.5,0.2-5.1,0.4-7.6c0.3-3.2,0.4-6.4,0.9-9.6
			c0.5-2.5,0.2-5.3,0.2-7.9c0-2.2-0.4-4.4-0.2-6.6c0.2-2.8,0.8-5.5,1.2-8.3c0.3-2-0.1-4.4,0.2-6.3c0.5-3,2.4-19.4,2.5-24.8
			c0-1,0.1-2,0.3-2.9c0.4-2.5,0.5-12.7,0.5-12.9c-0.7-1.6-0.4-3.4-0.5-5c-0.1-0.5-0.1-1.1-0.4-1.6c-0.2-0.3-5.5-4.7-5.9-4.8
			c-0.6-0.3-1.3-0.5-1.9-0.7c-1.8-0.7-3.6-1.5-5.4-2.1c-2.8-1-5.8-0.6-8.7-0.4c-2.2,0.2-4.4,0.5-6.5,0.9c-2,0.3-4,0.5-5.7,1.6
			c-0.8,0.5-1.8,0.9-2.8,1.3c-0.9,0.4-2.5,2.4-2.6,3c-0.1,1.7-0.2,3.4-0.3,5.1c-0.1,2.5,0,5.1-0.2,7.6c-0.3,5.3-0.7,10.5-1,15.8
			c-0.2,3.1-0.2,6.3-0.5,9.3c-0.4,3.6-0.5,7.3-0.5,11c0,2.4,0.2,4.9-0.3,7.3c0,0.3,0.3,1.7,0.1,2.4c-0.2,0.7-0.4,1.5-0.6,2.1
			c-0.2,0.8-1.3,5.9-1.5,6.6c-0.4,1-0.8,3.7-0.8,3.8c-0.1,0.7-3,12.1-2.6,16.3c0.3,3.1-0.8,6.9-1.5,9.9c-0.3,1.1-0.6,2.1-0.9,3.3
			c-1.1-0.8-1.3-1.8-1.7-2.7c-0.9-1.9-2.4-3.1-4.5-3.5c-0.8-0.2-1.6-0.6-2.4-0.9c-0.8-0.3-1.6-0.5-2.5-0.5c-1.4-0.2-2.8-0.2-4.3-0.3
			c-2.4-0.2-5.8-0.1-8.1,0.8c-1.2,0.5-5,2.2-6.1,3.1c-1.9,1.5-3.8,3.2-5.2,5.4c-1.6,2.5-3.2,5.1-4.8,7.7c-0.5,0.9-1.3,1.5-2.4,1.5
			c-3,0.1-4.9,0.5-7.9,0.7c-2.4,0.1-5,1.4-7.3,2.2c-3.3,1.1-6.3,2.4-8.6,4.9c-0.8,0.8-6.3,8.4-7.7,12.1c-0.7,0.2-1.5,0.1-2,0.5
			c-0.8,0.6-1.7,0.5-2.6,0.5c-1.9-0.2-3.8-0.1-5.6,0.7c-0.5,0.3-1.1,0.5-1.6,0.6c-1.4,0.5-2.7,0.7-4,1.4c-1.6,0.9-3.4,1.8-4.7,3.1
			c-1,0.9-5,3.1-5.7,4.2c-1.5,2.4-2.8,4.9-4.6,7.1c-4.2,5.3-6.9,11.1-7.2,17.9c-0.1,1.7,0.4,3,1.5,4.2c0.5,0.5,0.9,1.4,1.1,2.2
			c0.2,0.8,0.1,1.6,0,2.4c-0.2,1.8-0.5,3.6-0.8,5.4c-0.7,3.7-0.9,7.4-1.2,11.2c-0.1,2.1,0.1,4.1-0.1,6.2c-0.4,3.1-0.4,6.1-0.2,9.2
			c0.2,2.9,0.2,5.8,0.3,8.8c0.1,1.9,0.1,3.8,0.2,5.7c0.1,2.2,0.2,4.3,0.4,6.4c0.2,2.3,0.3,4.5,0.5,6.8c0.3,2.7,0.6,5.4,1,8.1
			c0.5,4,1.1,8,2.6,11.8c1.2,2.9,2.7,5.6,4,8.4c1.2,2.6,2.7,5.1,4.1,7.5c0.5,1.1,1.1,2.2,1.6,3.3c1.6,2.8,3.3,5.6,5,8.4
			c1,1.6,2.2,3.3,3.4,4.8c1.3,1.6,2.7,3.2,4.1,4.8c0.6,0.7,1.2,1.5,1.9,2c1.7,1.4,3.5,2.6,5.2,4.1c2.4,2.1,4.5,4.3,6.9,6.3
			c0.8,0.7,1.6,1.5,3.2,1.5c-0.5-0.8-0.8-1.5-1.4-2c-2-2.1-4-4.2-6-6.3c-1.1-1.2-2.1-2.6-3.3-3.8c-1.5-1.5-3.1-2.9-4.2-4.8
			c-1.5-2.4-3.3-4.6-5.2-6.7c-0.5-0.5-0.6-1.2-1-1.7c-0.5-0.9-0.9-1.8-1.5-2.7c-0.3-0.4-0.6-0.8-1.4-0.6c-0.5,0.1-0.9-0.4-0.6-1.1
			c0.3-0.8,0.1-1.7-0.5-2.3c-0.9-0.7-1.2-1.7-1.5-2.7c-1-2.5-1.6-5.3-3.2-7.5c-0.1-0.1-0.1-0.2-0.1-0.3c-0.5-1.4-1-2.6-1.5-4
			c-0.2-0.5-3.5-10.5-3.4-10.1c-0.7-1.2-1.5-2.3-1.4-3.7c0.1-0.4-0.4-2.4-0.4-3.2c-0.1-1-0.3-2-0.5-3c-0.1-0.5-0.5-0.8-0.5-1.1
			c0-0.5-0.4-2-0.2-2.6c0.1-0.5,0.2-1.3-0.2-1.5c-0.9-0.7-0.6-1.5-0.6-2.5c0.1-1.7,0.2-3.4,0.1-5.1c0-1.1-0.4-2.1-0.5-3.2
			c-0.3-2.3-0.5-4.5-0.7-6.8c-0.2-2.1-0.2-4.3-0.3-6.3c0-1.6,0.1-3.3,0.1-4.9c-0.2-4.1,0.1-8.3,0.5-12.3c0.2-1.8,0.5-3.5,0.8-5.4
			c0.5-3,1.1-6.1,0.9-9.2c-0.1-1.4,0.2-2.7,0.3-4.1c0.1-1.8-0.6-3.4-2-4.5c-1-0.8-1.5-1.9-2.2-2.9c-0.2-0.3-0.2-0.6-0.1-1
			c0.5-1.8,1-3.6,1.5-5.5c0.3-1,0.6-2,0.6-3c0-0.5,0.1-1,0.4-1.5c0.3-0.5,0.5-0.9,0.8-1.5c1-1.8,2-3.6,3-5.4c0.9-1.4,2-2.6,2.8-4.1
			c1.3-2.1,2.8-3.7,5.1-4.8c0.9-0.5,1.6-1.2,2.5-1.7c0.8-0.6,1.5-1.3,2.6-1.5c2-0.6,3.9-1.3,6.1-1.5c1.6-0.1,3.2-0.4,4.8-0.4
			c0.6,0,1.5,0,2-0.4c1.4-1.1,2.6-0.5,3.9,0.1c0.5,0.2,0.9,0.7,1.1,1.3c0.6,1.6,1.1,3.2,1.5,4.9c0.5,1.8,0.7,3.7,1.2,5.6
			c0.4,1.5,0.3,2.9,0.6,4.4c0.5,1.9,0.5,4,0.7,6c0.2,1.6,0,3.2,0.3,4.8c0.4,2.9,0.5,5.7,0.3,8.6c-0.1,1.1-0.5,1.9-1.3,2.7
			c-0.3,0.3-0.5,0.5-0.6,0.9c-0.7,1.5-1.4,3-2.1,4.5c-0.3,0.6-0.6,1.2-1,1.8c-0.5-0.2-0.9-0.5-1.3-0.5c-1.5-0.5-3.1-1.1-4.8-0.5
			c-0.9,0.4-2,0.5-3,0.7c-1.1,0.3-2.1,0.7-2.7,1.8c-0.3,0.5-0.8,0.8-1.2,1.2l0,0c-0.2,0.5-0.5,1-0.6,1.5H27c0.1,1.1-0.7,1.9-0.8,3
			c-0.1,0.7-0.3,1.5-0.5,2.2c-0.1,0-0.3,0.1-0.4,0.1c-0.8-0.9-1.6-1.8-2.4-2.7c-0.2-0.3-0.3-0.7-0.3-1.1c0.1-1.8,0.3-3.7,0.5-5.5
			c0.1-0.6,0.5-1.3,0.6-1.8c0.7,0.2,1.3,0.3,1.9,0.5c0.1-0.1,0.2-0.2,0.2-0.3c-0.6-1.4-1.1-2.8-2.1-4c-2-2.3-2.9-5-3.9-7.7
			c-0.1-0.2-0.1-0.5-0.1-0.7c-0.1-0.7-0.2-1.5-0.5-2.1c-1.1-2.5-1.5-5.2-2.2-7.8c-0.3-1.1-0.5-2.3-1.3-3.2c-0.6,0.2-1.3,0.4-1.9,0.5
			c-0.1,1.4-0.2,2.7-0.3,4c0,0.3-0.1,0.5,0,0.7c1,1.7,1,3.7,1.5,5.6c0.4,1.2,0.5,2.4,0.8,3.9c-1-0.5-1.6-0.9-2.3-1.2
			c-0.4-0.1-0.8,0-1.2,0c0.1,1.2-0.8,0.5-1.4,0.8c0.4,0.5,0.6,1.1,1,1.5c1.5,1.3,2.8,3.1,5.3,2.1c0.4,1.1,0.5,2,0.9,3
			c0.4,0.9,0.8,1.8,1.3,2.8c-1.6,1-3.4,1.1-5,1.7s-3.3,0.3-5,0c0.5,1.1,1.5,1.6,1.5,2.9c0,0.5,0.6,0.7,1.2,0.6
			c0.7-0.2,1.5-0.3,2.3-0.5c0.1,0.1,0.1,0.2,0.2,0.3c-0.5,0.4-0.8,0.8-1.3,1.2c1.5,0.5,1.7,0.4,2.6-0.4c1.1-0.8,2.2-1.5,3.5-2.4
			c-0.1,1.6-0.1,3-0.4,4.4c-0.3,1.2,0.1,2.1,0.6,3.1c0.4,0.7,0.7,1.4,0.9,2.1c0.4,1.1,0.8,2.1,2,2.5c1.1,0.5,2.3,1,3.4,1.5
			c0.5,0.2,0.9,0.5,1.5,0.6c1-0.1,2.3,0.4,3.3,0.5c0.3,0,0.5,0,0.7-0.1c1.5-0.8,3.3-0.5,4.9-0.8c1.4-0.3,2.3-1,2.9-2.3
			c1.3-2.5,1.7-5.3,2.8-7.9c0.1-0.3,0.2-0.5,0.5-1c0.9,1.2,1.7,2.3,2.5,3.4c0.8,1,1.5,2.1,2.4,3.1c0.4,0.4,1,0.5,1.5,0.8
			c0.3,0.2,0.6,0.3,0.9,0.5c1.5,1.1,3.1,2.3,4.9,3c0.1,0,0.1,0.2,0.3,0.4c-1.6,0.4-3.2,0.7-4.7,1c-0.6,0.1-1.3,0.3-1.9,0.4
			c-0.5,0.1-1.2,0.1-1.7,0.1c-0.3,0-0.5-0.1-0.7,0c-1.7,0.6-3.5,0.1-5.3,0.2c-1.8,0.1-3.6,0-5.4,0.1c-2,0.1-4-0.5-6-0.1
			c-1,0.3-3.2,0.4-3.2,0.4c-2.5,0.4-4.3-0.4-6.7-0.1c-0.5,0.1-1.1-0.1-1.4,0.5c0.3,0.4,0.5,0.8,0.9,1.1c0.8,0.5,1.5,1.3,2.7,1
			c1.4-0.4,2.6-0.6,4-0.9c0.9-0.2,1.8-0.5,2.7-0.4c2.5,0.3,5.2,0.3,7.7-0.1c0.3,0,0.5,0.1,0.8,0.1c-9,2.3-18,3.4-27.1,5.8
			c0.1,1.1,0.2,2.4,0.2,3.6c1.2,1.4,2.4,1.7,4.2,1.2c0.6-0.2,1.4-0.3,2-0.5c0.4-0.1,0.7-0.1,1-0.3c1.4-0.7,2.9-0.9,4.4-1.2
			c1.3-0.3,2.5-0.3,3.6-1.3c0.6-0.5,1.6-1,2.5-1.1c1.9-0.3,3.7-0.7,5.5-1.3c1-0.3,2-0.3,3,0.1c0.3-0.3,0.5-0.5,0.9-0.7
			c0.3-0.2,0.9-0.3,0.9-0.2c0.2,0.5,0.5,0.4,0.8,0.3c2.3-0.7,4.8-0.4,7-1.5c0.1-0.1,0.3,0,0.5,0c0.5-0.1,1.1-0.2,1.7-0.3
			c0.6-0.1,1.2-0.2,1.8-0.4c0.5-0.1,1.3,0.4,1.6-0.5c0.9,0.3,1.2-0.7,1.9-0.8c1.2-0.1,2.4-0.2,3.6,0c0.5,0.1,1,0,1.5-0.2
			c1.4-0.3,2.6-1.2,4.2-1.1c0.5,0,1.2-0.1,1.5-0.7c1.9,0,3.6-0.8,5.5-0.9c1.5-0.1,2.8-1,4.2-1.5c1-0.4,2-0.5,3.1-0.8
			c0.7-0.5,0.7,0.1,0.7,0.6c0.8-0.3,1.6-0.5,2.4-1.1c0.6-0.5,1.8-0.5,2.7-0.6c0.3-0.1,0.5-0.2,0.8-0.3c1.2-0.3,2.2-1.1,3.5-0.7
			c0.2,0,0.4-0.2,0.6-0.3c0.2-0.1,0.5-0.2,0.6-0.2c0.8,0.3,1.5,0,2.3-0.4c0.5-0.2,0.9-0.6,1.5,0c-0.4,1.3-1,2.4-1.7,3.4
			c-2.1,2.8-4.3,5.5-6.4,8.3c-0.3,0.4-0.6,0.7-1,1.1c-0.3,0.2-0.5,0.5-0.8,0.5c-1.5,0.5-3,0.9-4.4,1.4c-4.6,1.4-9.2,2.7-13.7,4.1
			c-2.3,0.7-4.4,1.6-6.8,2.5c0.1,0.8-0.6,1.1-1.3,1.5c-1.7,0.8-3.4,1.7-5.1,2.6c0.6,0.4,1.2,0.5,1.7,0.5c1.4-0.2,2.9-0.1,4-0.7
			c1.5-0.9,3.1-1.5,4.6-2c3.9-1.2,7.7-2.5,11.7-3.2c2.1-0.4,4.1-0.6,6.3-0.7c-0.3,0.3-0.4,0.5-0.5,0.7c-1.3,1.5-2.6,2.9-3.7,4.4
			c-1.9,2.7-3.7,5.6-5.4,8.5c-0.4,0.6-1,1.4-0.4,2.3c0.1,0.2,0,0.6-0.2,0.9c-0.9,1.6-1.8,3.3-2.6,5c-0.3,0.5-0.3,1.1-0.2,1.6
			c0,0.3,0.4,0.5,0.6,0.8c0.3-0.4,0.5-0.5,0.7-0.8c1.3-2.3,2.5-4.5,3.7-6.8c0.9-2,2.3-3.6,3.7-5.2c2.9-3.2,5.6-6.4,7.8-10.2
			c0.3-0.5,0.5-1,0.6-1.5c0.2-0.5,0.3-1.2,0.5-1.8c1.3-0.2,2.5-0.3,3.7-0.5c3.9-0.8,7.7-1.6,11.6-2.4c0.5-0.1,0.9-0.1,1.3-0.1
			c0.5,0,1,0.1,1.5,0.1c0.5,0,1.1-0.1,1.5-0.3c0.5-0.2,1.1,0,1.5-0.6c0.1-0.2,0.9,0.2,1.5,0.2c0.2,0,0.5-0.2,0.6-0.3
			c0.5-0.2,0.9-0.5,1.5-0.5c1.4-0.3,2.7-0.4,4-0.6c1.6-0.4,3.3-0.8,5-1.2c1.4-0.3,2.8-0.5,4.3-0.7c-0.6,1.8-1.7,3.1-3,4.2
			c-2.3,1.9-4.4,3.8-6.6,5.8c-4,3.6-7.4,7.9-11,12c-4.7,5.4-9.1,11-13,17c-0.5,0.7-0.9,1.6-1.4,2.4c-0.2,0.4-0.4,0.8-0.5,1.2
			c-2.3,3.4-4.3,6.9-5.9,10.5c-0.5,1-0.7,2-1.2,3c-1.1,2.4-1.9,4.9-2.2,7.5c-0.2,2.1-0.5,4.2-0.6,6.3c-0.1,1.1-0.2,2.2-0.3,3.2
			c0,0.3,0.2,0.5,0.4,0.7c0.1,0,0.2,0,0.4,0c0.7-2.1,1.5-4.1,2.1-6.2c0.4-1.2,0.9-2.4,1.2-3.6c0.3-1.4,0.7-2.5,1.6-3.6
			c0.5-0.5,0.7-1.3,1-1.9c0.3-0.7,0.3-1.6,0.7-2.4c1.1-1.8,2.4-3.5,3.6-5.4c1-1.5,2-3.1,3-4.7c0.2-0.4,0.1-0.8,0.2-1.1
			c0.5-0.8,1.1-1.5,1.5-2.3c0.2-0.4,0.3-0.7,0.5-1c1.5-2.2,3.1-4.3,4.5-6.4c0.8-1.3,1.7-2.5,2.3-3.9c0.3-0.8,0.5-1.5,1.1-2.2
			c0.1,0.2,0.2,0.4,0.4,0.7c1-1.3,1.9-2.4,2.8-3.5c0.1-0.1,0.1-0.4,0.1-0.4c-0.9-0.4-0.2-0.8,0-1.1c0.3-0.5,0.7-1.1,1.1-1.5
			c1.1-1.4,2.2-2.6,3.2-4c0.5-0.7,0.9-1.5,1.8-1.8c0.5-0.2,0.7-0.7,1.1-1.2c0.2-0.3,0.4-0.6,0.5-0.8c0.6-0.7,1.3-1.5,1.8-2.2
			c0.2-0.3,0.5-0.5,0.7-0.7c0.1,0.3,0.6,0.5,0.7,0.3c1.5-1.4,2.8-2.8,4.3-4.2c0.9-0.9,1.8-1.8,2.8-2.8c0.8-0.8,1.5-1.8,2.4-2.3
			c1.5-0.9,3-1.9,4.4-3c0.4-0.3,0.6-0.5,1-0.8c0.7-0.5,1.4-1.2,2.1-1.5c1.2-0.5,2.4-0.6,3.7-0.8c3.1-0.5,6.2-1,9.2-1.6
			c1.7-0.4,3.4-1,5.2-1.5c-0.7-0.4-1.2-0.6-1.6-0.9c-0.9-0.5-1.7-0.5-2.6,0c-0.4,0.2-0.7,0.2-1.1,0.2c-1.4,0.1-2.8,0-4.2,0.3
			c-1.3,0.2-4.9,0-5.5,0.3c-1.6,0.6-3.4,0.7-5.2,0.9c-0.9,0.1-1.5,0.6-2.3,0.8c-2.1,0.4-4.1,0.6-6.2,0.9c-0.7,0.1-1.5,0-2.3,0.1
			c-1.3,0.3-2.5,0.6-3.8,0.9c-0.5,0.1-1.1,0.2-1.6,0.3c-0.8,0.1-1.7,0-2.4,0.3c-2.3,0.9-4.6,0.1-6.9,0.9c-0.1,0-0.2,0-0.3,0
			c-0.4,0.1-0.8,0.1-1.1,0.3c-2.5,1-5.2,1.5-8,1.7c-0.8,0.1-1.9,0-2.4,0.5c-0.7,0.5-1.5,0.5-2.2,0.7c-0.6,0.2-1.5,0.2-2.3,0.2
			c0.1-0.3,0.1-0.5,0.3-0.6c1.1-1.5,2.3-3,3.3-4.6c1.3-2.1,2.4-4.3,3.4-6.4c0.5-1.1,1.2-1.7,2.4-2c2.2-0.4,4.3-0.8,6.4-1.2
			c2.2-0.4,4.4-0.8,6.6-1c2-0.2,4.1-0.4,6.1-0.8c1.7-0.4,3.5-0.5,5.3-0.9c2.2-0.5,4.4-1.1,6.5-1.6c0.8-0.2,1.6-0.5,2.4-0.8
			c0.2-0.1,0.3-0.5,0.5-0.9c-0.8-0.1-1.4-0.2-2-0.1c-4.4,0.2-8.6,0.5-13,1.1c-0.5,0.1-0.9-0.1-1.3,0.1c-3.4,1-6.7,1.4-10.2,1.1
			c-0.5,0-0.9,0.2-1.3,0.5c-1.1,0.9-2.4,1-3.8,0.9c0.7-0.7,1.4-1.3,1.9-1.8c-0.5-0.5-0.8-0.8-1.3-1.3c0.6-0.3,1.1-0.5,1.5-0.7
			c0.6-0.4,1.5-0.6,2-1.2c0.8-0.7,1.4-1.6,2.1-2.4c0.5-0.5,1.1-0.9,1.4-1.5c0.9-2,2.4-3.7,2.5-6c0-0.4,0.2-0.6,0.4-0.9
			c0.7-1.4,1.2-2.8,1.3-4.3c0.1-1.1,0-2.3,0.3-3.4c0.5-2.4,0.6-4.8,0.4-7.3c-0.1-1.3-0.2-2.6-0.1-3.9c0.3-2.4,0.6-4.7,1-7.1
			c0.4-2.5,0.7-5.1,1.2-7.7c0.3-2.1,0.6-4.3,0.9-6.3c0.5-4.9,0.9-9.8,1.4-14.7c0.1-1.2-0.1-2.4-0.2-3.6s-0.5-2.3-0.5-3.4
			c0-0.4,0.2-0.7,0.4-1.1c0.8-1.2,1.3-2.4,1.5-3.7c0.3-1.5,0.6-2.8,0.9-4.3c0.3-1.1,0.5-2.2,0.6-3.4c0.3-2.4,0.5-4.6,0.5-7
			c0-1.6-0.5-6.6-0.5-7c0.7-2.7,0.9-5.7,2-8.3c0.3-0.6,1.7-8.8,2.3-12.2c0.5-2.4,1-5.1,1.1-7.5c0.1-4,0.6-7.6,0.5-11.6
			c0-0.9,0.1-1.7,0.1-2.6c-0.1-3.6-0.3-7.3-0.3-11c0-3.2,0.2-6.4,0.3-9.6c0.1-2,0.2-4,0.4-6c0.2-2.6,0.4-5.3,0.5-7.9
			c0.2-1.9-0.5-4.9,0.5-5.6c3.1-1.6,10.4-2.2,11.3-2.3c3.1-0.1,6.3,0,9.3,0c0.5,0,4.4,0.5,5.3,1.2c2,1.5,4,3.1,6,4.6
			c0.6,0.5,0.6,1,0.5,1.7c-0.1,0.5-0.3,0.8-0.2,1.3c0.1,2.2,0.4,4.3,0.2,6.4c-0.2,2.9-0.6,5.7-1,8.6c-0.5,3.2-1,6.3-1.3,9.6
			c-0.4,4.1-0.5,8.2-1.3,12.2c-0.1,0.5,0.3,4.4,0.1,5.9c-0.5,3.4-1.7,6.9-2.1,10.3c-0.4,3,0.1,5.5-0.2,8.5c-0.1,1.3,0.4,7.6,0.4,8.5
			c0,2.7,0.1,5.4,0.1,8.1c0,1.2-2.2,20.2-2.1,20.2c0.2,1.5,0.6,3.9,0.5,4.6c-0.2,0.7,0.5,9.2-0.1,12.5c0,0.2,0,0.3,0,0.5
			c0.2,1.7,0.4,3.4,0.6,5.1c0.4,2.4,0.4,4.9,0.1,7.3c-0.3,2.4-0.7,4.7-1,7.1c-0.2,2.3-0.3,4.5-0.4,6.9c-0.1,3.5,0.4,7-0.2,10.5
			c-0.2,1.5-0.5,2.9-0.7,4.4c-0.6,3.4-1.5,10.2-1.2,10.2c-0.1,1.5,0.7,3.8,0.1,5.3c-0.5-0.5-2.2-1.7-2.4-2.2
			c-0.6-1.1-1.3-2.3-1.8-3.5c-0.3-0.6-0.6-1.1-1.3-1.4c-0.5-0.2-1.1-0.4-1.7-0.5c-0.2-0.2-0.4-0.5-0.5-0.8c-0.5-0.8-1.1-1-1.9-0.6
			c-0.5,0.3-0.6,0.6-0.3,1.2c0.3,0.3,0.5,0.5,0.7,0.8c-0.3,0.5-0.5,0.7-0.6,1c1,0.5,1.4,1.1,1.1,1.5c-0.3,0.1-0.5,0.1-0.8,0.2
			c0,0.2,0.1,0.3,0,0.4c-0.3,1.5,0.5,2.1,1.8,2.6c1.5,0.7,3,1.5,4.1,2.7c0.9,1.1,2,1.9,3.1,2.7c1,0.8,2.1,1.5,3,2.3
			c1.7,1.5,3.4,3.1,5.1,4.6c1.3,1.2,2.5,2.4,3.7,3.5c1.1,1,1.1,2.3,0.8,3.7c-1.1,0.4-2.2,0.6-3.2,1c-1.1,0.5-5.4,0.9-5.1,1.2
			c-1.5,0.1-2.8-0.7-4.2,0.2c0.3,1.4,0.9,2.4,2.4,2.5c1.1,0.1,2.1,0.4,3,0.9c1.9,1,4,0.6,6,1.2c0.2,0.1,0.5,0,0.7-0.1
			c1.4-0.6,2.6-1.3,4-1.8c1.2-0.5,2.4-1.2,3.7-0.6c0.4,0.1,1.3-0.6,1.7-0.8c1.7-0.7,2.7-1.2,4.4-2c1-0.5,2.3-0.5,3.1-1.2
			c2.4-1.9,5-3.4,7.8-4.6c0.4-0.2,0.8-0.4,1.2-0.6c3.1-2,6.5-3.3,10-4.6c0.4-0.1,0.7-0.1,1.3-0.3c-1.4,2.4-2.5,4.7-3.8,6.9
			c-1.4,2.4-2.2,4.8-2.3,7.4c0,0.8,0,1.6,0.5,2.2c1.3-0.4,0.8-1.7,1.6-2.4c0.1,0.8,0.2,1.5,0.3,2.1c0.4,0.1,0.6,0.1,0.8,0.2
			c-0.4,3.3-0.7,6.4-1,9.7c0.3,0.3,0.6,0.6,1.1,1c1.5-2.2,1-4.7,1.9-7c0.8,0,1.2-0.5,1.2-1.4c0-0.9,0.1-1.7,0.2-2.6
			c0.3-3.1,0.7-6.2,1.9-9.1c0.5-1.4,0.9-2.8,1.4-4.2c0.4-1.2,0.7-2.4,1.2-3.7c2.3-0.7,9-0.9,10.8-0.6c3.2,0,10.8,1.7,12,2
			c2.4,0.5,6,0.6,8.3,1.2c3.4,0.7,5.9,1.8,8.7,3.6c1.9,1.3,4.2,3.5,5.6,3C246.6,545,243,541.7,240.1,540.4 M23.8,631.8
			c-0.3-0.5-0.6-0.8-0.9-1.3C23.6,630.7,23.8,631.2,23.8,631.8 M39.6,538.4c-0.6,1.4-1.3,2.7-1.9,4.2c-0.5-0.2-0.8-0.3-1.2-0.4
			c-1.5,2.3-3.7,2.4-6.3,2c-0.1-1.4,0-2.7,0.5-4c0.6-1.6,1.5-3.3,2.4-4.8c0.2-0.5,0.5-0.5,1.1-0.5c0.5,0,1.1,0,1.5-0.2
			c1.3-0.6,2.4-0.1,3.8-0.1c0,0.3-0.1,0.6,0.1,0.7C40.6,536.4,40.1,537.4,39.6,538.4 M40.6,549.4c1-0.7,2-1.1,3.1-1
			c0,0.1,0,0.3,0,0.4C42.7,549,41.6,549.1,40.6,549.4 M48.7,552c0-0.1-0.1-0.2-0.1-0.3c0.7-0.2,1.4-0.4,2.1-0.5
			c0,0.1,0.1,0.3,0.1,0.4C50.1,551.7,49.4,551.9,48.7,552 M103.9,539.3c0,0.1,0,0.2,0.1,0.4l-1.4,0.3c0-0.1,0-0.2,0-0.3
			C103,539.5,103.5,539.4,103.9,539.3 M107.7,452.1c-0.5,0-0.9,0.1-1.3,0.1c0-0.1,0-0.2,0-0.4h1.4C107.7,452,107.7,452,107.7,452.1
			 M51.5,530.1c-0.6,1.9-1.2,3.8-1.6,5.8c-0.2,0.6,0.3,1.4,0.5,2.4c-0.5-0.4-0.8-0.5-0.9-0.8c-0.6-1.3-1.2-2.6-1.7-4
			c-0.1-0.3,0-0.5,0-0.9c0-0.5,0-1-0.4-1.5c-0.3-0.4-0.2-1.1,0-1.5c1-1.8,1.3-3.9,1.9-5.8c0.5-1.6,0.5-3.4,0.5-5
			c0-1.1-0.1-2.1,0-3.2c0.1-0.6,0.3-1.2,0.4-1.8c0.2-1.3-0.1-2.6-0.2-4c-0.7-0.4-0.5-1.1-0.6-1.6c-0.2-1-0.4-2-0.5-3
			c-0.1-1.4-0.5-2.8,0.1-4.2c0.2-0.5,0.1-1.2,0.1-1.7c-0.3-2.5-0.3-5.2-1.1-7.7c-0.8-2.4-1.4-4.9-0.7-7.4c0.3-1.1,0-2.2,0-3.4
			c-0.1,0-0.1,0-0.2,0c-0.1,0.5-0.3,0.9-0.5,1.4c-0.4,1.1-0.4,1.1-1.4,0.8c-0.3-0.1-0.5-0.1-0.8-0.2c0,0.8-0.1,1.5-0.1,2.4
			c-0.9-0.5-1.2-0.6-0.8-1.5c0.4-1,0.8-2.1,1.5-3c1.1-1.4,2.3-2.6,3.5-3.9c0.4-0.4,0.8-0.7,0.7-1.4c-0.1-0.6,0.3-1,0.7-1.3
			c0.7-0.5,1.4-0.9,2.1-1.5c1.3-1,2.8-1.2,4.3-1.8c1-0.5,2-0.7,3.2-1.1c0.1,0.2,0.3,0.5,0.5,0.8c-1.8,0.7-3.6,1.4-5.3,2
			c-1.2,0.5-2.4,0.9-3.6,1.5c-0.6,0.3-1,0.9-0.9,1.5c0.1,0.5,0.4,1,0.7,1.4c0.2,0.2,0.8-0.2,1.2-0.4c0.5-0.3,0.8-0.6,1.3-1
			c0.3,0.1,0.6,0.2,1,0.3c0.2-0.3,0.5-0.5,0.5-0.7c0.5-1.5,1.5-2.1,3-2.3c2.9-0.4,5.7-1.3,8.5-2.1c3.1-1,6.3-1.1,9.5-0.9
			c0.3-1.4-1.3-2.7-2.5-2.4c-0.5,0.1-1,0.4-1.4,0.3c-2.3-0.6-4.6-0.1-7-0.4c2.1-1.3,4.1-2.4,6.7-2.1c0.4,0.1,0.7,0,1.2,0
			c1.5,0,2.6,0.4,3.5,1.5c0.5,0.7,1.2,1.3,1.7,1.9c0.2,0.3,0.5,0.5,0.5,0.9c0.5,1.6,0.9,3.2,1.3,4.8c0.7,3.4,1.5,6.6,1.9,10.1
			c0.7,6.2,1.6,12.4,1.5,18.7c0,0.4,0.1,0.9-0.1,1.2c-0.8,1.3-0.5,2.5-0.3,3.8c0.1,0.5-0.1,0.9-0.2,1.3c-0.2,0.7-0.4,1.4-0.5,2.1
			c-0.5,1.7-0.7,3.5-1.3,5.3c-0.4,1.3-1,2.4-1.6,3.5c-2.1,3.5-4.2,7.1-6.4,10.6c-0.1-1,0.1-2-0.6-2.7c-1.3-1.4-2.4-2.9-4.4-3.3
			c-0.5-0.1-1-0.2-1.3,0c-1.3,0.8-2.6,0.6-4,0.7c-3.4,0.3-6.3,1.4-8.7,3.9c-0.1,0.1-0.2,0.2-0.4,0.4
			C52.3,529.3,51.7,529.4,51.5,530.1 M75.4,532.1c2.5,2.2,5.5,3.5,8.7,5.3c-4.7,0.6-9.2,1.3-14,1.9c0.4-1.5,0.7-2.5,1.7-3.4
			c0.4-0.3,0.6-0.6,0.8-1C73.3,533.7,74.1,532.7,75.4,532.1 M54.7,541c-0.7-0.5-1.5-0.9-2.3-1.4c-0.7-0.5-0.5-0.9-0.1-1.5
			c0.4,0.1,0.6,0.2,1,0.3c1.2,0.4,2-0.1,2.2-1.3c0.3-1.2,0.5-2.3,0.6-3.4c0.2-1.9,1.5-2.8,2.8-3.9c1.5-1.4,3.4-1.3,5.2-1.6
			c1-0.2,1.9,0,2.8,0.5c0.7,0.4,1,0.9,0.8,1.6c-0.2,1.2-0.4,2.4-0.6,3.5c-0.2,1-0.4,2-0.5,3c-0.1,0.5-0.3,1.2-0.5,1.6
			c-0.3,0.4-0.4,0.7-0.5,1.1c-0.2,0.5-0.5,1-1,1.2C61.3,542.4,57.9,543.1,54.7,541 M65.7,548.8L65.7,548.8h-0.9v-0.3
			c0.6-0.2,1.2-0.3,1.8-0.5c0,0.1,0.1,0.1,0.1,0.2C66.3,548.5,66,548.6,65.7,548.8 M95.8,538.5c-1.7,0.4-3.4,0.7-5.2,1.1
			c-6,1.2-12.1,2.4-18,3.6c-2,0.4-3.9,0.7-5.9,1.1c-0.3,0.1-0.6,0-1,0c1.1-1.2,2.1-2.4,3.2-3.5c4,0.2,7.9-0.5,11.8-1
			c2.4-0.3,4.7-0.7,7.1-1.1c0.1,0,0.2-0.1,0.3,0c3,0.5,5.6-0.6,8.3-1.5c0.2,0,0.3,0,0.5,0c0.1,0,0.2,0.1,0.3,0.2
			C97.1,538.3,96.4,538.4,95.8,538.5 M97.5,532.1c0.5,0.5,0.8,0.9,1.2,1.3c-0.4,0.6-0.8,1.2-1.6,1.1c-0.1,0-0.3,0-0.4,0.1
			c-0.7,1.5-2.1,1.6-3.4,1.7c-0.6,0.1-1.4,0.3-2,0.3c-0.9,0.1-2,0.5-2.6-0.6c-0.1-0.2-0.5-0.2-0.6-0.3c-0.4-0.1-0.7-0.2-1.1-0.4
			c-3-1.3-2.8-1.2-2.6-4.2c0.1-0.5,0.1-1.2,0.1-1.7c0-2.2,3-5.2,5.4-5.3c2.7-0.6,5.1-0.6,7.4,0c0.3,0.1,0.5,0.2,0.8,0.2
			c1.4,0.1,2.3,0.8,3,2C100.3,528.6,100.1,531.1,97.5,532.1 M103.9,530c-0.1-0.1-0.2-0.2-0.3-0.3c0.2-0.2,0.4-0.3,0.5-0.5l0.2,0.2
			C104.2,529.6,104,529.8,103.9,530 M114,467.9c-0.1,3.8-0.6,7.4-1.4,11.2c-0.6,3.2-0.9,6.3-1.5,9.5c-0.5,3-1,6.1-1.6,9.1
			c-0.5,2.6-0.7,5.3-0.5,8c0.2,2.5-0.1,5.2-0.3,7.7c-0.1,1.5-0.3,3-0.4,4.4c-0.1,2.2-1.1,4.1-1.7,6c-0.3,0.8-0.6,1.6-1,2.4
			c-0.3,0.5-0.6,1-1.1,1.7c-0.1-0.5-0.2-0.6-0.1-0.7c1-2.8-0.9-4.4-2.8-4.9c-2.2-0.6-4.4-1.2-6.6-1.6c-0.7-0.2-1.5,0-2.3,0.1
			c-2.3,0.3-4.4,0.6-6.6,0.9c-0.8,0.1-1.5,0.5-1.9,1.2c-1,1.5-2.1,2.8-3.1,4.3c-0.3,0.5-0.7,0.8-1.1,1.3c0.5,0.5,1.8,0.9,0.5,2
			c0.4,0.8,0.7,1.5,1.1,2.4c-2.4-0.5-2.9-2.2-3.3-4.1c-0.1-0.3,0.1-0.6,0.3-0.9c1-2.4,2.3-4.9,3.8-7.1c1.1-1.5,1.7-3.4,2.3-5.2
			c0.5-1.8,1-3.7,1-5.7c0-0.5,0-1-0.2-1.5c-0.6-1.3-0.6-2.6-0.7-4c-0.1-3.7-0.3-7.5-0.4-11.2c0-1.2-0.2-2.4-0.2-3.6c0-1,0.2-2,0.1-3
			c-0.2-2-0.5-4-0.7-6c-0.1-1-0.1-1.9-0.1-2.9c0-0.5-0.1-1.2-0.3-1.7c-0.6-2.7-1-5.4-0.9-8.3c0.1-1.2-0.1-2.3,0.4-3.4
			c0.2-0.5-0.3-1.3-0.5-2.1c-0.7-0.2-1.5-0.5-2.4-0.5c-1-0.1-1.4,0.4-1.5,1.4c-0.1,1.1-0.5,1.4-1.5,1c-0.5-0.2-1-0.4-1.5-0.5
			c0.8-1.5,1.5-3.1,2.4-4.4c0.5-0.7,5.1-9.2,8.9-9.9c3.4-0.6,6.7-1.5,10.2-1.4c2.8,0.2,5.7,0.6,8.5,1.1c0.5,0.1,0.9,0.5,1.2,0.7
			c0.2,0.3,0.2,0.6,0.3,1.1c-2.4-0.2-4.6-0.5-6.8-0.5c-2.1-0.1-4.1-0.4-6.2-0.2c-1.4,0.1-2.6,0.9-4.1,1.4v2.4
			c-0.4,0.2-1.5,0.7-1.5,0.7c-1.9,0.5-0.3,0.6,0.1,1.1c0.1,0.1-1.7,2,0,1.7c0.6-0.1,8.3-1.5,10.6-1.8c2-0.3,3.9-1,5.5-2.2l0,0
			c1,0.2,2.1,0.3,3.1,0.5c0.3,0.1,0.5,0.5,0.7,0.9c0.8,2.4,2.3,4.3,3.8,6.3C113.7,462.8,114.1,465.3,114,467.9 M95.4,452.3
			c-1.3,0.3-2.4,0.5-3.7,0.8l-0.1-0.3c1.2-0.5,2.4-0.6,3.8-0.8C95.4,452.1,95.4,452.2,95.4,452.3"/>
	</g>
	<g>
		<defs>
			<rect id="SVGID_7_" x="1" y="344.7" width="251.8" height="313.7"/>
		</defs>
		<clipPath id="SVGID_8_">
			<use xlink:href="#SVGID_7_"  overflow="visible"/>
		</clipPath>
		<path clip-path="url(#SVGID_8_)" d="M252.7,551.6c0-0.6-0.2-1.3-0.8-1.6c-0.7,0.6-0.5,1.5-0.4,2.2c0.1,1.3-0.2,2.4-0.8,3.5
			c-0.7,1.3-1.3,2.6-1.9,3.9c-0.8,1.5-1.5,3.2-2.4,4.7c-0.3,0.5-3.4,6-5.4,7.6c-0.2,0.7-1,1.2-1.8,1.4c-0.1,0-0.2,0-0.4,0
			c-0.1-0.3-2.7-1.3-3.9-1.4c-1.5-0.2-2.8-0.3-4.3-0.5c-2.1-0.2-4.3-0.7-6.3-0.6c-2.7,0.2-5.5,0.7-8.2,1.5
			c-4.4,1.4-8.7,3.3-12.2,6.4c-0.5,0.4-0.9,0.5-1.5,0.3c-1.6-0.7-3.4-1.7-5.1-2c-2.2,0.5-3.9,1.6-5.4,3.2c-1.5,1.5-3.3,2.9-4.9,4.4
			c-0.5,0.5-0.8,1-1.2,1.5c-0.4,0.5-0.7,0.9-1,1.5c-1.9,2.6-3.8,5.3-5.6,8c-2.1,3.1-4.1,6.3-6.1,9.5c-0.5,0.9-1.1,1.7-1.6,2.6
			c-1.1,1.7-2,3.4-3.2,5.1c-3.1,4.1-7.2,7.1-11,10.4c-1.6,1.4-3.4,2.7-5,4.1c-1.8,1.5-3.5,3.1-5.3,4.4c-3.4,2.4-7,4.8-10.5,7.2
			c-3.7,2.5-11.7,5.7-11.3,6.2c-4.2,2.1-8,4.6-12.5,5.9c1.1,0.1,2.1,0.2,3-0.1c3.1-1.1,8.9-3.2,9.1-3.4c0.5-0.5,1.5-1.2,1.5-1.2
			c0.7-0.5,1.6-0.8,2.4-0.9c-0.6,0.7-1.5,1.1-2.2,1.5c0,0-1.2,0.8-1.3,0.9c0.2,0.4,0.5,0.4,1,0.5c2,0.3,3.9-0.4,5.6-1.1
			c2.9-1.2,5.3-3.4,8.3-4.5c1.6-0.6,3.1-1.7,4.5-2.7c2.5-1.8,4.9-3.7,7.3-5.6c0.7-0.5,13.1-10.2,16.1-13.4c2.8-3,4.9-6.4,6.8-10
			c1.2-2.1,2.3-4.2,3.7-6.1c0.5-0.7,6-10.7,8.4-14.6c1.3-2.5,2.5-4.5,4.8-5.9c0.9-0.5,1.7-1.1,2.5-1.7c0.7-0.5,1.4-0.6,2.1-0.2
			c1.1,0.6,2.2,0.8,3.2-0.3c0.5,0.2,0.8,0.5,1.2,0.6c1.5,0.6,3,0.4,4.1-0.9c0.5-0.5,1.1-1,1.9-1.2c1.1-0.3,2.3-0.7,2.7-1.7
			c0.4-0.8,1-1.2,1.7-1.4c2.4-0.7,4.9-1.4,7.3-2.1c2.5-0.7,5.1-1,7.7-0.8c2.9,0.2,6.4,0.3,8.9,2c1.5,1,3.2,1,4.9,0.9
			c1.1-0.1,2.6-1.4,2.9-1.5c1.5-1.1,2.3-1.8,3-3.5c0.8-1.9,2.2-3.4,3-5.3c0.7-1.8,1.5-3.7,2.3-5.5c0.5-1,0.7-2,1-3.1
			C252.8,556,252.6,553.9,252.7,551.6"/>
	</g>
	<g>
		<defs>
			<rect id="SVGID_9_" x="1" y="344.7" width="251.8" height="313.7"/>
		</defs>
		<clipPath id="SVGID_10_">
			<use xlink:href="#SVGID_9_"  overflow="visible"/>
		</clipPath>
		<path clip-path="url(#SVGID_10_)" d="M146.2,501c-0.9,0.8-1.7,1.8-3.4,1.4c1.8,1.3,3.8,0.9,5.4,2.3c-0.9,0.3-1.6,0.2-2.3,0.1
			c-2.8-0.3-5.6-0.6-8.4-0.8c-1.8-0.2-3.7-0.2-5.5-0.2c-0.6,0-1.2,0.3-1.8,0.5c-0.3,0.1-0.5,0.2-0.8,0.2c-3-0.1-6.1-0.2-9.1-0.3
			c-0.5,0-1-0.3-1.3,0.4c-0.1,0.1-0.5,0.2-0.6,0.2c-1.3-0.1-2.5-0.2-3.8-0.3c-0.5-0.1-1.1-0.2-1.1-0.7c0-0.4,0.3-0.8,0.5-1.1
			c1.5-1.5,3.4-1.7,5.3-2.1c1.2-0.2,2.4-0.2,3.5-0.3c2.3-0.2,4.5-0.6,6.8-0.6c2.5-0.1,5.1,0,7.6,0.3c1.9,0.2,3.8,0.8,5.7,1.2
			c0.5,0.1,1.2,0.1,1.7,0.1C145.2,500.9,145.7,500.9,146.2,501 M131.1,502.5c-1.7-0.2-3.4,0.2-5.1,0.5
			C127.9,503.7,129.5,503,131.1,502.5 M137.8,502.4c0,0.1,0,0.1,0,0.2h1c0-0.1,0-0.1,0-0.2H137.8z"/>
	</g>
	<g>
		<defs>
			<rect id="SVGID_11_" x="1" y="344.7" width="251.8" height="313.7"/>
		</defs>
		<clipPath id="SVGID_12_">
			<use xlink:href="#SVGID_11_"  overflow="visible"/>
		</clipPath>
		<path clip-path="url(#SVGID_12_)" d="M152.2,395.9c-0.9-0.1-1.7,0.4-2.7,0.1c0.6-1,1.7-0.3,2.4-1c3.4-1-0.6-1.3-1.6-1
			c-1,0.3-12.1,1-13.6,0.7c-4.5-0.6-0.5,0.5,0.5,0.7c0.9,0.3,6,0.4,7.3,0.1c1.1-0.1,0.7,0.2,0,0.5c-1.5,0.2-3,0.2-4.8,0
			c0,0-2.8-0.3-2.9-0.2c-0.6-0.1-1.3-0.1-1.8-0.3c-1.2-0.4-2.4-0.7-3.6-1.1c-0.7-0.3-1.5-0.5-2.5,0c0.3,0.4,0.5,0.8,0.7,1
			c0.3,0.3,0.6,0.5,1,0.5c0.4,0.2,0.8,0.2,1.3,0.4c0.4,0.1,0.7,0.2,1.1,0.4c0,0.1,0,0.2-0.1,0.3c-1.1-0.2-2.2-0.3-3.4-0.5
			c0.2,0.8,0.9,1.2,1.5,1.4c1.6,0.4,3.3,0.6,4.9,0.9c1.5,0.2,2.9,0.2,4.4,0.3c0.7,0,1.5,0.2,2.2,0.2c3.6,0.2,7.2-0.5,10.6-1.7
			c0.6-0.3,1.4-0.5,1.8-1C153.8,396.4,153,396,152.2,395.9"/>
	</g>
	<g>
		<defs>
			<rect id="SVGID_13_" x="1" y="344.7" width="251.8" height="313.7"/>
		</defs>
		<clipPath id="SVGID_14_">
			<use xlink:href="#SVGID_13_"  overflow="visible"/>
		</clipPath>
		<path clip-path="url(#SVGID_14_)" d="M18.7,500c0.2-1.1,1.3-1.3,1.9-1.8c0.6-0.6,1.5-1.1,2.4-1.6c-0.4-0.5-0.6-0.9-1-1.4
			c4.2-3,14-6.2,17-5.4c-0.2,0.1-0.4,0.2-0.6,0.4c0.4,0.1,0.6,0.2,1,0.3c-0.3,0.3-0.5,0.5-0.7,0.7c1.2,0.1,1.1,1.2,1.6,1.9
			c-0.4,0.2-0.6,0.4-1,0.4c-0.8,0.1-1.5,0.1-2.4,0.1c-1.2,0-2.3,0.3-3.4,0.8c-2,1.1-4.1,1.8-6.2,2.7c-1.8,0.8-3.7,1.6-5.5,2.5
			C20.5,500.5,20.5,500.5,18.7,500"/>
	</g>
	<g>
		<defs>
			<rect id="SVGID_15_" x="1" y="344.7" width="251.8" height="313.7"/>
		</defs>
		<clipPath id="SVGID_16_">
			<use xlink:href="#SVGID_15_"  overflow="visible"/>
		</clipPath>
		<path clip-path="url(#SVGID_16_)" d="M32.2,529.5c-0.4,0-1.7,0.1-1.7-0.2c-0.2-1.3-1.2-1.3-2.1-1.7c0.5-0.2,1.1-0.4,1.6-0.5
			c2.4-0.2,4.8-0.9,7.2-1.5c0.4-0.1,0.7-0.3,1-0.5c0.6-0.5,1.3-0.8,2.2-0.6c0.4,0.1,0.7-0.2,1.1-0.3c1.2-0.4,2.3-0.7,3.5-0.3
			c-0.2,0.8-0.9,1.1-1.5,1.5c-0.6,0.5-1.3,0.9-1.9,1.3c-0.6,0.4-1.2,0.7-2,0.8C37.6,527.5,33.4,529.5,32.2,529.5"/>
	</g>
	<g>
		<defs>
			<rect id="SVGID_17_" x="1" y="344.7" width="251.8" height="313.7"/>
		</defs>
		<clipPath id="SVGID_18_">
			<use xlink:href="#SVGID_17_"  overflow="visible"/>
		</clipPath>
		<path clip-path="url(#SVGID_18_)" d="M91,511.1c-0.3-0.5-0.5-0.8-0.8-1.4c1.7-0.3,3.4-0.5,4.9-0.9c0.9-0.2,1.7-0.5,2.6-0.8
			c1.3-0.4,2.5-0.7,3.8-1c0.8-0.2,1.8,0.5,2.2,1.4c0.4,0.7,0.6,1.5,1.1,2.4c1-0.3,2.2-0.5,3.5-0.8c-0.9,1.3-1.6,2.4-3,3
			c-2.6,1.1-5.3,2-8.3,2.3c-1.5,0.2-3,0.5-4.5,0.5c-1.4,0.1-2.8,0.1-4.2-0.1c-1.8-0.3-2.7-1.4-2.4-2.8c0.2-0.8,0.6-1.4,1.4-1.1
			C88.7,512.3,89.7,511.5,91,511.1"/>
	</g>
	<g>
		<defs>
			<rect id="SVGID_19_" x="1" y="344.7" width="251.8" height="313.7"/>
		</defs>
		<clipPath id="SVGID_20_">
			<use xlink:href="#SVGID_19_"  overflow="visible"/>
		</clipPath>
		<path clip-path="url(#SVGID_20_)" d="M56.8,522.4c0-0.2,0.1-0.5,0.1-0.9c-1-0.3-2-0.5-3.2-0.8c0.2-0.5,0.4-1,0.6-1.5
			c5.8,0.4,11.3-0.6,16.8-2.5c0.1,0.2,0.2,0.4,0.4,0.6c1.3-0.6,2.7-0.8,3.8-2c0.5-0.5,1.1-0.3,1.2,0.5c0,0.5-0.1,1.3-0.5,1.7
			c-0.6,1-1.6,1.6-2.7,1.9c-3.3,1-6.4,2.4-9.9,3c-1.3,0.2-2.4,0.5-3.7,0.8c-0.4,0.1-0.7,0-1.1-0.1C58,522.9,57.5,522.7,56.8,522.4
			 M57.4,521.7c0,0.1,0.1,0.3,0.1,0.4c0.6-0.1,1.4-0.2,1.9-0.8C58.7,521.4,58,521.5,57.4,521.7"/>
	</g>
	<g>
		<defs>
			<rect id="SVGID_21_" x="1" y="344.7" width="251.8" height="313.7"/>
		</defs>
		<clipPath id="SVGID_22_">
			<use xlink:href="#SVGID_21_"  overflow="visible"/>
		</clipPath>
		<path clip-path="url(#SVGID_22_)" d="M60.5,517c2.4-1,4.7-2,7-2.9c0.9-0.4,1.8-0.7,2.7-1.1c0.1,0,0.2-0.1,0.3-0.1
			c1.7,0,3.1-1.1,4.6-1.5c0.7-0.2,1.5-0.3,2,0.4c0.6,0.6,0.7,1.4-0.1,1.8c-0.7,0.5-1.5,0.8-2.4,1.1c-3.7,1.3-7.6,1.7-11.4,2.7
			C62.4,517.5,61.6,517.5,60.5,517"/>
	</g>
</g>
<g>
	<g>
		<defs>
			<rect id="SVGID_23_" x="359.9" y="159" width="251.8" height="313.7"/>
		</defs>
		<clipPath id="SVGID_24_">
			<use xlink:href="#SVGID_23_"  overflow="visible"/>
		</clipPath>
		<path clip-path="url(#SVGID_24_)" d="M487.7,360.9c1,0.1,2.1-0.4,3.1,0.4c0.2,0.2,0.6,0.1,1,0c0.7-0.2,1.5-0.5,2.3-0.6
			c-0.2-0.3-0.4-0.5-0.5-0.6c-0.1-0.5-2.7-1.1-3.5-1.4c-2.6-0.8-4.4-1.7-7.2-1.5c-1.4,0.2-2.9,0.5-4.3,0c-1.8-0.5-8.6-0.3-10,1.2
			c-0.4,0.4-1.2,0.5-1.7,0.5c-1,0.3-2,0.5-3,0.7c-1,0.3-2.7,1.5-2.9,1.5c0.5,0,1-0.1,1.5-0.1c0.3,0,0.6,0.2,0.9,0.4
			c1.4,0.8,3.8,0.1,5.2,0c1.9-0.2,8.7-1,8.6-1.5c1.9,0.2,3.7,0,5.5,0.4C484.4,360.8,486,360.8,487.7,360.9 M467.5,360.2
			c0.3,0,0.9-0.1,1.5-0.2c0,0.1,0,0.2,0,0.2H467.5z"/>
	</g>
	<g>
		<defs>
			<rect id="SVGID_25_" x="359.9" y="159" width="251.8" height="313.7"/>
		</defs>
		<clipPath id="SVGID_26_">
			<use xlink:href="#SVGID_25_"  overflow="visible"/>
		</clipPath>
		<path clip-path="url(#SVGID_26_)" d="M372.6,276.7c0.2,0,7.3,4.2,9.2,4.5c5.6,1.5,19,3,19.9,2.8c2.3-0.2,7.5-1,8.3-1.2
			c4.9-1.2,9.5-2.8,14.1-4.9c2.8-1.3,5.8-2.4,8.7-3.5c0.8-0.4,3.3-1.8,4.1-2.1c2.9-1,4.2-0.7,7.2-1.7c0.2,0.4,0.5,0.6,0.5,1.1
			c0.9,2.2,2,4.2,4.1,5.5c1.1,0.7,2.2,1.5,3.3,2.3c0.3,0.2,0.6,0.4,0.9,0.5c0.7,0.4,1.4,0.6,2,1.1c0.2,0.2,0.4,0.5,0.5,0.8
			c0.3,1.4,1.3,3.5,1.6,4.8c1.1,3.6,0.4,6.5,0.8,10.2c0.1,0.9-0.4,1.9-0.5,2.8c-0.3,1.2-1.9,20.6-2,25.7c0,1.4,0.3,2.7,0.3,4.1
			c0.1,2.8,0.1,5.5,0.1,8.3c0,1.9,0,3.8,0.1,5.7c0,2.4-0.1,4.9,0.1,7.3c0,0.6,0.3,3.6,0.3,4c0.1,0.6,0.1,1.4,0.1,2
			c0,1.3-0.1,2.5-0.2,3.7c-0.1,1.6-0.1,3.2-0.2,4.8c-0.1,1.7-0.3,3.4-0.4,5.1c-0.2,2.5-0.2,5.1-0.4,7.6c-0.3,3.2-0.4,6.4-0.9,9.6
			c-0.5,2.5-0.2,5.3-0.2,7.9c0,2.2,0.4,4.4,0.2,6.6c-0.2,2.8-0.8,5.5-1.2,8.3c-0.3,2,0.1,4.4-0.2,6.3c-0.5,3-2.4,19.4-2.5,24.8
			c0,1-0.1,2-0.3,2.9c-0.4,2.5-0.5,12.7-0.5,12.9c0.7,1.6,0.4,3.4,0.5,5c0.1,0.5,0.1,1.1,0.4,1.6c0.2,0.3,5.5,4.7,5.9,4.8
			c0.6,0.3,1.3,0.5,1.9,0.7c1.8,0.7,3.6,1.5,5.4,2.1c2.8,1,5.8,0.6,8.7,0.4c2.2-0.2,4.4-0.5,6.5-0.9c2-0.3,4-0.5,5.7-1.6
			c0.8-0.5,1.8-0.9,2.8-1.3c0.9-0.4,2.5-2.4,2.6-3c0.1-1.7,0.2-3.4,0.3-5.1c0.1-2.5,0-5.1,0.2-7.6c0.3-5.3,0.7-10.5,1-15.8
			c0.2-3.1,0.2-6.3,0.5-9.3c0.4-3.6,0.5-7.3,0.5-11c0-2.4-0.2-4.9,0.3-7.3c0-0.3-0.3-1.7-0.1-2.4c0.2-0.7,0.4-1.5,0.6-2.1
			c0.2-0.8,1.3-5.9,1.5-6.6c0.4-1,0.8-3.7,0.8-3.8c0.1-0.7,3-12.1,2.6-16.3c-0.3-3.1,0.8-6.9,1.5-9.9c0.3-1.1,0.6-2.1,0.9-3.3
			c1.1,0.8,1.3,1.8,1.7,2.7c0.9,1.9,2.4,3.1,4.5,3.5c0.8,0.2,1.6,0.6,2.4,0.9c0.8,0.3,1.6,0.5,2.5,0.5c1.4,0.2,2.8,0.2,4.3,0.3
			c2.4,0.2,5.8,0.1,8.1-0.8c1.2-0.5,5-2.2,6.1-3.1c1.9-1.5,3.8-3.2,5.2-5.3c1.6-2.5,3.2-5.1,4.8-7.7c0.5-0.9,1.3-1.5,2.4-1.5
			c3-0.1,4.9-0.5,7.9-0.7c2.4-0.1,5-1.4,7.3-2.2c3.3-1.1,6.3-2.4,8.6-4.9c0.8-0.8,6.3-8.4,7.7-12.1c0.7-0.2,1.5-0.1,2-0.5
			c0.8-0.6,1.7-0.5,2.6-0.5c1.9,0.2,3.8,0.1,5.6-0.7c0.5-0.3,1.1-0.5,1.6-0.6c1.4-0.5,2.7-0.7,4-1.4c1.6-0.9,3.4-1.8,4.7-3.1
			c1-0.9,5-3.1,5.7-4.2c1.5-2.4,2.8-4.9,4.6-7.1c4.2-5.3,6.9-11.1,7.2-17.9c0.1-1.7-0.4-3-1.5-4.2c-0.5-0.5-0.9-1.4-1.1-2.2
			c-0.2-0.8-0.2-1.6,0-2.4c0.2-1.8,0.5-3.6,0.8-5.4c0.7-3.7,0.9-7.4,1.2-11.2c0.1-2.1-0.1-4.1,0.1-6.2c0.4-3.1,0.4-6.1,0.2-9.2
			c-0.2-2.9-0.2-5.8-0.3-8.8c-0.1-1.9-0.1-3.8-0.2-5.7c-0.1-2.2-0.2-4.3-0.4-6.4c-0.2-2.3-0.3-4.5-0.5-6.8c-0.3-2.7-0.6-5.4-1-8.1
			c-0.5-4-1.1-8-2.6-11.8c-1.2-2.9-2.7-5.6-4-8.4c-1.2-2.6-2.7-5.1-4.1-7.5c-0.5-1.1-1.1-2.2-1.6-3.3c-1.6-2.8-3.3-5.6-5-8.4
			c-1-1.6-2.2-3.3-3.4-4.8c-1.3-1.6-2.7-3.2-4.1-4.8c-0.6-0.7-1.2-1.5-1.9-2c-1.7-1.4-3.5-2.7-5.2-4.1c-2.4-2.1-4.5-4.3-6.9-6.3
			c-0.8-0.7-1.6-1.5-3.2-1.5c0.5,0.8,0.8,1.5,1.4,2c2,2.1,4,4.2,6,6.3c1.1,1.2,2.1,2.6,3.3,3.8c1.5,1.5,3.1,2.9,4.2,4.8
			c1.5,2.4,3.3,4.6,5.2,6.7c0.5,0.5,0.6,1.2,1,1.7c0.5,0.9,0.9,1.8,1.5,2.7c0.3,0.4,0.6,0.8,1.4,0.6c0.5-0.1,0.9,0.4,0.6,1.1
			c-0.3,0.8-0.1,1.7,0.5,2.3c0.9,0.7,1.2,1.7,1.5,2.7c1,2.5,1.6,5.3,3.2,7.5c0.1,0.1,0.1,0.2,0.1,0.3c0.5,1.4,1,2.6,1.5,4
			c0.2,0.5,3.5,10.5,3.4,10.1c0.7,1.2,1.5,2.3,1.4,3.7c-0.1,0.4,0.4,2.4,0.4,3.2c0.1,1,0.3,2,0.5,3c0.1,0.5,0.5,0.8,0.5,1.1
			c0,0.5,0.4,2,0.2,2.6c-0.1,0.5-0.2,1.3,0.2,1.5c0.9,0.7,0.6,1.5,0.6,2.5c-0.1,1.7-0.2,3.4-0.1,5.1c0,1.1,0.4,2.1,0.5,3.2
			c0.3,2.3,0.5,4.5,0.7,6.8c0.2,2.1,0.2,4.3,0.3,6.3c0,1.6-0.1,3.3-0.1,4.9c0.2,4.1-0.1,8.3-0.5,12.3c-0.2,1.8-0.5,3.5-0.8,5.3
			c-0.5,3-1.1,6.1-0.9,9.2c0.1,1.4-0.2,2.7-0.3,4.1c-0.1,1.8,0.6,3.4,2,4.5c1,0.8,1.5,1.9,2.2,2.9c0.2,0.3,0.2,0.6,0.1,1
			c-0.5,1.8-1,3.6-1.5,5.5c-0.3,1-0.6,2-0.6,3c0,0.5-0.1,1-0.4,1.5c-0.3,0.5-0.5,0.9-0.8,1.5c-1,1.8-2,3.6-3,5.4
			c-0.9,1.4-2,2.6-2.8,4.1c-1.3,2.1-2.8,3.7-5.1,4.8c-0.9,0.5-1.6,1.2-2.5,1.7c-0.8,0.6-1.5,1.3-2.6,1.5c-2,0.6-3.9,1.3-6.1,1.5
			c-1.6,0.1-3.2,0.4-4.8,0.4c-0.6,0-1.5,0-2,0.4c-1.4,1.1-2.6,0.5-3.9-0.1c-0.5-0.2-0.9-0.7-1.1-1.3c-0.6-1.6-1.1-3.2-1.5-4.9
			c-0.5-1.8-0.7-3.7-1.2-5.6c-0.4-1.5-0.3-2.9-0.6-4.4c-0.5-1.9-0.5-4-0.7-6c-0.2-1.6,0-3.2-0.3-4.8c-0.4-2.9-0.5-5.7-0.3-8.6
			c0.1-1.1,0.6-1.9,1.3-2.7c0.3-0.3,0.5-0.5,0.6-0.9c0.7-1.5,1.4-3,2.1-4.5c0.3-0.6,0.6-1.2,1-1.8c0.5,0.2,0.9,0.5,1.3,0.5
			c1.5,0.5,3.1,1.1,4.8,0.5c0.9-0.4,2-0.5,3-0.7c1.1-0.3,2.1-0.7,2.7-1.8c0.3-0.5,0.8-0.8,1.2-1.2l0,0c0.2-0.5,0.5-1,0.6-1.5h-0.1
			c-0.1-1.1,0.7-1.9,0.8-3c0.1-0.7,0.3-1.5,0.5-2.2c0.1,0,0.3-0.1,0.4-0.1c0.8,0.9,1.6,1.8,2.4,2.7c0.2,0.3,0.3,0.7,0.3,1.1
			c-0.1,1.8-0.3,3.7-0.5,5.5c-0.1,0.6-0.5,1.3-0.6,1.8c-0.7-0.2-1.3-0.3-1.9-0.5c-0.1,0.1-0.2,0.2-0.2,0.3c0.6,1.4,1.1,2.8,2.1,4
			c2,2.3,2.9,5,3.9,7.7c0.1,0.2,0.1,0.5,0.1,0.7c0.1,0.7,0.2,1.5,0.5,2.1c1.1,2.5,1.5,5.2,2.2,7.8c0.3,1.1,0.5,2.3,1.3,3.2
			c0.6-0.2,1.3-0.4,1.9-0.5c0.1-1.4,0.2-2.7,0.3-4c0-0.3,0.1-0.5,0-0.7c-1-1.7-1-3.7-1.5-5.6c-0.4-1.2-0.5-2.4-0.8-3.9
			c1,0.5,1.6,0.9,2.3,1.2c0.4,0.1,0.8,0,1.2,0c-0.1-1.2,0.8-0.5,1.4-0.8c-0.4-0.5-0.6-1.1-1.1-1.5c-1.5-1.3-2.8-3.1-5.3-2.1
			c-0.4-1.1-0.5-2-0.9-3c-0.4-0.9-0.8-1.8-1.3-2.8c1.6-1,3.4-1.1,5-1.7c1.6-0.6,3.3-0.3,5,0c-0.5-1.1-1.5-1.6-1.5-2.9
			c0-0.5-0.6-0.7-1.2-0.6c-0.7,0.2-1.5,0.3-2.3,0.5c-0.1-0.1-0.1-0.2-0.2-0.3c0.5-0.4,0.8-0.8,1.3-1.2c-1.5-0.5-1.7-0.4-2.6,0.4
			c-1.1,0.8-2.2,1.5-3.5,2.4c0.1-1.6,0.1-3,0.4-4.4c0.3-1.2-0.1-2.1-0.6-3.1c-0.4-0.7-0.7-1.4-0.9-2.1c-0.4-1.1-0.8-2.1-2-2.5
			c-1.1-0.5-2.3-1-3.4-1.5c-0.5-0.2-0.9-0.5-1.5-0.6c-1,0.1-2.3-0.4-3.3-0.5c-0.3,0-0.5,0-0.7,0.1c-1.5,0.8-3.3,0.5-4.9,0.8
			c-1.4,0.3-2.3,1-2.9,2.3c-1.3,2.5-1.7,5.3-2.8,7.9c-0.1,0.3-0.2,0.5-0.5,1c-0.9-1.2-1.7-2.3-2.5-3.4c-0.8-1-1.5-2.1-2.4-3.1
			c-0.4-0.4-1-0.5-1.5-0.8c-0.3-0.2-0.6-0.3-0.9-0.5c-1.5-1.1-3.1-2.3-4.9-3c-0.1,0-0.1-0.2-0.3-0.4c1.6-0.4,3.2-0.7,4.7-1
			c0.6-0.1,1.3-0.3,1.9-0.4c0.5-0.1,1.2-0.1,1.7-0.1c0.3,0,0.5,0.1,0.7,0c1.7-0.6,3.5-0.1,5.3-0.2c1.8-0.1,3.6,0,5.4-0.1
			c2-0.1,4,0.5,6,0.1c1-0.3,3.2-0.4,3.2-0.4c2.5-0.4,4.3,0.4,6.7,0.1c0.5-0.1,1.1,0.1,1.4-0.5c-0.3-0.4-0.5-0.8-0.9-1.1
			c-0.8-0.5-1.5-1.3-2.7-1c-1.4,0.4-2.6,0.6-4,0.9c-0.9,0.2-1.8,0.5-2.7,0.4c-2.5-0.3-5.2-0.3-7.7,0.1c-0.3,0-0.5-0.1-0.8-0.1
			c9-2.3,18-3.4,27.1-5.8c-0.1-1.1-0.2-2.4-0.2-3.6c-1.2-1.4-2.4-1.7-4.2-1.2c-0.6,0.2-1.4,0.3-2,0.5c-0.4,0.1-0.7,0.1-1,0.3
			c-1.4,0.7-2.9,0.9-4.4,1.2c-1.3,0.3-2.5,0.3-3.6,1.3c-0.6,0.5-1.6,1-2.5,1.1c-1.9,0.3-3.7,0.7-5.5,1.3c-1,0.3-2,0.3-3-0.1
			c-0.3,0.3-0.5,0.5-0.9,0.7c-0.3,0.2-0.9,0.3-0.9,0.2c-0.2-0.5-0.5-0.4-0.8-0.3c-2.3,0.7-4.8,0.4-7,1.5c-0.1,0.1-0.3,0-0.5,0
			c-0.5,0.1-1.1,0.2-1.7,0.3c-0.6,0.1-1.2,0.2-1.8,0.4c-0.5,0.1-1.3-0.4-1.6,0.5c-0.9-0.3-1.2,0.7-1.9,0.8c-1.2,0.1-2.4,0.2-3.6,0
			c-0.5-0.1-1,0-1.5,0.2c-1.4,0.3-2.6,1.2-4.2,1.1c-0.5,0-1.2,0.1-1.5,0.7c-1.9,0-3.6,0.8-5.5,0.9c-1.5,0.1-2.8,1-4.2,1.5
			c-1,0.4-2,0.5-3.1,0.8c-0.7,0.5-0.7-0.1-0.7-0.6c-0.8,0.3-1.6,0.5-2.4,1.1c-0.6,0.5-1.8,0.5-2.7,0.6c-0.3,0.1-0.5,0.2-0.8,0.3
			c-1.2,0.3-2.2,1.1-3.5,0.7c-0.2,0-0.4,0.2-0.6,0.3c-0.2,0.1-0.5,0.2-0.6,0.2c-0.8-0.3-1.5,0-2.3,0.4c-0.5,0.2-0.9,0.6-1.5,0
			c0.4-1.3,1-2.4,1.7-3.4c2.1-2.8,4.3-5.5,6.4-8.3c0.3-0.4,0.6-0.7,1-1.1c0.3-0.2,0.5-0.5,0.8-0.5c1.5-0.5,3-0.9,4.4-1.4
			c4.5-1.4,9.2-2.7,13.7-4.1c2.3-0.7,4.4-1.6,6.8-2.5c-0.1-0.8,0.6-1.1,1.3-1.5c1.7-0.8,3.4-1.7,5.1-2.6c-0.6-0.4-1.2-0.5-1.7-0.5
			c-1.4,0.2-2.9,0.1-4,0.7c-1.5,0.9-3.1,1.5-4.6,2c-3.9,1.2-7.7,2.5-11.7,3.2c-2.1,0.4-4.1,0.6-6.3,0.7c0.3-0.3,0.4-0.5,0.5-0.7
			c1.3-1.5,2.6-2.9,3.7-4.4c1.9-2.7,3.7-5.6,5.4-8.5c0.4-0.6,1-1.4,0.4-2.3c-0.1-0.2,0-0.6,0.2-0.9c0.9-1.6,1.8-3.3,2.6-5
			c0.3-0.5,0.3-1.1,0.2-1.6c0-0.3-0.4-0.5-0.6-0.8c-0.3,0.4-0.5,0.5-0.7,0.8c-1.3,2.3-2.5,4.5-3.7,6.8c-0.9,2-2.3,3.6-3.7,5.2
			c-2.9,3.2-5.6,6.4-7.8,10.2c-0.3,0.5-0.5,1-0.6,1.5c-0.2,0.5-0.3,1.2-0.5,1.8c-1.3,0.2-2.5,0.3-3.7,0.5c-3.9,0.8-7.7,1.6-11.6,2.4
			c-0.5,0.1-0.9,0.1-1.3,0.1c-0.5,0-1-0.1-1.5-0.1c-0.5,0-1.1,0.1-1.5,0.3c-0.5,0.2-1.1,0-1.5,0.6c-0.1,0.2-0.9-0.2-1.5-0.2
			c-0.2,0-0.5,0.2-0.6,0.3c-0.5,0.2-0.9,0.5-1.5,0.5c-1.4,0.3-2.7,0.4-4,0.6c-1.6,0.4-3.3,0.8-5,1.2c-1.4,0.3-2.8,0.5-4.3,0.7
			c0.6-1.8,1.7-3.1,3-4.2c2.3-1.9,4.4-3.8,6.6-5.8c4-3.6,7.4-7.9,11-12c4.7-5.3,9.1-11,13-17c0.5-0.7,0.9-1.6,1.4-2.4
			c0.2-0.4,0.4-0.8,0.5-1.2c2.3-3.4,4.3-6.9,5.9-10.5c0.5-1,0.7-2,1.2-3c1.1-2.4,1.9-4.9,2.2-7.5c0.2-2.1,0.5-4.2,0.6-6.3
			c0.1-1.1,0.2-2.2,0.3-3.2c0-0.3-0.2-0.5-0.4-0.7h-0.4c-0.7,2.1-1.4,4.1-2.1,6.2c-0.4,1.2-0.9,2.4-1.2,3.6
			c-0.3,1.4-0.7,2.5-1.6,3.6c-0.5,0.5-0.7,1.3-1,1.9c-0.3,0.7-0.3,1.6-0.7,2.4c-1.1,1.8-2.4,3.5-3.6,5.3c-1,1.5-2,3.1-3,4.7
			c-0.2,0.4-0.1,0.8-0.2,1.1c-0.5,0.8-1.1,1.5-1.5,2.3c-0.2,0.4-0.3,0.7-0.5,1c-1.5,2.2-3.1,4.3-4.5,6.4c-0.8,1.3-1.7,2.5-2.3,3.9
			c-0.3,0.8-0.5,1.5-1.1,2.2c-0.1-0.2-0.2-0.4-0.4-0.7c-1,1.3-1.9,2.4-2.8,3.5c-0.1,0.1-0.1,0.4-0.1,0.4c0.9,0.4,0.2,0.8,0,1.1
			c-0.3,0.5-0.7,1.1-1.1,1.5c-1.1,1.4-2.2,2.6-3.2,4c-0.5,0.7-0.9,1.5-1.8,1.8c-0.5,0.2-0.7,0.7-1.1,1.2c-0.2,0.3-0.4,0.6-0.5,0.8
			c-0.6,0.7-1.3,1.5-1.8,2.2c-0.2,0.3-0.5,0.5-0.7,0.7c-0.1-0.3-0.6-0.5-0.7-0.3c-1.5,1.4-2.8,2.8-4.3,4.2c-0.9,0.9-1.8,1.8-2.8,2.8
			c-0.8,0.8-1.5,1.8-2.4,2.3c-1.5,0.9-3,1.9-4.4,3c-0.4,0.3-0.6,0.5-1,0.8c-0.7,0.5-1.4,1.2-2.1,1.5c-1.2,0.5-2.4,0.6-3.7,0.8
			c-3.1,0.5-6.2,1-9.2,1.6c-1.7,0.4-3.4,1-5.2,1.5c0.7,0.4,1.2,0.6,1.6,0.9c0.9,0.5,1.7,0.5,2.6,0c0.4-0.2,0.7-0.2,1.1-0.2
			c1.4-0.1,2.8,0,4.2-0.3c1.3-0.2,4.9,0,5.5-0.3c1.6-0.6,3.4-0.7,5.2-0.9c0.9-0.1,1.5-0.6,2.3-0.8c2.1-0.4,4.1-0.6,6.2-0.9
			c0.7-0.1,1.5,0,2.3-0.1c1.3-0.3,2.5-0.6,3.8-0.9c0.5-0.1,1.1-0.2,1.6-0.3c0.8-0.1,1.7,0,2.4-0.3c2.3-0.9,4.6-0.1,6.9-0.9
			c0.1,0,0.2,0,0.3,0c0.4-0.1,0.8-0.1,1.1-0.3c2.5-1,5.2-1.5,8-1.7c0.8-0.1,1.9,0,2.4-0.5c0.7-0.5,1.5-0.5,2.2-0.7
			c0.6-0.2,1.5-0.2,2.3-0.2c-0.1,0.3-0.1,0.5-0.3,0.6c-1.1,1.5-2.3,3-3.3,4.6c-1.3,2.1-2.4,4.3-3.4,6.4c-0.5,1.1-1.2,1.7-2.4,2
			c-2.2,0.4-4.3,0.8-6.4,1.2c-2.2,0.4-4.4,0.8-6.6,1c-2,0.2-4.1,0.4-6.1,0.8c-1.7,0.4-3.5,0.5-5.3,0.9c-2.2,0.5-4.4,1.1-6.5,1.6
			c-0.8,0.2-1.6,0.5-2.4,0.8c-0.2,0.1-0.3,0.5-0.5,0.9c0.8,0.1,1.4,0.2,2,0.1c4.4-0.2,8.6-0.5,13-1.1c0.5-0.1,0.9,0.1,1.3-0.1
			c3.4-1,6.7-1.4,10.2-1.1c0.5,0,0.9-0.2,1.3-0.5c1.1-0.9,2.4-1,3.8-0.9c-0.7,0.7-1.4,1.3-1.9,1.8c0.5,0.5,0.8,0.8,1.3,1.3
			c-0.6,0.3-1.1,0.5-1.5,0.7c-0.6,0.4-1.5,0.6-2,1.2c-0.8,0.7-1.4,1.6-2.1,2.4c-0.5,0.5-1.1,0.9-1.4,1.5c-0.9,2-2.4,3.7-2.5,6
			c0,0.4-0.2,0.6-0.4,0.9c-0.7,1.4-1.2,2.8-1.3,4.3c-0.1,1.1,0,2.3-0.3,3.4c-0.5,2.4-0.6,4.8-0.4,7.3c0.1,1.3,0.2,2.6,0.1,3.9
			c-0.3,2.4-0.6,4.7-1,7.1c-0.4,2.5-0.7,5.1-1.2,7.7c-0.3,2.1-0.6,4.3-0.9,6.3c-0.5,4.9-0.9,9.8-1.4,14.7c-0.1,1.2,0.1,2.4,0.2,3.6
			c0.1,1.2,0.5,2.3,0.5,3.4c0,0.4-0.2,0.7-0.4,1.1c-0.8,1.2-1.3,2.4-1.5,3.7c-0.3,1.5-0.6,2.8-0.9,4.3c-0.3,1.1-0.5,2.2-0.6,3.4
			c-0.3,2.4-0.5,4.6-0.5,7c0,1.6,0.5,6.6,0.5,7c-0.7,2.7-0.9,5.7-2,8.3c-0.3,0.6-1.7,8.8-2.3,12.2c-0.5,2.4-1,5.1-1.1,7.5
			c-0.1,4-0.6,7.6-0.5,11.6c0,0.9-0.2,1.7-0.1,2.6c0.1,3.6,0.3,7.3,0.3,11c0,3.2-0.2,6.4-0.3,9.6c-0.1,2-0.2,4-0.4,6
			c-0.2,2.6-0.4,5.3-0.5,7.9c-0.2,1.9,0.5,4.9-0.5,5.6c-3.1,1.6-10.4,2.2-11.3,2.3c-3.1,0.1-6.3,0-9.3,0c-0.5,0-4.4-0.5-5.3-1.2
			c-2-1.5-4-3.1-6-4.6c-0.6-0.5-0.6-1-0.5-1.7c0.1-0.5,0.3-0.8,0.2-1.3c-0.1-2.2-0.4-4.3-0.2-6.4c0.2-2.9,0.6-5.7,1-8.6
			c0.5-3.2,1-6.3,1.3-9.6c0.4-4.1,0.5-8.2,1.3-12.2c0.1-0.5-0.3-4.4-0.1-5.9c0.5-3.4,1.7-6.9,2.1-10.2c0.4-3-0.1-5.5,0.2-8.5
			c0.1-1.3-0.4-7.6-0.4-8.5c0-2.7-0.1-5.3-0.1-8.1c0-1.2,2.2-20.2,2.1-20.1c-0.2-1.5-0.6-3.9-0.5-4.6s-0.5-9.2,0.1-12.5
			c0-0.2,0-0.3,0-0.5c-0.2-1.7-0.4-3.4-0.6-5.1c-0.4-2.4-0.4-4.9-0.1-7.3c0.3-2.4,0.7-4.7,1-7.1c0.2-2.3,0.3-4.5,0.4-6.9
			c0.1-3.5-0.4-7,0.2-10.5c0.2-1.5,0.5-2.9,0.7-4.4c0.6-3.4,1.5-10.2,1.2-10.2c0.1-1.5-0.7-3.8-0.1-5.3c0.5,0.5,2.2,1.7,2.4,2.2
			c0.6,1.1,1.3,2.3,1.8,3.5c0.3,0.6,0.6,1.1,1.3,1.4c0.5,0.2,1.1,0.4,1.7,0.5c0.2,0.2,0.4,0.5,0.5,0.8c0.5,0.8,1.1,1,1.9,0.6
			c0.5-0.3,0.6-0.6,0.3-1.2c-0.3-0.3-0.5-0.5-0.7-0.8c0.3-0.5,0.5-0.7,0.6-1c-1-0.5-1.4-1.1-1.1-1.5c0.3-0.1,0.5-0.1,0.8-0.2
			c0-0.2-0.1-0.3,0-0.4c0.3-1.5-0.5-2.1-1.8-2.6c-1.5-0.7-3-1.5-4.1-2.7c-0.9-1.1-2-1.9-3.1-2.7c-1-0.8-2.1-1.5-3-2.3
			c-1.7-1.5-3.4-3.1-5.1-4.6c-1.3-1.2-2.5-2.4-3.7-3.5c-1.1-1-1.1-2.3-0.8-3.7c1.1-0.4,2.2-0.6,3.2-1c1.1-0.5,5.4-0.9,5.1-1.2
			c1.5-0.1,2.8,0.7,4.2-0.2c-0.3-1.4-0.9-2.4-2.4-2.5c-1.1-0.1-2.1-0.4-3-0.9c-1.9-1-4-0.6-6-1.2c-0.2-0.1-0.5,0-0.7,0.1
			c-1.4,0.6-2.6,1.3-4,1.8c-1.2,0.5-2.4,1.2-3.7,0.6c-0.4-0.1-1.3,0.6-1.7,0.8c-1.7,0.7-2.7,1.2-4.4,2c-1,0.5-2.3,0.5-3.1,1.2
			c-2.4,1.9-5,3.4-7.8,4.6c-0.4,0.2-0.8,0.4-1.2,0.6c-3.1,2-6.5,3.3-10,4.6c-0.4,0.1-0.7,0.1-1.3,0.3c1.4-2.4,2.5-4.7,3.8-6.9
			c1.4-2.4,2.2-4.8,2.3-7.4c0-0.8,0-1.6-0.5-2.2c-1.3,0.4-0.8,1.7-1.6,2.4c-0.1-0.8-0.2-1.5-0.3-2.1c-0.4-0.1-0.6-0.1-0.8-0.2
			c0.4-3.3,0.7-6.4,1-9.7c-0.3-0.3-0.6-0.6-1.1-1c-1.5,2.2-1,4.7-1.9,7c-0.8,0-1.2,0.5-1.2,1.4c0,0.9-0.1,1.7-0.2,2.6
			c-0.3,3.1-0.7,6.2-1.9,9.1c-0.5,1.4-0.9,2.8-1.4,4.2c-0.4,1.2-0.7,2.4-1.2,3.7c-2.3,0.7-9,0.9-10.8,0.6c-3.2,0-10.8-1.7-12-2
			c-2.4-0.5-6-0.6-8.3-1.2c-3.4-0.7-5.9-1.8-8.7-3.6c-1.9-1.3-4.2-3.5-5.6-3C366.1,272.2,369.7,275.5,372.6,276.7 M589,185.3
			c0.3,0.5,0.6,0.8,0.9,1.3C589.1,186.6,589,186.1,589,185.3 M573.1,278.7c0.6-1.4,1.3-2.7,1.9-4.2c0.5,0.2,0.8,0.3,1.2,0.4
			c1.5-2.3,3.7-2.4,6.3-2c0.1,1.4,0,2.7-0.5,4c-0.6,1.6-1.5,3.3-2.4,4.8c-0.2,0.5-0.5,0.5-1.1,0.5c-0.5,0-1.1,0-1.5,0.2
			c-1.3,0.6-2.4,0.1-3.8,0.1c0-0.3,0.1-0.6-0.1-0.7C572.1,280.9,572.6,279.8,573.1,278.7 M572.1,267.9c-1,0.7-2,1.1-3.1,1
			c0-0.1,0-0.3,0-0.4C570,268.3,571.1,268.1,572.1,267.9 M564,265.2c0,0.1,0.1,0.2,0.1,0.3c-0.7,0.2-1.4,0.4-2.1,0.5
			c0-0.1-0.1-0.3-0.1-0.4C562.6,265.5,563.3,265.4,564,265.2 M508.8,277.9c0-0.1-0.1-0.2-0.1-0.4l1.4-0.3c0,0.1,0,0.2,0,0.3
			C509.7,277.7,509.2,277.8,508.8,277.9 M505,365.1c0.5,0,0.9-0.1,1.3-0.1c0,0.1,0,0.2,0,0.4h-1.4C505,365.2,505,365.2,505,365.1
			 M561.3,287.2c0.6-1.9,1.2-3.8,1.6-5.8c0.2-0.6-0.3-1.4-0.5-2.4c0.5,0.4,0.8,0.5,0.9,0.8c0.6,1.3,1.2,2.6,1.7,4
			c0.1,0.3,0,0.5,0,0.9c0,0.5,0,1,0.4,1.5c0.3,0.4,0.2,1.1,0,1.5c-1,1.8-1.3,3.9-1.9,5.8c-0.5,1.6-0.5,3.4-0.5,5
			c0,1.1,0.1,2.1,0,3.2c-0.1,0.6-0.3,1.2-0.4,1.8c-0.2,1.3,0.1,2.6,0.2,4c0.7,0.4,0.5,1.1,0.6,1.6c0.2,1,0.4,2,0.5,3
			c0.1,1.4,0.5,2.8-0.1,4.2c-0.2,0.5-0.1,1.2-0.1,1.7c0.3,2.5,0.3,5.2,1.1,7.7c0.8,2.4,1.4,4.9,0.7,7.4c-0.3,1.1,0,2.2,0,3.4
			c0.1,0,0.1,0,0.2,0c0.1-0.5,0.3-0.9,0.5-1.4c0.4-1.1,0.4-1.1,1.4-0.8c0.3,0.1,0.5,0.1,0.8,0.2c0-0.8,0.1-1.5,0.1-2.4
			c0.9,0.5,1.2,0.6,0.8,1.5c-0.4,1-0.8,2.1-1.5,3c-1.1,1.4-2.3,2.6-3.5,3.9c-0.4,0.4-0.8,0.7-0.7,1.4c0.1,0.6-0.3,1-0.7,1.3
			c-0.7,0.5-1.4,0.9-2.1,1.5c-1.3,1-2.8,1.2-4.3,1.8c-1,0.5-2,0.7-3.2,1.1c-0.1-0.2-0.3-0.5-0.5-0.8c1.8-0.7,3.6-1.4,5.3-2
			c1.2-0.5,2.4-0.9,3.6-1.5c0.6-0.3,1-0.9,0.9-1.5c-0.1-0.5-0.4-1-0.7-1.4c-0.2-0.2-0.8,0.2-1.2,0.4c-0.5,0.3-0.8,0.6-1.3,1
			c-0.3-0.1-0.6-0.2-1-0.3c-0.2,0.3-0.5,0.5-0.5,0.7c-0.5,1.5-1.5,2.1-3,2.3c-2.9,0.4-5.7,1.3-8.5,2.1c-3.1,1-6.3,1.1-9.5,0.9
			c-0.3,1.4,1.3,2.7,2.5,2.4c0.5-0.1,1-0.4,1.4-0.3c2.3,0.6,4.6,0.1,7,0.4c-2.1,1.3-4.1,2.4-6.7,2.1c-0.4-0.1-0.7,0-1.2,0
			c-1.5,0-2.6-0.4-3.5-1.5c-0.5-0.7-1.2-1.3-1.7-1.9c-0.2-0.3-0.5-0.5-0.5-0.9c-0.5-1.6-0.9-3.2-1.3-4.8c-0.7-3.4-1.5-6.6-1.9-10.1
			c-0.7-6.2-1.6-12.4-1.5-18.7c0-0.4-0.1-0.9,0.1-1.2c0.8-1.3,0.5-2.5,0.3-3.8c-0.1-0.5,0.1-0.9,0.2-1.3c0.2-0.7,0.4-1.4,0.5-2.1
			c0.5-1.7,0.7-3.5,1.3-5.3c0.4-1.3,1-2.4,1.6-3.5c2.1-3.5,4.2-7.1,6.4-10.6c0.1,1-0.1,2,0.6,2.7c1.3,1.4,2.4,2.9,4.4,3.3
			c0.5,0.1,1,0.2,1.3,0c1.3-0.8,2.6-0.6,4-0.7c3.4-0.3,6.3-1.4,8.7-3.9c0.1-0.1,0.2-0.2,0.4-0.4C560.5,288,561,287.9,561.3,287.2
			 M537.4,285.2c-2.5-2.2-5.5-3.5-8.7-5.4c4.7-0.6,9.2-1.3,14-1.9c-0.4,1.5-0.7,2.5-1.7,3.4c-0.4,0.3-0.6,0.6-0.8,1
			C539.4,283.5,538.6,284.5,537.4,285.2 M558,276.3c0.7,0.5,1.5,0.9,2.3,1.4c0.7,0.5,0.5,0.9,0.1,1.5c-0.4-0.1-0.6-0.2-1-0.3
			c-1.2-0.4-2,0.1-2.2,1.3c-0.3,1.2-0.5,2.3-0.6,3.4c-0.2,1.9-1.5,2.8-2.8,3.9c-1.5,1.4-3.4,1.3-5.2,1.6c-1,0.2-1.9,0-2.8-0.5
			c-0.7-0.4-1-0.9-0.8-1.6c0.2-1.2,0.5-2.4,0.6-3.5c0.2-1,0.4-2,0.5-3c0.1-0.5,0.3-1.2,0.5-1.6c0.3-0.4,0.4-0.7,0.5-1.1
			c0.2-0.5,0.5-1,1-1.2C551.4,274.8,554.8,274.2,558,276.3 M547.1,268.5L547.1,268.5h0.9v0.3c-0.6,0.2-1.2,0.3-1.8,0.5
			c0-0.1-0.1-0.1-0.1-0.2C546.4,268.8,546.7,268.6,547.1,268.5 M516.9,278.7c1.7-0.4,3.4-0.7,5.2-1.1c6-1.2,12.1-2.4,18-3.6
			c2-0.4,3.9-0.7,5.9-1.1c0.3-0.1,0.6,0,1,0c-1.1,1.2-2.1,2.4-3.2,3.5c-4-0.2-7.9,0.5-11.8,1c-2.4,0.3-4.7,0.7-7.1,1.1
			c-0.1,0-0.2,0.1-0.3,0c-3-0.5-5.6,0.6-8.3,1.5c-0.2,0-0.3,0-0.5,0c-0.1,0-0.2-0.1-0.3-0.2C515.6,279,516.3,278.8,516.9,278.7
			 M515.2,285.2c-0.5-0.5-0.8-0.9-1.2-1.3c0.4-0.6,0.8-1.2,1.6-1.1c0.1,0,0.3,0,0.4-0.1c0.7-1.5,2.1-1.6,3.4-1.7
			c0.6-0.1,1.4-0.3,2-0.3c0.9-0.1,2-0.5,2.6,0.6c0.1,0.2,0.5,0.2,0.6,0.3c0.4,0.1,0.7,0.2,1.1,0.4c3,1.3,2.8,1.2,2.6,4.2
			c-0.1,0.5-0.1,1.2-0.1,1.7c0,2.2-3,5.2-5.4,5.3c-2.7,0.6-5.1,0.6-7.4,0c-0.3-0.1-0.5-0.2-0.8-0.2c-1.4-0.1-2.3-0.8-3-2
			C512.4,288.6,512.6,286.2,515.2,285.2 M508.9,287.3c0.1,0.1,0.2,0.2,0.3,0.3c-0.2,0.2-0.4,0.3-0.5,0.5l-0.2-0.2
			C508.5,287.6,508.7,287.4,508.9,287.3 M498.7,349.4c0.1-3.8,0.6-7.4,1.4-11.2c0.6-3.2,0.9-6.3,1.5-9.5c0.5-3,1-6.1,1.6-9.1
			c0.5-2.6,0.7-5.3,0.5-8c-0.2-2.5,0.1-5.2,0.3-7.7c0.1-1.5,0.3-3,0.4-4.4c0.1-2.2,1.1-4.1,1.7-6c0.3-0.8,0.6-1.6,1-2.4
			c0.3-0.5,0.6-1,1.1-1.7c0.1,0.5,0.2,0.6,0.1,0.7c-1,2.8,0.9,4.4,2.8,4.9c2.2,0.6,4.4,1.2,6.6,1.6c0.7,0.2,1.5,0,2.3-0.1
			c2.2-0.3,4.4-0.6,6.6-0.9c0.8-0.1,1.5-0.5,1.9-1.2c1-1.5,2.1-2.8,3.1-4.3c0.3-0.5,0.7-0.8,1.1-1.3c-0.5-0.5-1.8-0.9-0.5-2
			c-0.4-0.8-0.7-1.5-1.1-2.4c2.4,0.5,2.9,2.2,3.3,4.1c0.1,0.3-0.1,0.6-0.3,0.9c-1,2.4-2.3,4.9-3.8,7.1c-1.1,1.5-1.7,3.4-2.3,5.2
			c-0.5,1.8-1,3.7-1,5.7c0,0.5,0,1,0.2,1.4c0.6,1.3,0.6,2.6,0.7,4c0.1,3.7,0.3,7.5,0.4,11.2c0,1.2,0.2,2.4,0.2,3.6c0,1-0.2,2-0.1,3
			c0.2,2,0.5,4,0.7,6c0.1,0.9,0.1,1.9,0.1,2.9c0,0.5,0.1,1.2,0.3,1.7c0.6,2.7,1,5.4,0.9,8.3c-0.1,1.2,0.1,2.3-0.4,3.4
			c-0.2,0.5,0.3,1.3,0.5,2.1c0.7,0.2,1.5,0.5,2.4,0.5c1,0.1,1.4-0.4,1.5-1.4c0.1-1.1,0.5-1.4,1.5-1c0.5,0.2,1,0.4,1.5,0.5
			c-0.8,1.5-1.5,3.1-2.4,4.4c-0.5,0.7-5.1,9.2-8.9,9.9c-3.4,0.6-6.7,1.5-10.2,1.4c-2.8-0.2-5.7-0.6-8.5-1.1
			c-0.5-0.1-0.9-0.5-1.2-0.7c-0.2-0.3-0.2-0.6-0.3-1.1c2.4,0.2,4.6,0.5,6.8,0.5c2.1,0.1,4.1,0.4,6.2,0.2c1.4-0.1,2.6-0.9,4.1-1.4
			v-2.4c0.4-0.2,1.5-0.7,1.5-0.7c1.9-0.5,0.3-0.6-0.1-1.1c-0.1-0.1,1.7-2,0-1.7c-0.6,0.1-8.3,1.5-10.6,1.8c-2,0.3-3.9,1-5.5,2.2l0,0
			c-1-0.2-2.1-0.3-3.1-0.5c-0.3-0.1-0.5-0.5-0.7-0.9c-0.8-2.4-2.3-4.3-3.8-6.3C499,354.5,498.7,352,498.7,349.4 M517.4,364.9
			c1.3-0.3,2.4-0.5,3.7-0.8l0.1,0.3c-1.2,0.5-2.4,0.6-3.8,0.8C517.4,365.2,517.4,365.1,517.4,364.9"/>
	</g>
	<g>
		<defs>
			<rect id="SVGID_27_" x="359.9" y="159" width="251.8" height="313.7"/>
		</defs>
		<clipPath id="SVGID_28_">
			<use xlink:href="#SVGID_27_"  overflow="visible"/>
		</clipPath>
		<path clip-path="url(#SVGID_28_)" d="M360,265.6c0,0.6,0.2,1.3,0.8,1.6c0.7-0.6,0.5-1.5,0.4-2.2c-0.1-1.3,0.2-2.4,0.8-3.5
			c0.7-1.3,1.3-2.6,1.9-3.9c0.8-1.5,1.5-3.2,2.4-4.7c0.3-0.5,3.4-6,5.4-7.6c0.2-0.7,1-1.2,1.8-1.4c0.1,0,0.2,0,0.4,0
			c0.1,0.3,2.7,1.3,3.9,1.4c1.5,0.2,2.8,0.3,4.3,0.5c2.1,0.2,4.3,0.7,6.3,0.6c2.7-0.2,5.5-0.7,8.2-1.5c4.4-1.4,8.7-3.3,12.2-6.4
			c0.5-0.4,0.9-0.5,1.5-0.3c1.6,0.7,3.4,1.7,5.1,2c2.2-0.5,3.9-1.6,5.4-3.2c1.5-1.5,3.3-2.9,4.9-4.4c0.5-0.5,0.8-1,1.2-1.5
			c0.4-0.5,0.7-0.9,1-1.5c1.9-2.6,3.8-5.3,5.6-8c2.1-3.1,4.1-6.3,6.1-9.5c0.5-0.9,1.1-1.7,1.6-2.6c1.1-1.7,2-3.4,3.2-5.1
			c3.1-4.1,7.2-7.1,11-10.4c1.6-1.4,3.4-2.7,5-4.1c1.8-1.5,3.5-3.1,5.4-4.4c3.4-2.4,7-4.8,10.5-7.2c3.7-2.5,11.7-5.7,11.3-6.2
			c4.2-2.1,8-4.6,12.5-5.9c-1.1-0.1-2.1-0.2-3,0.1c-3.1,1.1-8.9,3.2-9.1,3.4c-0.5,0.5-1.5,1.2-1.5,1.2c-0.7,0.5-1.6,0.8-2.4,0.9
			c0.6-0.7,1.5-1.1,2.2-1.5c0,0,1.2-0.8,1.3-0.9c-0.2-0.4-0.5-0.4-1-0.5c-2-0.3-3.9,0.4-5.6,1.1c-2.9,1.2-5.3,3.4-8.3,4.5
			c-1.6,0.6-3.1,1.7-4.5,2.7c-2.5,1.8-4.9,3.7-7.3,5.6c-0.7,0.5-13.1,10.2-16.1,13.4c-2.8,3-4.9,6.4-6.8,10
			c-1.2,2.1-2.3,4.2-3.7,6.1c-0.5,0.7-6,10.7-8.4,14.6c-1.3,2.5-2.5,4.5-4.8,5.9c-0.9,0.5-1.7,1.1-2.5,1.7c-0.7,0.5-1.4,0.6-2.1,0.2
			c-1.1-0.6-2.2-0.8-3.2,0.3c-0.5-0.2-0.8-0.5-1.2-0.6c-1.5-0.6-3-0.4-4.1,0.9c-0.5,0.5-1.1,1-1.9,1.2c-1.1,0.3-2.3,0.7-2.7,1.7
			c-0.4,0.8-1,1.2-1.7,1.4c-2.4,0.7-4.9,1.4-7.3,2.1c-2.5,0.7-5.1,1-7.7,0.8c-2.9-0.2-6.4-0.3-8.9-2c-1.5-1-3.2-1-4.9-0.9
			c-1.1,0.1-2.6,1.4-2.9,1.5c-1.5,1.1-2.3,1.8-3,3.5c-0.8,1.9-2.2,3.4-3,5.3c-0.7,1.8-1.5,3.7-2.3,5.5c-0.5,1-0.7,2-1,3.1
			C359.9,261.2,360.1,263.4,360,265.6"/>
	</g>
	<g>
		<defs>
			<rect id="SVGID_29_" x="359.9" y="159" width="251.8" height="313.7"/>
		</defs>
		<clipPath id="SVGID_30_">
			<use xlink:href="#SVGID_29_"  overflow="visible"/>
		</clipPath>
		<path clip-path="url(#SVGID_30_)" d="M466.5,316.3c0.9-0.8,1.7-1.8,3.4-1.4c-1.8-1.3-3.8-0.9-5.4-2.3c0.9-0.3,1.6-0.2,2.3-0.1
			c2.8,0.3,5.6,0.6,8.4,0.8c1.8,0.2,3.7,0.2,5.5,0.2c0.6,0,1.2-0.3,1.8-0.5c0.3-0.1,0.5-0.2,0.8-0.2c3,0.1,6.1,0.2,9.1,0.3
			c0.5,0,1,0.3,1.3-0.4c0.1-0.1,0.5-0.2,0.6-0.2c1.3,0.1,2.5,0.2,3.8,0.3c0.5,0.1,1.1,0.2,1.1,0.7c0,0.4-0.3,0.8-0.5,1.1
			c-1.5,1.5-3.4,1.7-5.4,2.1c-1.2,0.2-2.4,0.2-3.5,0.3c-2.3,0.2-4.5,0.6-6.8,0.6c-2.5,0.1-5.1,0-7.6-0.3c-1.9-0.2-3.8-0.8-5.7-1.2
			c-0.5-0.1-1.2-0.1-1.7-0.1C467.5,316.4,467,316.3,466.5,316.3 M481.6,314.7c1.7,0.2,3.4-0.2,5.1-0.5
			C484.9,313.6,483.2,314.3,481.6,314.7 M475,314.8c0-0.1,0-0.1,0-0.2h-1c0,0.1,0,0.1,0,0.2H475z"/>
	</g>
	<g>
		<defs>
			<rect id="SVGID_31_" x="359.9" y="159" width="251.8" height="313.7"/>
		</defs>
		<clipPath id="SVGID_32_">
			<use xlink:href="#SVGID_31_"  overflow="visible"/>
		</clipPath>
		<path clip-path="url(#SVGID_32_)" d="M460.6,421.4c0.9,0.1,1.7-0.4,2.7-0.1c-0.6,1-1.7,0.3-2.4,1c-3.4,1,0.6,1.3,1.6,1
			c1-0.3,12.1-1,13.6-0.7c4.5,0.6,0.5-0.5-0.5-0.7c-0.9-0.3-6-0.4-7.3-0.1c-1.1,0.1-0.7-0.2,0-0.5c1.5-0.2,3-0.2,4.8,0
			c0,0,2.8,0.3,2.9,0.2c0.6,0.1,1.3,0.1,1.8,0.3c1.2,0.4,2.4,0.7,3.6,1.1c0.7,0.3,1.5,0.5,2.5,0c-0.3-0.4-0.5-0.8-0.7-1
			c-0.3-0.3-0.6-0.5-1-0.5c-0.4-0.2-0.8-0.2-1.3-0.4c-0.4-0.1-0.7-0.2-1.1-0.4c0-0.1,0-0.2,0.1-0.3c1.1,0.2,2.2,0.3,3.4,0.5
			c-0.2-0.8-0.9-1.2-1.5-1.4c-1.6-0.4-3.3-0.6-4.9-0.8c-1.5-0.2-2.9-0.2-4.4-0.3c-0.7,0-1.5-0.2-2.2-0.2c-3.6-0.2-7.2,0.5-10.6,1.7
			c-0.6,0.3-1.4,0.5-1.8,1C458.9,420.9,459.7,421.3,460.6,421.4"/>
	</g>
	<g>
		<defs>
			<rect id="SVGID_33_" x="359.9" y="159" width="251.8" height="313.7"/>
		</defs>
		<clipPath id="SVGID_34_">
			<use xlink:href="#SVGID_33_"  overflow="visible"/>
		</clipPath>
		<path clip-path="url(#SVGID_34_)" d="M594,317.2c-0.2,1.1-1.3,1.3-1.9,1.8c-0.6,0.6-1.5,1.1-2.4,1.6c0.4,0.5,0.6,0.9,1,1.4
			c-4.2,3-14,6.2-17,5.4c0.2-0.1,0.4-0.2,0.6-0.4c-0.4-0.1-0.6-0.2-1-0.3c0.3-0.3,0.5-0.5,0.7-0.7c-1.2-0.1-1.1-1.2-1.6-1.9
			c0.4-0.2,0.6-0.4,1-0.4c0.8-0.1,1.5-0.1,2.4-0.1c1.2,0,2.3-0.3,3.4-0.8c2-1.1,4.1-1.8,6.2-2.7c1.8-0.8,3.7-1.6,5.5-2.5
			C592.2,316.7,592.2,316.6,594,317.2"/>
	</g>
	<g>
		<defs>
			<rect id="SVGID_35_" x="359.9" y="159" width="251.8" height="313.7"/>
		</defs>
		<clipPath id="SVGID_36_">
			<use xlink:href="#SVGID_35_"  overflow="visible"/>
		</clipPath>
		<path clip-path="url(#SVGID_36_)" d="M580.5,287.7c0.4,0,1.7-0.1,1.7,0.2c0.2,1.3,1.2,1.3,2.1,1.7c-0.5,0.2-1.1,0.4-1.6,0.5
			c-2.4,0.2-4.8,0.9-7.2,1.5c-0.4,0.1-0.7,0.3-1,0.5c-0.6,0.5-1.3,0.8-2.2,0.6c-0.4-0.1-0.7,0.2-1.1,0.3c-1.2,0.4-2.3,0.7-3.5,0.3
			c0.2-0.8,0.9-1.1,1.5-1.5c0.6-0.5,1.3-0.9,1.9-1.3c0.6-0.4,1.2-0.7,2-0.8C575.1,289.7,579.3,287.8,580.5,287.7"/>
	</g>
	<g>
		<defs>
			<rect id="SVGID_37_" x="359.9" y="159" width="251.8" height="313.7"/>
		</defs>
		<clipPath id="SVGID_38_">
			<use xlink:href="#SVGID_37_"  overflow="visible"/>
		</clipPath>
		<path clip-path="url(#SVGID_38_)" d="M521.8,306.1c0.3,0.5,0.5,0.8,0.8,1.4c-1.7,0.3-3.4,0.5-4.9,0.9c-0.9,0.2-1.7,0.5-2.6,0.8
			c-1.3,0.4-2.5,0.7-3.8,1c-0.8,0.2-1.8-0.5-2.2-1.4c-0.4-0.7-0.6-1.5-1.1-2.4c-1,0.3-2.2,0.5-3.5,0.8c0.9-1.3,1.6-2.4,3-3
			c2.6-1.1,5.4-2,8.3-2.3c1.5-0.2,3-0.5,4.5-0.5c1.4-0.1,2.8-0.1,4.2,0.1c1.8,0.3,2.7,1.4,2.4,2.8c-0.2,0.8-0.6,1.4-1.4,1.1
			C524.1,304.9,523,305.7,521.8,306.1"/>
	</g>
	<g>
		<defs>
			<rect id="SVGID_39_" x="359.9" y="159" width="251.8" height="313.7"/>
		</defs>
		<clipPath id="SVGID_40_">
			<use xlink:href="#SVGID_39_"  overflow="visible"/>
		</clipPath>
		<path clip-path="url(#SVGID_40_)" d="M555.9,294.9c0,0.2-0.1,0.5-0.1,0.9c1,0.3,2,0.5,3.2,0.8c-0.2,0.5-0.4,1-0.6,1.5
			c-5.8-0.4-11.3,0.6-16.8,2.5c-0.1-0.2-0.2-0.4-0.4-0.6c-1.3,0.6-2.7,0.8-3.8,2c-0.5,0.5-1.1,0.3-1.2-0.5c0-0.5,0.1-1.3,0.5-1.7
			c0.6-1,1.6-1.6,2.7-1.9c3.3-1,6.4-2.4,9.9-3c1.3-0.2,2.4-0.5,3.7-0.8c0.4-0.1,0.7,0,1.1,0.1C554.7,294.3,555.2,294.6,555.9,294.9
			 M555.3,295.6c0-0.1-0.1-0.3-0.1-0.4c-0.6,0.1-1.4,0.2-1.9,0.8C554,295.9,554.7,295.8,555.3,295.6"/>
	</g>
	<g>
		<defs>
			<rect id="SVGID_41_" x="359.9" y="159" width="251.8" height="313.7"/>
		</defs>
		<clipPath id="SVGID_42_">
			<use xlink:href="#SVGID_41_"  overflow="visible"/>
		</clipPath>
		<path clip-path="url(#SVGID_42_)" d="M552.2,300.3c-2.4,1-4.7,2-7,2.9c-0.9,0.4-1.8,0.7-2.7,1.1c-0.1,0-0.2,0.1-0.3,0.1
			c-1.7,0-3.1,1.1-4.6,1.5c-0.7,0.2-1.5,0.3-2-0.4c-0.6-0.6-0.7-1.4,0.1-1.8c0.7-0.5,1.5-0.8,2.4-1.1c3.7-1.3,7.6-1.7,11.4-2.7
			C550.4,299.8,551.2,299.8,552.2,300.3"/>
	</g>
</g>
</svg>
