<?xml version="1.0" encoding="utf-8"?>
<!-- Generator: Adobe Illustrator 18.1.0, SVG Export Plug-In . SVG Version: 6.00 Build 0)  -->
<svg version="1.1" id="Layer_1" xmlns="http://www.w3.org/2000/svg" xmlns:xlink="http://www.w3.org/1999/xlink" x="0px" y="0px"
	 viewBox="0 0 850 850" enable-background="new 0 0 850 850" xml:space="preserve">
<g>
	<text transform="matrix(1 0 0 1 305.4255 534.4019)" fill="#010202" font-family="'BookAntiqua-Italic'" font-size="22">il</text>
	<text transform="matrix(1 0 0 1 317.5896 534.4019)" fill="#010202" font-family="'BookAntiqua-Italic'" font-size="22">lu</text>
	<text transform="matrix(1 0 0 1 335.6599 534.4019)" fill="#010202" font-family="'BookAntiqua-Italic'" font-size="22">st</text>
	<text transform="matrix(1 0 0 1 351.8474 534.4019)" fill="#010202" font-family="'BookAntiqua-Italic'" font-size="22">ra</text>
	<text transform="matrix(1 0 0 1 369.9411 534.4019)" fill="#010202" font-family="'BookAntiqua-Italic'" font-size="22">ti</text>
	<text transform="matrix(1 0 0 1 384.1208 534.4019)" fill="#010202" font-family="'BookAntiqua-Italic'" font-size="22">on</text>
	<text transform="matrix(1 0 0 1 433.9489 534.4019)" fill="#010202" font-family="'BookAntiqua-Italic'" font-size="22">ph</text>
	<text transform="matrix(1 0 0 1 456.5193 534.4019)" fill="#010202" font-family="'BookAntiqua-Italic'" font-size="22">ot</text>
	<text transform="matrix(1 0 0 1 473.6599 534.4019)" fill="#010202" font-family="'BookAntiqua-Italic'" font-size="22">og</text>
	<text transform="matrix(1 0 0 1 494.7224 534.4019)" fill="#010202" font-family="'BookAntiqua-Italic'" font-size="22">ra</text>
	<text transform="matrix(1 0 0 1 513.3474 534.4019)" fill="#010202" font-family="'BookAntiqua-Italic'" font-size="22">ph</text>
	<text transform="matrix(1 0 0 1 535.7145 534.4019)" fill="#010202" font-family="'BookAntiqua-Italic'" font-size="22">y</text>
	<path d="M420.2,532.3c1.7,0,3-1.3,3-3s-1.3-3-3-3c-1.7,0-3,1.3-3,3S418.5,532.3,420.2,532.3L420.2,532.3z"/>
	
		<text transform="matrix(1.1111 0 0 1 294.2146 396.3941)" fill="#010202" font-family="'SourceSansPro-Light'" font-size="112.5" letter-spacing="-6.3">LU</text>
	
		<text transform="matrix(1.1111 0 0 1 416.5583 396.3941)" fill="#010202" font-family="'SourceSansPro-Light'" font-size="112.5" letter-spacing="-1.8">AN</text>
	
		<text transform="matrix(1.0526 0 0 1 303.3728 485.8834)" fill="#010202" font-family="'SourceSansPro-Light'" font-size="109.25" letter-spacing="-2.8">TR</text>
	
		<text transform="matrix(1.0526 0 0 1 424.2536 485.8834)" fill="#010202" font-family="'SourceSansPro-Light'" font-size="109.25" letter-spacing="-1.9">AN</text>
	<path d="M247,478.7c-0.3,0-1,0.1-1.6,0.2c0-0.1,0-0.2,0-0.2H247z M224.7,477.9c-1.1-0.1-2.3,0.4-3.4-0.4c-0.2-0.2-0.7-0.1-1.1,0
		c-0.8,0.2-1.6,0.5-2.5,0.7c0.2,0.3,0.4,0.5,0.5,0.7c0.1,0.5,3,1.2,3.9,1.5c2.9,0.9,4.9,1.9,7.9,1.6c1.5-0.2,3.2-0.5,4.7,0
		c2,0.6,9.5,0.3,11-1.3c0.4-0.4,1.3-0.5,1.9-0.6c1.1-0.3,2.2-0.5,3.3-0.8c1.1-0.3,3-1.6,3.2-1.7c-0.6,0-1.1,0.1-1.7,0.1
		c-0.3,0-0.7-0.2-1-0.4c-1.5-0.9-4.2-0.1-5.7,0c-2.1,0.2-9.6,1.1-9.5,1.6c-2.1-0.2-4.1,0-6.1-0.4C228.3,478,226.5,478.1,224.7,477.9
		"/>
	<path d="M192,473.5c-1.4,0.3-2.7,0.6-4.1,0.9l-0.1-0.3c1.3-0.6,2.7-0.7,4.2-0.9C192,473.2,192,473.4,192,473.5 M212.5,490.6
		c-0.1,4.2-0.7,8.2-1.5,12.3c-0.7,3.5-1,7-1.6,10.5c-0.5,3.3-1.1,6.7-1.8,10c-0.6,2.9-0.8,5.8-0.6,8.8c0.2,2.8-0.1,5.7-0.3,8.5
		c-0.1,1.7-0.3,3.3-0.4,4.9c-0.1,2.4-1.2,4.5-1.9,6.6c-0.3,0.9-0.7,1.8-1.1,2.7c-0.3,0.6-0.7,1.1-1.2,1.9c-0.1-0.5-0.2-0.7-0.1-0.8
		c1.1-3.1-1-4.8-3.1-5.4c-2.4-0.7-4.9-1.3-7.3-1.8c-0.8-0.2-1.7,0-2.5,0.1c-2.4,0.3-4.9,0.7-7.3,1c-0.9,0.1-1.6,0.6-2.1,1.3
		c-1.1,1.6-2.3,3.1-3.4,4.7c-0.3,0.5-0.8,0.9-1.2,1.4c0.6,0.5,2,1,0.6,2.2c0.4,0.9,0.8,1.7,1.2,2.6c-2.6-0.5-3.2-2.4-3.6-4.5
		c-0.1-0.3,0.1-0.7,0.3-1c1.1-2.7,2.5-5.4,4.2-7.8c1.2-1.7,1.9-3.7,2.5-5.7c0.6-2,1.1-4.1,1.1-6.3c0-0.5,0-1.1-0.2-1.5
		c-0.7-1.4-0.7-2.9-0.8-4.4c-0.1-4.1-0.3-8.3-0.4-12.4c0-1.3-0.2-2.7-0.2-4c0-1.1,0.2-2.2,0.1-3.3c-0.2-2.2-0.5-4.4-0.8-6.6
		c-0.1-1.1-0.1-2.1-0.1-3.2c0-0.6-0.2-1.3-0.3-1.9c-0.7-3-1.1-6-1-9.1c0-1.3-0.1-2.5,0.4-3.8c0.2-0.6-0.3-1.4-0.6-2.3
		c-0.8-0.2-1.7-0.5-2.6-0.6c-1.1-0.1-1.5,0.4-1.6,1.5c-0.1,1.2-0.6,1.5-1.7,1.1c-0.5-0.2-1.1-0.4-1.6-0.6c0.9-1.7,1.7-3.4,2.6-4.9
		c0.5-0.8,5.6-10.1,9.8-10.9c3.8-0.7,7.4-1.7,11.2-1.5c3.1,0.2,6.3,0.7,9.4,1.2c0.5,0.1,1,0.5,1.3,0.8c0.2,0.3,0.2,0.7,0.3,1.2
		c-2.6-0.2-5.1-0.5-7.5-0.6c-2.3-0.1-4.5-0.4-6.8-0.2c-1.5,0.1-2.9,1-4.5,1.5v2.6c-0.4,0.2-1.7,0.8-1.7,0.8
		c-2.1,0.6-0.3,0.7,0.1,1.2c0.1,0.1-1.9,2.2,0,1.9c0.7-0.1,9.2-1.7,11.7-2c2.2-0.3,4.3-1.1,6.1-2.4c0,0,0,0,0,0
		c1.1,0.2,2.3,0.3,3.4,0.5c0.3,0.1,0.6,0.6,0.8,1c0.9,2.6,2.5,4.7,4.2,6.9C212.2,485,212.6,487.8,212.5,490.6 M201.4,559.1
		c-0.1-0.1-0.2-0.2-0.3-0.3c0.2-0.2,0.4-0.3,0.6-0.5c0,0,0.2,0.2,0.2,0.2C201.7,558.7,201.5,558.9,201.4,559.1 M194.3,561.5
		c0.5,0.5,0.9,1,1.3,1.4c-0.4,0.7-0.9,1.3-1.8,1.2c-0.1,0-0.3,0-0.4,0.1c-0.8,1.6-2.3,1.8-3.8,1.9c-0.7,0.1-1.5,0.3-2.2,0.3
		c-1,0.1-2.2,0.6-2.9-0.7c-0.1-0.2-0.5-0.2-0.7-0.3c-0.4-0.1-0.8-0.2-1.2-0.4c-3.3-1.4-3.1-1.3-2.9-4.6c0.1-0.6,0.1-1.3,0.1-1.9
		c0-2.4,3.3-5.7,6-5.8c3-0.7,5.6-0.7,8.2,0c0.3,0.1,0.6,0.2,0.9,0.2c1.5,0.1,2.5,0.9,3.3,2.2C197.4,557.6,197.3,560.3,194.3,561.5
		 M192.5,568.6c-1.9,0.4-3.8,0.8-5.7,1.2c-6.6,1.3-13.3,2.7-19.9,4c-2.2,0.4-4.3,0.8-6.5,1.2c-0.3,0.1-0.7,0-1.1,0
		c1.2-1.3,2.3-2.6,3.5-3.9c4.4,0.2,8.7-0.6,13-1.1c2.6-0.3,5.2-0.8,7.8-1.2c0.1,0,0.2-0.1,0.3,0c3.3,0.5,6.2-0.7,9.2-1.6
		c0.2,0,0.3,0,0.5,0c0.1,0,0.2,0.1,0.3,0.2C193.9,568.2,193.2,568.4,192.5,568.6 M159.2,579.9C159.2,579.9,159.2,579.8,159.2,579.9
		l-1,0l0-0.3c0.7-0.2,1.3-0.3,2-0.5c0,0.1,0.1,0.1,0.1,0.2C159.9,579.5,159.6,579.7,159.2,579.9 M147.1,571.2
		c-0.8-0.5-1.6-1-2.5-1.5c-0.8-0.5-0.6-1-0.1-1.7c0.4,0.1,0.7,0.2,1.1,0.3c1.3,0.4,2.2-0.1,2.4-1.4c0.3-1.3,0.6-2.5,0.7-3.8
		c0.2-2.1,1.7-3.1,3.1-4.3c1.6-1.5,3.7-1.4,5.7-1.8c1.1-0.2,2.1,0,3.1,0.6c0.8,0.4,1.1,1,0.9,1.8c-0.2,1.3-0.4,2.6-0.7,3.9
		c-0.2,1.1-0.4,2.2-0.6,3.3c-0.1,0.6-0.3,1.3-0.6,1.8c-0.3,0.4-0.4,0.8-0.5,1.2c-0.2,0.5-0.6,1.1-1.1,1.3
		C154.4,572.8,150.8,573.5,147.1,571.2 M170,561.4c2.8,2.4,6.1,3.9,9.6,5.9c-5.2,0.7-10.2,1.4-15.4,2.1c0.4-1.6,0.8-2.8,1.9-3.7
		c0.4-0.3,0.7-0.7,0.9-1.1C167.6,563.2,168.5,562.2,170,561.4 M143.6,559.2c-0.7,2.1-1.3,4.2-1.8,6.4c-0.2,0.7,0.3,1.5,0.5,2.6
		c-0.5-0.4-0.9-0.6-1-0.9c-0.7-1.4-1.3-2.9-1.9-4.4c-0.1-0.3,0-0.6,0-1c0-0.6,0-1.1-0.4-1.6c-0.3-0.4-0.2-1.2,0-1.6
		c1.1-2,1.4-4.3,2.1-6.4c0.5-1.8,0.5-3.7,0.5-5.5c0-1.2-0.1-2.3,0-3.5c0.1-0.7,0.3-1.3,0.4-2c0.2-1.4-0.1-2.9-0.2-4.4
		c-0.8-0.4-0.6-1.2-0.7-1.8c-0.2-1.1-0.4-2.2-0.5-3.3c-0.1-1.5-0.5-3.1,0.1-4.6c0.2-0.6,0.1-1.3,0.1-1.9c-0.3-2.8-0.3-5.7-1.2-8.5
		c-0.9-2.6-1.5-5.4-0.8-8.2c0.3-1.2,0-2.4,0-3.7c-0.1,0-0.1,0-0.2,0c-0.2,0.5-0.3,1-0.5,1.5c-0.4,1.2-0.4,1.2-1.5,0.9
		c-0.2-0.1-0.5-0.1-0.9-0.1c-0.1,0.9-0.1,1.7-0.1,2.6c-1-0.5-1.2-0.7-0.9-1.6c0.4-1.1,0.9-2.3,1.6-3.3c1.2-1.5,2.5-2.9,3.9-4.3
		c0.4-0.4,0.9-0.8,0.8-1.5c-0.1-0.7,0.3-1.1,0.8-1.4c0.8-0.5,1.5-1,2.3-1.6c1.4-1.1,3.1-1.3,4.7-2c1.1-0.5,2.2-0.8,3.5-1.2
		c0.1,0.2,0.3,0.5,0.5,0.9c-2,0.8-4,1.5-5.9,2.2c-1.3,0.5-2.7,1-4,1.6c-0.7,0.3-1.1,1-1,1.7c0.1,0.5,0.4,1.1,0.8,1.5
		c0.2,0.2,0.9-0.2,1.2-0.4c0.5-0.3,0.9-0.7,1.4-1.1c0.3,0.1,0.7,0.2,1.1,0.3c0.2-0.3,0.5-0.5,0.6-0.8c0.5-1.6,1.7-2.3,3.3-2.5
		c3.2-0.4,6.3-1.4,9.4-2.3c3.4-1.1,7-1.2,10.5-1c0.3-1.5-1.4-3-2.8-2.6c-0.5,0.1-1.1,0.4-1.5,0.3c-2.5-0.7-5.1-0.1-7.7-0.4
		c2.3-1.4,4.5-2.8,7.4-2.3c0.4,0.1,0.8-0.1,1.3,0c1.6,0,2.9,0.4,3.9,1.7c0.6,0.8,1.3,1.4,1.9,2.1c0.2,0.3,0.5,0.6,0.5,1
		c0.5,1.8,1,3.5,1.4,5.3c0.8,3.7,1.7,7.3,2.1,11.1c0.8,6.8,1.8,13.7,1.6,20.6c0,0.4,0.1,1-0.1,1.3c-0.9,1.4-0.5,2.8-0.3,4.2
		c0.1,0.5-0.1,1-0.2,1.4c-0.2,0.8-0.4,1.5-0.6,2.3c-0.5,1.9-0.8,3.9-1.4,5.8c-0.4,1.4-1.1,2.7-1.8,3.9c-2.3,3.9-4.6,7.8-7.1,11.7
		c-0.1-1.1,0.1-2.2-0.7-3c-1.4-1.5-2.7-3.2-4.9-3.6c-0.5-0.1-1.1-0.2-1.4,0c-1.4,0.9-2.9,0.7-4.4,0.8c-3.8,0.3-7,1.5-9.6,4.3
		c-0.1,0.1-0.2,0.2-0.4,0.4C144.5,558.3,143.8,558.4,143.6,559.2 M205.6,473.3c-0.5,0-1,0.1-1.4,0.1c0-0.1,0-0.2,0-0.4h1.5
		C205.6,473.1,205.6,473.2,205.6,473.3 M201.4,569.4c0,0.1,0,0.2,0.1,0.4l-1.5,0.3c0-0.1,0-0.2,0-0.3
		C200.5,569.6,201,569.5,201.4,569.4 M140.5,583.4c0-0.1-0.1-0.2-0.1-0.3c0.8-0.2,1.5-0.4,2.3-0.5c0,0.1,0.1,0.3,0.1,0.4
		C142.1,583.1,141.3,583.2,140.5,583.4 M131.6,580.5c1.1-0.8,2.2-1.2,3.4-1.1c0,0.1,0,0.3,0,0.4C133.9,580,132.8,580.3,131.6,580.5
		 M130.5,568.5c-0.7,1.5-1.4,3-2.1,4.6c-0.5-0.2-0.9-0.3-1.3-0.4c-1.6,2.5-4.1,2.6-6.9,2.2c-0.1-1.5,0-3,0.6-4.4
		c0.7-1.8,1.7-3.6,2.6-5.3c0.2-0.5,0.6-0.6,1.2-0.6c0.6,0,1.2,0,1.7-0.2c1.4-0.7,2.7-0.1,4.2-0.1c0,0.3-0.1,0.7,0.1,0.8
		C131.6,566.1,131,567.3,130.5,568.5 M113,671.5c-0.3-0.5-0.7-0.9-1-1.4C112.8,670.2,113,670.8,113,671.5 M351.6,570.7
		c-0.2,0-8-4.6-10.1-5c-6.2-1.7-20.9-3.3-22-3.1c-2.5,0.2-8.3,1.1-9.1,1.3c-5.4,1.3-10.5,3.1-15.5,5.4c-3.1,1.4-6.4,2.6-9.6,3.9
		c-0.9,0.4-3.6,2-4.5,2.3c-3.1,1.1-4.6,0.8-7.9,1.9c-0.2-0.4-0.5-0.7-0.6-1.2c-1-2.4-2.2-4.6-4.5-6.1c-1.2-0.8-2.4-1.7-3.6-2.5
		c-0.3-0.2-0.7-0.4-1-0.5c-0.8-0.4-1.5-0.7-2.2-1.2c-0.2-0.2-0.4-0.6-0.5-0.9c-0.3-1.5-1.4-3.9-1.8-5.3c-1.2-4-0.4-7.2-0.9-11.3
		c-0.1-1,0.4-2.1,0.6-3.1c0.3-1.3,2.1-22.7,2.2-28.3c0-1.5-0.3-3-0.3-4.5c-0.1-3.1-0.1-6.1-0.1-9.2c0-2.1,0-4.2-0.1-6.3
		c0-2.7,0.1-5.4-0.1-8.1c0-0.7-0.3-4-0.3-4.4c-0.1-0.7-0.1-1.5-0.1-2.2c0-1.4,0.1-2.8,0.2-4.1c0.1-1.8,0.1-3.5,0.2-5.3
		c0.1-1.9,0.3-3.7,0.4-5.6c0.2-2.8,0.2-5.6,0.4-8.4c0.3-3.5,0.4-7.1,1-10.6c0.5-2.8,0.2-5.8,0.2-8.7c0-2.4-0.4-4.9-0.2-7.3
		c0.2-3.1,0.9-6.1,1.3-9.2c0.3-2.2-0.1-4.8,0.2-7c0.5-3.3,2.7-21.4,2.8-27.3c0-1.1,0.1-2.2,0.3-3.2c0.4-2.8,0.5-14,0.5-14.2
		c-0.8-1.8-0.4-3.7-0.6-5.5c-0.1-0.6-0.1-1.2-0.4-1.8c-0.2-0.3-6.1-5.2-6.5-5.3c-0.7-0.3-1.4-0.5-2.1-0.8c-2-0.8-4-1.6-6-2.3
		c-3.1-1.1-6.4-0.7-9.6-0.4c-2.4,0.2-4.8,0.6-7.2,1c-2.2,0.3-4.4,0.6-6.3,1.8c-0.9,0.6-2,1-3.1,1.4c-1,0.4-2.8,2.6-2.9,3.3
		c-0.1,1.9-0.2,3.8-0.3,5.6c-0.1,2.8,0,5.6-0.2,8.4c-0.3,5.8-0.8,11.6-1.1,17.4c-0.2,3.4-0.2,6.9-0.5,10.3c-0.4,4-0.6,8.1-0.6,12.1
		c0,2.7,0.2,5.4-0.3,8.1c0,0.3,0.3,1.9,0.1,2.6c-0.2,0.8-0.4,1.6-0.7,2.3c-0.2,0.9-1.4,6.5-1.7,7.3c-0.4,1.1-0.9,4.1-0.9,4.2
		c-0.1,0.8-3.3,13.3-2.9,18c0.3,3.4-0.9,7.6-1.7,10.9c-0.3,1.2-0.7,2.3-1,3.6c-1.2-0.9-1.4-2-1.9-3c-1-2.1-2.7-3.4-5-3.9
		c-0.9-0.2-1.8-0.7-2.7-1c-0.9-0.3-1.8-0.5-2.8-0.6c-1.5-0.2-3.1-0.2-4.7-0.3c-2.6-0.2-6.4-0.1-8.9,0.9c-1.3,0.5-5.5,2.4-6.7,3.4
		c-2.1,1.7-4.2,3.5-5.7,5.9c-1.8,2.8-3.5,5.6-5.3,8.5c-0.6,1-1.4,1.7-2.7,1.7c-3.3,0.1-5.4,0.6-8.7,0.8c-2.6,0.1-5.5,1.5-8,2.4
		c-3.6,1.2-7,2.7-9.5,5.4c-0.9,0.9-7,9.3-8.5,13.3c-0.8,0.2-1.7,0.1-2.2,0.5c-0.9,0.7-1.9,0.6-2.9,0.6c-2.1-0.2-4.2-0.1-6.2,0.8
		c-0.6,0.3-1.2,0.5-1.8,0.7c-1.5,0.5-3,0.8-4.4,1.5c-1.8,1-3.7,2-5.2,3.4c-1.1,1-5.5,3.4-6.3,4.6c-1.6,2.7-3.1,5.4-5.1,7.8
		c-4.6,5.8-7.6,12.2-7.9,19.7c-0.1,1.9,0.4,3.3,1.7,4.6c0.6,0.6,1,1.5,1.2,2.4c0.2,0.9,0.1,1.8,0,2.7c-0.2,2-0.5,4-0.9,6
		c-0.8,4.1-1,8.2-1.3,12.4c-0.1,2.3,0.1,4.5-0.1,6.8c-0.4,3.4-0.4,6.7-0.2,10.1c0.2,3.2,0.2,6.4,0.3,9.7c0.1,2.1,0.1,4.2,0.2,6.3
		c0.1,2.4,0.2,4.7,0.4,7.1c0.2,2.5,0.3,5,0.6,7.5c0.3,3,0.7,6,1.1,8.9c0.6,4.4,1.2,8.8,2.9,13c1.3,3.2,3,6.2,4.4,9.3
		c1.3,2.9,3,5.6,4.5,8.3c0.6,1.2,1.2,2.4,1.8,3.6c1.8,3.1,3.6,6.2,5.5,9.3c1.1,1.8,2.4,3.6,3.7,5.3c1.4,1.8,3,3.5,4.5,5.3
		c0.7,0.8,1.3,1.6,2.1,2.2c1.9,1.5,3.9,3,5.7,4.5c2.6,2.3,5,4.7,7.6,6.9c0.9,0.8,1.8,1.6,3.5,1.6c-0.6-0.9-0.9-1.7-1.5-2.2
		c-2.2-2.3-4.4-4.6-6.6-6.9c-1.2-1.3-2.3-2.9-3.6-4.2c-1.7-1.6-3.4-3.2-4.6-5.3c-1.6-2.7-3.6-5.1-5.7-7.4c-0.5-0.5-0.7-1.3-1.1-1.9
		c-0.5-1-1-2-1.6-3c-0.3-0.4-0.7-0.9-1.5-0.7c-0.5,0.1-1-0.4-0.7-1.2c0.3-0.9,0.1-1.9-0.6-2.5c-1-0.8-1.3-1.9-1.7-3
		c-1.1-2.8-1.8-5.8-3.5-8.3c-0.1-0.1-0.1-0.2-0.1-0.3c-0.5-1.5-1.1-2.9-1.6-4.4c-0.2-0.5-3.9-11.6-3.8-11.1
		c-0.8-1.3-1.7-2.5-1.5-4.1c0.1-0.4-0.4-2.7-0.4-3.5c-0.1-1.1-0.3-2.2-0.5-3.3c-0.1-0.5-0.5-0.9-0.6-1.2c0-0.5-0.4-2.2-0.2-2.9
		c0.1-0.5,0.2-1.4-0.2-1.7c-1-0.8-0.7-1.7-0.7-2.8c0.1-1.9,0.2-3.7,0.1-5.6c0-1.2-0.4-2.3-0.5-3.5c-0.3-2.5-0.6-5-0.8-7.5
		c-0.2-2.3-0.2-4.7-0.3-7c0-1.8,0.1-3.6,0.1-5.4c-0.2-4.5,0.1-9.1,0.5-13.6c0.2-2,0.5-3.9,0.9-5.9c0.6-3.3,1.2-6.7,1-10.1
		c-0.1-1.5,0.2-3,0.3-4.5c0.1-2-0.7-3.7-2.2-5c-1.1-0.9-1.6-2.1-2.4-3.2c-0.2-0.3-0.2-0.7-0.1-1.1c0.5-2,1.1-4,1.6-6.1
		c0.3-1.1,0.7-2.2,0.7-3.3c0-0.6,0.1-1.1,0.4-1.7c0.3-0.5,0.6-1,0.9-1.6c1.1-2,2.2-4,3.3-5.9c1-1.5,2.2-2.9,3.1-4.5
		c1.4-2.3,3.1-4.1,5.6-5.3c1-0.5,1.8-1.3,2.8-1.9c0.9-0.7,1.7-1.4,2.9-1.7c2.2-0.7,4.3-1.4,6.7-1.6c1.8-0.1,3.5-0.4,5.3-0.4
		c0.7,0,1.7,0,2.2-0.4c1.5-1.2,2.9-0.5,4.3,0.1c0.5,0.2,1,0.8,1.2,1.4c0.7,1.8,1.2,3.5,1.7,5.4c0.5,2,0.8,4.1,1.3,6.2
		c0.4,1.6,0.3,3.2,0.7,4.8c0.5,2.1,0.6,4.4,0.8,6.6c0.2,1.8,0,3.5,0.3,5.3c0.4,3.2,0.6,6.3,0.3,9.5c-0.1,1.2-0.6,2.1-1.4,3
		c-0.3,0.3-0.5,0.6-0.7,1c-0.8,1.6-1.5,3.3-2.3,5c-0.3,0.7-0.7,1.3-1.1,2c-0.5-0.2-1-0.5-1.4-0.6c-1.7-0.6-3.4-1.2-5.3-0.5
		c-1,0.4-2.2,0.6-3.3,0.8c-1.2,0.3-2.3,0.8-3,2c-0.3,0.5-0.9,0.9-1.3,1.3l0,0c-0.2,0.6-0.5,1.1-0.7,1.7l0.1,0
		c0.1,1.2-0.8,2.1-0.9,3.3c-0.1,0.8-0.3,1.6-0.5,2.4c-0.1,0-0.3,0.1-0.4,0.1c-0.9-1-1.8-2-2.6-3c-0.2-0.3-0.3-0.8-0.3-1.2
		c0.1-2,0.3-4.1,0.5-6.1c0.1-0.7,0.5-1.4,0.7-2c0.8,0.2,1.4,0.3,2.1,0.5c0.1-0.1,0.2-0.2,0.2-0.3c-0.7-1.5-1.2-3.1-2.3-4.4
		c-2.2-2.5-3.2-5.5-4.3-8.5c-0.1-0.2-0.1-0.5-0.1-0.8c-0.1-0.8-0.2-1.6-0.5-2.3c-1.2-2.8-1.6-5.7-2.4-8.6c-0.3-1.2-0.5-2.5-1.4-3.5
		c-0.7,0.2-1.4,0.4-2.1,0.6c-0.1,1.5-0.2,3-0.3,4.4c0,0.3-0.1,0.6,0,0.8c1.1,1.9,1.1,4.1,1.7,6.2c0.4,1.3,0.6,2.6,0.9,4.3
		c-1.1-0.5-1.8-1-2.5-1.3c-0.4-0.1-0.9,0-1.3,0c0.1,1.3-0.9,0.6-1.5,0.9c0.4,0.6,0.7,1.2,1.1,1.6c1.7,1.4,3.1,3.4,5.9,2.3
		c0.4,1.2,0.6,2.2,1,3.3c0.4,1,0.9,2,1.4,3.1c-1.8,1.1-3.7,1.2-5.5,1.9c-1.8,0.7-3.6,0.3-5.5,0c0.6,1.2,1.6,1.9,1.7,3.2
		c0,0.5,0.7,0.8,1.3,0.7c0.8-0.2,1.7-0.3,2.5-0.5c0.1,0.1,0.1,0.2,0.2,0.3c-0.5,0.4-0.9,0.9-1.4,1.3c1.6,0.5,1.9,0.4,2.9-0.4
		c1.2-0.9,2.4-1.7,3.9-2.7c-0.1,1.8-0.1,3.3-0.4,4.8c-0.3,1.3,0.1,2.3,0.7,3.4c0.4,0.8,0.8,1.5,1,2.3c0.4,1.2,0.9,2.3,2.2,2.8
		c1.2,0.5,2.5,1.1,3.7,1.6c0.5,0.2,1,0.5,1.7,0.7c1.1-0.1,2.5,0.4,3.6,0.5c0.3,0,0.6,0,0.8-0.1c1.7-0.9,3.6-0.6,5.4-1
		c1.5-0.3,2.5-1.1,3.2-2.5c1.4-2.8,1.9-5.9,3.1-8.7c0.1-0.3,0.2-0.6,0.5-1.1c1,1.3,1.9,2.5,2.8,3.7c0.9,1.1,1.7,2.3,2.7,3.4
		c0.4,0.4,1.1,0.6,1.7,0.9c0.3,0.2,0.7,0.3,1,0.5c1.7,1.2,3.4,2.5,5.4,3.3c0.1,0,0.1,0.2,0.3,0.4c-1.8,0.4-3.5,0.8-5.2,1.1
		c-0.7,0.1-1.4,0.3-2.1,0.4c-0.6,0.1-1.3,0.1-1.9,0.1c-0.3,0-0.6-0.1-0.8,0c-1.9,0.7-3.9,0.1-5.8,0.2c-2,0.1-4,0-6,0.1
		c-2.2,0.1-4.4-0.6-6.6-0.1c-1.1,0.3-3.5,0.4-3.5,0.4c-2.8,0.4-4.7-0.4-7.4-0.1c-0.6,0.1-1.2-0.1-1.5,0.6c0.3,0.4,0.6,0.9,1,1.2
		c0.9,0.6,1.7,1.4,3,1.1c1.5-0.4,2.9-0.7,4.4-1c1-0.2,2-0.6,3-0.5c2.9,0.3,5.7,0.3,8.5-0.1c0.3,0,0.6,0.1,0.9,0.1
		c-9.9,2.5-19.9,3.8-29.9,6.4c0.1,1.2,0.2,2.6,0.2,4c1.3,1.5,2.7,1.9,4.6,1.3c0.7-0.2,1.5-0.3,2.2-0.5c0.4-0.1,0.8-0.1,1.1-0.3
		c1.5-0.8,3.2-1,4.9-1.3c1.4-0.3,2.8-0.3,4-1.4c0.7-0.6,1.8-1.1,2.8-1.2c2.1-0.3,4.1-0.8,6.1-1.4c1.1-0.3,2.2-0.3,3.3,0.1
		c0.3-0.3,0.6-0.6,1-0.8c0.3-0.2,1-0.3,1-0.2c0.2,0.5,0.5,0.4,0.9,0.3c2.5-0.8,5.3-0.4,7.7-1.7c0.1-0.1,0.3,0,0.5,0
		c0.6-0.1,1.2-0.2,1.9-0.3c0.7-0.1,1.3-0.2,2-0.4c0.6-0.1,1.4,0.4,1.8-0.5c1,0.3,1.3-0.8,2.1-0.9c1.3-0.1,2.7-0.2,4,0
		c0.6,0.1,1.1,0,1.7-0.2c1.5-0.3,2.9-1.3,4.6-1.2c0.5,0,1.3-0.1,1.6-0.8c2.1,0,4-0.9,6.1-1c1.6-0.1,3.1-1.1,4.6-1.6
		c1.1-0.4,2.2-0.6,3.4-0.9c0.8-0.5,0.8,0.1,0.8,0.7c0.9-0.3,1.8-0.6,2.6-1.2c0.7-0.6,2-0.5,3-0.7c0.3-0.1,0.6-0.2,0.9-0.3
		c1.3-0.3,2.4-1.2,3.9-0.8c0.2,0,0.4-0.2,0.7-0.3c0.2-0.1,0.5-0.2,0.7-0.2c0.9,0.3,1.7,0,2.5-0.4c0.5-0.2,1-0.7,1.7,0
		c-0.4,1.4-1.1,2.6-1.9,3.8c-2.4,3.1-4.7,6.1-7.1,9.2c-0.3,0.4-0.7,0.8-1.1,1.2c-0.3,0.2-0.6,0.5-0.9,0.6c-1.6,0.5-3.3,1-4.9,1.5
		c-5,1.5-10.1,3-15.1,4.5c-2.5,0.8-4.9,1.8-7.5,2.8c0.1,0.9-0.7,1.2-1.4,1.6c-1.9,0.9-3.8,1.9-5.6,2.9c0.7,0.4,1.3,0.6,1.9,0.5
		c1.5-0.2,3.2-0.1,4.4-0.8c1.6-1,3.4-1.6,5.1-2.2c4.3-1.3,8.5-2.8,12.9-3.5c2.3-0.4,4.5-0.7,6.9-0.8c-0.2,0.3-0.4,0.6-0.6,0.8
		c-1.4,1.6-2.9,3.2-4.1,4.9c-2.1,3-4.1,6.2-6,9.4c-0.4,0.7-1.1,1.5-0.4,2.5c0.1,0.2,0,0.7-0.2,1c-1,1.8-2,3.6-2.9,5.5
		c-0.3,0.5-0.3,1.2-0.2,1.8c0,0.3,0.4,0.5,0.7,0.9c0.3-0.4,0.6-0.6,0.8-0.9c1.4-2.5,2.8-5,4.1-7.5c1-2.2,2.5-4,4.1-5.7
		c3.2-3.5,6.2-7.1,8.6-11.2c0.3-0.5,0.5-1.1,0.7-1.6c0.2-0.6,0.3-1.3,0.5-2c1.4-0.2,2.8-0.3,4.1-0.5c4.3-0.9,8.5-1.8,12.8-2.7
		c0.5-0.1,0.9-0.1,1.4-0.1c0.6,0,1.1,0.1,1.7,0.1c0.6,0,1.2-0.1,1.7-0.3c0.5-0.2,1.2,0,1.6-0.7c0.1-0.2,1,0.2,1.6,0.2
		c0.2,0,0.5-0.2,0.7-0.3c0.5-0.2,1-0.5,1.6-0.6c1.5-0.3,3-0.4,4.4-0.7c1.8-0.4,3.6-0.9,5.5-1.3c1.5-0.3,3.1-0.5,4.7-0.8
		c-0.7,2-1.9,3.4-3.3,4.6c-2.5,2.1-4.9,4.2-7.3,6.4c-4.4,4-8.2,8.7-12.1,13.2c-5.2,5.9-10,12.1-14.3,18.7c-0.6,0.8-1,1.8-1.5,2.7
		c-0.2,0.4-0.4,0.9-0.6,1.3c-2.5,3.7-4.7,7.6-6.5,11.6c-0.5,1.1-0.8,2.2-1.3,3.3c-1.2,2.7-2.1,5.4-2.4,8.3c-0.2,2.3-0.5,4.6-0.7,6.9
		c-0.1,1.2-0.2,2.4-0.3,3.5c0,0.3,0.2,0.6,0.4,0.8c0.1,0,0.2,0,0.4,0c0.8-2.3,1.6-4.5,2.3-6.8c0.4-1.3,1-2.6,1.3-4
		c0.3-1.5,0.8-2.8,1.8-4c0.5-0.6,0.8-1.4,1.1-2.1c0.3-0.8,0.3-1.8,0.8-2.6c1.2-2,2.7-3.9,4-5.9c1.1-1.7,2.2-3.4,3.2-5.2
		c0.2-0.4,0.1-0.9,0.2-1.2c0.6-0.9,1.2-1.7,1.7-2.5c0.2-0.4,0.3-0.8,0.6-1.1c1.7-2.4,3.4-4.7,5-7.1c0.9-1.4,1.9-2.8,2.5-4.3
		c0.3-0.9,0.6-1.7,1.2-2.4c0.1,0.2,0.2,0.4,0.4,0.8c1.1-1.4,2.1-2.6,3.1-3.9c0.1-0.1,0.1-0.4,0.1-0.4c-1-0.4-0.2-0.9,0-1.2
		c0.3-0.6,0.8-1.2,1.2-1.7c1.2-1.5,2.4-2.9,3.5-4.4c0.6-0.8,1-1.6,2-2c0.5-0.2,0.8-0.8,1.2-1.3c0.2-0.3,0.4-0.7,0.6-0.9
		c0.7-0.8,1.4-1.6,2-2.4c0.2-0.3,0.5-0.5,0.8-0.8c0.1,0.3,0.7,0.5,0.8,0.3c1.6-1.5,3.1-3.1,4.7-4.6c1-1,2-2,3.1-3.1
		c0.9-0.9,1.6-2,2.6-2.5c1.7-1,3.3-2.1,4.9-3.2c0.4-0.3,0.7-0.6,1.1-0.9c0.8-0.6,1.5-1.3,2.3-1.6c1.3-0.5,2.7-0.7,4.1-0.9
		c3.4-0.6,6.8-1.1,10.2-1.8c1.9-0.4,3.7-1.1,5.7-1.7c-0.8-0.4-1.3-0.7-1.8-1c-1-0.5-1.9-0.5-2.9,0c-0.4,0.2-0.8,0.2-1.2,0.2
		c-1.5,0.1-3.1,0-4.6,0.3c-1.4,0.2-5.4,0-6.1,0.3c-1.8,0.7-3.8,0.8-5.7,1c-1,0.1-1.7,0.7-2.5,0.9c-2.3,0.4-4.5,0.7-6.8,1
		c-0.8,0.1-1.7,0-2.5,0.1c-1.4,0.3-2.8,0.7-4.2,1c-0.6,0.1-1.2,0.2-1.8,0.3c-0.9,0.1-1.9,0-2.7,0.3c-2.5,1-5.1,0.1-7.6,1
		c-0.1,0-0.2,0-0.3,0c-0.4,0.1-0.9,0.1-1.2,0.3c-2.8,1.1-5.7,1.7-8.8,1.9c-0.9,0.1-2.1,0-2.7,0.5c-0.8,0.6-1.6,0.6-2.4,0.8
		c-0.7,0.2-1.5,0.2-2.5,0.2c0.1-0.3,0.1-0.6,0.3-0.7c1.2-1.7,2.5-3.3,3.6-5.1c1.4-2.3,2.6-4.7,3.8-7.1c0.6-1.2,1.3-1.9,2.6-2.2
		c2.4-0.4,4.7-0.9,7.1-1.3c2.4-0.4,4.9-0.9,7.3-1.1c2.2-0.2,4.5-0.4,6.7-0.8c1.9-0.4,3.9-0.6,5.8-1c2.4-0.5,4.8-1.2,7.2-1.8
		c0.9-0.2,1.8-0.6,2.7-0.9c0.2-0.1,0.3-0.5,0.6-1c-0.9-0.1-1.5-0.2-2.2-0.1c-4.8,0.2-9.5,0.5-14.3,1.2c-0.5,0.1-1-0.1-1.4,0.1
		c-3.7,1.1-7.4,1.5-11.2,1.2c-0.6,0-1,0.2-1.4,0.5c-1.2,1-2.7,1.1-4.2,1c0.8-0.8,1.5-1.4,2.1-2c-0.5-0.5-0.9-0.9-1.4-1.4
		c0.7-0.3,1.2-0.5,1.6-0.8c0.7-0.4,1.6-0.7,2.2-1.3c0.9-0.8,1.5-1.8,2.3-2.6c0.5-0.6,1.2-1,1.5-1.6c1-2.2,2.7-4.1,2.8-6.6
		c0-0.4,0.2-0.7,0.4-1c0.8-1.5,1.3-3.1,1.4-4.7c0.1-1.2,0-2.5,0.3-3.7c0.6-2.7,0.7-5.3,0.4-8c-0.1-1.4-0.2-2.9-0.1-4.3
		c0.3-2.6,0.7-5.2,1.1-7.8c0.4-2.8,0.8-5.6,1.3-8.5c0.3-2.3,0.7-4.7,1-7c0.5-5.4,1-10.8,1.5-16.2c0.1-1.3-0.1-2.7-0.2-4
		c-0.1-1.3-0.5-2.5-0.6-3.8c0-0.4,0.2-0.8,0.4-1.2c0.9-1.3,1.4-2.6,1.7-4.1c0.3-1.6,0.7-3.1,1-4.7c0.3-1.2,0.5-2.4,0.7-3.7
		c0.3-2.6,0.5-5.1,0.6-7.7c0-1.8-0.6-7.3-0.5-7.7c0.8-3,1-6.3,2.2-9.2c0.3-0.7,1.9-9.7,2.5-13.4c0.5-2.6,1.1-5.6,1.2-8.3
		c0.1-4.4,0.7-8.4,0.6-12.8c0-1,0.2-1.9,0.1-2.9c-0.1-4-0.3-8-0.3-12.1c0-3.5,0.2-7.1,0.3-10.6c0.1-2.2,0.2-4.4,0.4-6.6
		c0.2-2.9,0.4-5.8,0.6-8.7c0.2-2.1-0.6-5.4,0.5-6.2c3.4-1.8,11.5-2.4,12.5-2.5c3.4-0.1,6.9,0,10.3,0c0.5,0,4.9,0.6,5.8,1.3
		c2.2,1.7,4.4,3.4,6.6,5.1c0.7,0.5,0.7,1.1,0.6,1.9c-0.1,0.5-0.3,0.9-0.2,1.4c0.1,2.4,0.4,4.7,0.2,7.1c-0.2,3.2-0.7,6.3-1.1,9.5
		c-0.5,3.5-1.1,7-1.4,10.6c-0.4,4.5-0.6,9-1.4,13.5c-0.1,0.6,0.3,4.9,0.1,6.5c-0.5,3.7-1.9,7.6-2.3,11.3c-0.4,3.3,0.1,6.1-0.2,9.4
		c-0.1,1.4,0.4,8.4,0.4,9.4c0,3,0.1,5.9,0.1,8.9c0,1.3-2.4,22.3-2.3,22.3c0.2,1.7,0.7,4.3,0.5,5.1c-0.2,0.8,0.6,10.1-0.1,13.8
		c0,0.2,0,0.3,0,0.5c0.2,1.9,0.4,3.7,0.7,5.6c0.4,2.7,0.4,5.4,0.1,8c-0.3,2.6-0.8,5.2-1.1,7.8c-0.2,2.5-0.3,5.1-0.4,7.6
		c-0.1,3.9,0.4,7.7-0.2,11.6c-0.2,1.6-0.5,3.2-0.8,4.8c-0.7,3.7-1.6,11.3-1.3,11.2c-0.1,1.6,0.8,4.2,0.1,5.8
		c-0.6-0.5-2.4-1.9-2.7-2.4c-0.7-1.2-1.4-2.5-2-3.9c-0.3-0.7-0.7-1.2-1.4-1.5c-0.6-0.2-1.2-0.4-1.9-0.5c-0.2-0.2-0.4-0.6-0.5-0.9
		c-0.5-0.9-1.2-1.1-2.1-0.7c-0.6,0.3-0.7,0.7-0.3,1.3c0.3,0.3,0.6,0.6,0.8,0.9c-0.3,0.5-0.5,0.8-0.7,1.1c1.1,0.6,1.5,1.2,1.2,1.6
		c-0.3,0.1-0.6,0.1-0.9,0.2c0,0.2,0.1,0.3,0,0.4c-0.3,1.6,0.6,2.3,2,2.9c1.6,0.8,3.3,1.7,4.5,3c1,1.2,2.2,2.1,3.4,3
		c1.1,0.9,2.3,1.6,3.3,2.5c1.9,1.7,3.7,3.4,5.6,5.1c1.4,1.3,2.8,2.6,4.1,3.9c1.2,1.1,1.2,2.5,0.9,4.1c-1.2,0.4-2.4,0.7-3.5,1.1
		c-1.2,0.5-6,1-5.6,1.3c-1.6,0.1-3.1-0.8-4.6,0.2c0.3,1.5,1,2.7,2.6,2.8c1.2,0.1,2.3,0.4,3.3,1c2.1,1.1,4.4,0.7,6.6,1.3
		c0.2,0.1,0.5,0,0.8-0.1c1.5-0.7,2.9-1.4,4.4-2c1.3-0.6,2.6-1.3,4.1-0.7c0.4,0.1,1.4-0.7,1.9-0.9c1.9-0.8,3-1.3,4.9-2.2
		c1.1-0.5,2.5-0.6,3.4-1.3c2.6-2.1,5.5-3.7,8.6-5.1c0.4-0.2,0.9-0.4,1.3-0.7c3.4-2.2,7.2-3.6,11-5.1c0.4-0.1,0.8-0.1,1.4-0.3
		c-1.5,2.7-2.8,5.2-4.2,7.6c-1.5,2.6-2.4,5.3-2.5,8.2c0,0.9,0,1.8,0.6,2.4c1.4-0.4,0.9-1.9,1.8-2.7c0.1,0.9,0.2,1.6,0.3,2.3
		c0.4,0.1,0.7,0.1,0.9,0.2c-0.4,3.6-0.8,7.1-1.1,10.7c0.3,0.3,0.7,0.7,1.2,1.1c1.7-2.4,1.1-5.2,2.1-7.7c0.9,0,1.3-0.6,1.3-1.5
		c0-1,0.1-1.9,0.2-2.9c0.3-3.4,0.8-6.8,2.1-10c0.6-1.5,1-3.1,1.5-4.6c0.4-1.3,0.8-2.6,1.3-4.1c2.5-0.8,9.9-1,11.9-0.7
		c3.5,0,11.9,1.9,13.2,2.2c2.6,0.6,6.6,0.7,9.2,1.3c3.7,0.8,6.5,2,9.6,4c2.2,1.4,4.6,3.9,6.2,3.3
		C358.8,575.7,354.9,572.1,351.6,570.7"/>
	<path d="M365.5,583c0-0.7-0.2-1.4-0.9-1.8c-0.8,0.7-0.5,1.7-0.4,2.4c0.1,1.4-0.2,2.6-0.9,3.9c-0.8,1.4-1.4,2.9-2.1,4.3
		c-0.9,1.7-1.7,3.5-2.6,5.2c-0.3,0.6-3.8,6.6-6,8.4c-0.2,0.8-1.1,1.2-2,1.5c-0.1,0-0.2,0-0.4,0c-0.1-0.3-3-1.4-4.3-1.5
		c-1.6-0.2-3.1-0.3-4.7-0.5c-2.3-0.2-4.7-0.8-7-0.7c-3,0.2-6.1,0.8-9,1.7c-4.9,1.5-9.6,3.6-13.4,7.1c-0.5,0.4-1,0.5-1.6,0.3
		c-1.8-0.8-3.7-1.9-5.6-2.2c-2.4,0.6-4.3,1.8-6,3.5c-1.7,1.7-3.6,3.2-5.4,4.8c-0.5,0.5-0.9,1.1-1.3,1.7c-0.4,0.5-0.8,1-1.1,1.6
		c-2.1,2.9-4.2,5.8-6.2,8.8c-2.3,3.4-4.5,7-6.7,10.5c-0.6,1-1.2,1.9-1.8,2.9c-1.2,1.9-2.2,3.8-3.5,5.6c-3.4,4.5-7.9,7.8-12.1,11.5
		c-1.8,1.5-3.7,3-5.5,4.5c-2,1.6-3.9,3.4-5.9,4.9c-3.8,2.7-7.7,5.3-11.6,7.9c-4.1,2.8-12.9,6.3-12.5,6.8c-4.6,2.3-8.8,5.1-13.8,6.5
		c1.2,0.1,2.3,0.2,3.3-0.1c3.4-1.2,9.8-3.5,10-3.7c0.5-0.5,1.6-1.3,1.6-1.3c0.8-0.5,1.8-0.9,2.7-1c-0.7,0.8-1.6,1.2-2.4,1.6
		c0,0-1.3,0.9-1.4,1c0.2,0.4,0.6,0.4,1.1,0.5c2.2,0.3,4.3-0.4,6.2-1.2c3.2-1.3,5.8-3.8,9.1-5c1.8-0.7,3.4-1.9,5-3
		c2.8-2,5.4-4.1,8.1-6.2c0.8-0.6,14.5-11.2,17.8-14.8c3.1-3.3,5.4-7.1,7.5-11c1.3-2.3,2.5-4.6,4.1-6.7c0.6-0.8,6.6-11.8,9.3-16.1
		c1.4-2.8,2.8-5,5.3-6.5c1-0.6,1.9-1.2,2.8-1.9c0.8-0.6,1.5-0.7,2.3-0.2c1.2,0.7,2.4,0.9,3.5-0.3c0.5,0.2,0.9,0.5,1.3,0.7
		c1.6,0.7,3.3,0.4,4.5-1c0.6-0.6,1.2-1.1,2.1-1.3c1.2-0.3,2.5-0.8,3-1.9c0.4-0.9,1.1-1.3,1.9-1.5c2.7-0.8,5.4-1.5,8-2.3
		c2.8-0.8,5.6-1.1,8.5-0.9c3.2,0.2,7.1,0.3,9.8,2.2c1.6,1.1,3.5,1.1,5.4,1c1.2-0.1,2.9-1.5,3.2-1.6c1.7-1.2,2.5-2,3.3-3.9
		c0.9-2.1,2.4-3.7,3.3-5.8c0.8-2,1.6-4.1,2.5-6.1c0.5-1.1,0.8-2.2,1.1-3.4C365.6,587.9,365.4,585.4,365.5,583"/>
	<path d="M238.8,528.8c0,0.1,0,0.1,0,0.2h1.1c0-0.1,0-0.1,0-0.2H238.8z M231.4,528.8c-1.9-0.2-3.7,0.2-5.6,0.6
		C227.8,530.1,229.6,529.3,231.4,528.8 M248.1,527.1c-1,0.9-1.9,2-3.8,1.5c2,1.4,4.2,1,6,2.5c-1,0.3-1.8,0.2-2.5,0.1
		c-3.1-0.3-6.2-0.7-9.3-0.9c-2-0.2-4.1-0.2-6.1-0.2c-0.7,0-1.3,0.3-2,0.5c-0.3,0.1-0.6,0.2-0.9,0.2c-3.3-0.1-6.7-0.2-10-0.3
		c-0.5,0-1.1-0.3-1.4,0.4c-0.1,0.1-0.5,0.2-0.7,0.2c-1.4-0.1-2.8-0.2-4.2-0.3c-0.5-0.1-1.2-0.2-1.2-0.8c0-0.4,0.3-0.9,0.6-1.2
		c1.7-1.6,3.8-1.9,5.9-2.3c1.3-0.2,2.6-0.2,3.9-0.3c2.5-0.2,5-0.7,7.5-0.7c2.8-0.1,5.6,0,8.4,0.3c2.1,0.2,4.2,0.9,6.3,1.3
		c0.6,0.1,1.3,0.1,1.9,0.1C246.9,527,247.5,527.1,248.1,527.1"/>
	<path d="M254.6,411.3c-1-0.1-1.9,0.4-3,0.1c0.7-1.1,1.9-0.3,2.7-1.1c3.8-1.1-0.6-1.4-1.8-1.1c-1.1,0.3-13.3,1.1-15,0.8
		c-5-0.7-0.5,0.5,0.5,0.8c1,0.3,6.6,0.4,8.1,0.1c1.2-0.1,0.8,0.2,0,0.6c-1.7,0.2-3.3,0.2-5.3,0c0,0-3.1-0.3-3.2-0.2
		c-0.7-0.1-1.4-0.1-2-0.3c-1.3-0.4-2.6-0.8-4-1.2c-0.8-0.3-1.7-0.6-2.8,0c0.3,0.4,0.5,0.9,0.8,1.1c0.3,0.3,0.7,0.5,1.1,0.6
		c0.4,0.2,0.9,0.2,1.4,0.4c0.4,0.1,0.8,0.2,1.2,0.4c0,0.1,0,0.2-0.1,0.3c-1.2-0.1-2.4-0.3-3.7-0.5c0.2,0.9,1,1.3,1.6,1.5
		c1.8,0.4,3.6,0.7,5.4,1c1.6,0.2,3.2,0.2,4.8,0.3c0.8,0,1.6,0.2,2.4,0.2c4,0.2,7.9-0.5,11.7-1.9c0.7-0.3,1.5-0.5,2-1.1
		C256.4,411.7,255.5,411.3,254.6,411.3"/>
	<path d="M107.4,526.1c0.2-1.2,1.4-1.4,2.1-2c0.7-0.7,1.7-1.2,2.6-1.8c-0.4-0.5-0.7-1-1.1-1.5c4.6-3.3,15.4-6.8,18.7-5.9
		c-0.2,0.1-0.4,0.2-0.7,0.4c0.4,0.1,0.7,0.2,1.1,0.3c-0.3,0.3-0.5,0.6-0.8,0.9c1.3,0.1,1.2,1.3,1.8,2.1c-0.4,0.2-0.7,0.4-1.1,0.4
		c-0.9,0.1-1.7,0.1-2.6,0.1c-1.3,0-2.5,0.3-3.7,0.9c-2.2,1.2-4.5,2-6.8,3c-2,0.9-4.1,1.8-6.1,2.8
		C109.4,526.6,109.4,526.7,107.4,526.1"/>
	<path d="M122.3,558.6c-0.4,0-1.9,0.1-1.9-0.2c-0.2-1.4-1.3-1.4-2.3-1.9c0.6-0.2,1.2-0.4,1.8-0.5c2.7-0.2,5.3-1,7.9-1.7
		c0.4-0.1,0.8-0.3,1.1-0.6c0.7-0.5,1.4-0.9,2.4-0.7c0.4,0.1,0.8-0.2,1.2-0.3c1.3-0.4,2.5-0.8,3.9-0.3c-0.2,0.9-1,1.2-1.6,1.6
		c-0.7,0.5-1.4,1-2.1,1.4c-0.7,0.4-1.3,0.8-2.2,0.9C128.3,556.4,123.6,558.6,122.3,558.6"/>
	<path d="M187.1,538.3c-0.3-0.5-0.6-0.9-0.9-1.5c1.9-0.3,3.7-0.6,5.4-1c1-0.2,1.9-0.6,2.9-0.9c1.4-0.4,2.8-0.8,4.2-1.1
		c0.9-0.2,2,0.6,2.4,1.5c0.4,0.8,0.7,1.6,1.2,2.6c1.1-0.3,2.4-0.6,3.9-0.9c-1,1.4-1.8,2.7-3.3,3.3c-2.9,1.2-5.9,2.2-9.1,2.5
		c-1.7,0.2-3.3,0.5-5,0.6c-1.5,0.1-3.1,0.1-4.6-0.1c-2-0.3-3-1.5-2.7-3.1c0.2-0.9,0.7-1.5,1.5-1.2
		C184.6,539.6,185.7,538.8,187.1,538.3"/>
	<path d="M150.1,549.9c0,0.1,0.1,0.3,0.1,0.4c0.7-0.1,1.5-0.2,2.1-0.9C151.6,549.6,150.8,549.8,150.1,549.9 M149.4,550.8
		c0-0.2,0.1-0.5,0.1-0.9c-1.1-0.3-2.2-0.6-3.5-0.9c0.2-0.6,0.4-1.1,0.7-1.7c6.4,0.4,12.5-0.7,18.5-2.8c0.1,0.2,0.2,0.4,0.4,0.7
		c1.4-0.7,3-0.9,4.2-2.2c0.5-0.5,1.2-0.3,1.3,0.5c0,0.6-0.1,1.4-0.5,1.9c-0.7,1.1-1.8,1.8-3,2.1c-3.6,1.1-7.1,2.6-10.9,3.3
		c-1.4,0.2-2.7,0.6-4.1,0.9c-0.4,0.1-0.8,0-1.2-0.1C150.8,551.3,150.2,551.1,149.4,550.8"/>
	<path d="M153.5,544.7c2.7-1.1,5.2-2.2,7.7-3.2c1-0.4,2-0.8,3-1.2c0.1,0,0.2-0.1,0.3-0.1c1.9,0,3.4-1.2,5.1-1.7
		c0.8-0.2,1.6-0.3,2.2,0.4c0.7,0.7,0.8,1.5-0.1,2c-0.8,0.5-1.7,0.9-2.6,1.2c-4.1,1.4-8.4,1.9-12.6,3
		C155.6,545.3,154.7,545.3,153.5,544.7"/>
	<path d="M602.4,371.8c0.3,0,1-0.1,1.6-0.2c0,0.1,0,0.2,0,0.2H602.4z M624.6,372.6c1.1,0.1,2.3-0.4,3.4,0.4c0.2,0.2,0.7,0.1,1.1,0
		c0.8-0.2,1.6-0.5,2.5-0.7c-0.2-0.3-0.4-0.5-0.5-0.7c-0.1-0.5-3-1.2-3.9-1.5c-2.9-0.9-4.9-1.9-7.9-1.6c-1.5,0.2-3.2,0.5-4.7,0
		c-2-0.6-9.5-0.3-11,1.3c-0.4,0.4-1.3,0.4-1.9,0.6c-1.1,0.3-2.2,0.5-3.3,0.8c-1.1,0.3-3,1.6-3.2,1.7c0.6,0,1.1-0.1,1.7-0.1
		c0.3,0,0.7,0.2,1,0.4c1.5,0.9,4.2,0.1,5.7,0c2.1-0.2,9.6-1.1,9.5-1.6c2.1,0.2,4.1,0,6.1,0.4C621.1,372.5,622.9,372.5,624.6,372.6"
		/>
	<path d="M657.4,377.1c1.4-0.3,2.7-0.6,4.1-0.9l0.1,0.3c-1.3,0.6-2.7,0.7-4.2,0.9C657.4,377.3,657.4,377.2,657.4,377.1 M636.8,359.9
		c0.1-4.2,0.7-8.2,1.5-12.3c0.7-3.5,1-7,1.6-10.5c0.5-3.3,1.1-6.7,1.8-10c0.6-2.9,0.8-5.8,0.6-8.8c-0.2-2.8,0.1-5.7,0.3-8.5
		c0.1-1.7,0.3-3.3,0.4-4.9c0.1-2.4,1.2-4.5,1.9-6.6c0.3-0.9,0.7-1.8,1.1-2.7c0.3-0.6,0.7-1.1,1.2-1.9c0.1,0.5,0.2,0.7,0.1,0.8
		c-1.1,3.1,1,4.8,3.1,5.4c2.4,0.7,4.9,1.3,7.3,1.8c0.8,0.2,1.7,0,2.5-0.1c2.5-0.3,4.9-0.7,7.3-1c0.9-0.1,1.6-0.6,2.1-1.3
		c1.1-1.6,2.3-3.1,3.4-4.7c0.3-0.5,0.8-0.9,1.2-1.4c-0.6-0.5-2-1-0.6-2.2c-0.4-0.9-0.8-1.7-1.2-2.6c2.6,0.5,3.2,2.4,3.6,4.5
		c0.1,0.3-0.1,0.7-0.3,1c-1.1,2.7-2.5,5.4-4.2,7.8c-1.2,1.7-1.9,3.7-2.5,5.7c-0.6,2-1.1,4.1-1.1,6.3c0,0.5,0,1.1,0.2,1.6
		c0.7,1.4,0.7,2.9,0.8,4.4c0.1,4.1,0.3,8.3,0.4,12.4c0,1.3,0.2,2.7,0.2,4c0,1.1-0.2,2.2-0.1,3.3c0.2,2.2,0.5,4.4,0.8,6.6
		c0.1,1.1,0.1,2.1,0.1,3.2c0,0.6,0.1,1.3,0.3,1.9c0.7,3,1.1,6,1,9.1c-0.1,1.3,0.1,2.5-0.4,3.8c-0.2,0.6,0.3,1.4,0.6,2.3
		c0.8,0.2,1.7,0.5,2.6,0.6c1.1,0.1,1.5-0.4,1.6-1.5c0.1-1.2,0.6-1.5,1.7-1.1c0.5,0.2,1.1,0.4,1.6,0.6c-0.9,1.7-1.7,3.4-2.6,4.9
		c-0.5,0.8-5.6,10.1-9.8,10.9c-3.8,0.7-7.4,1.7-11.2,1.5c-3.1-0.2-6.3-0.7-9.4-1.2c-0.5-0.1-1-0.5-1.3-0.8c-0.2-0.3-0.2-0.7-0.3-1.2
		c2.6,0.2,5.1,0.5,7.5,0.6c2.3,0.1,4.5,0.4,6.8,0.2c1.5-0.1,2.9-1,4.5-1.5v-2.6c0.4-0.2,1.7-0.8,1.7-0.8c2.1-0.6,0.3-0.7-0.1-1.2
		c-0.1-0.1,1.9-2.2,0-1.9c-0.7,0.1-9.2,1.7-11.7,2c-2.2,0.3-4.3,1.1-6.1,2.4c0,0,0,0,0,0c-1.1-0.2-2.3-0.3-3.4-0.5
		c-0.3-0.1-0.6-0.6-0.8-1c-0.9-2.6-2.5-4.7-4.2-6.9C637.1,365.5,636.8,362.8,636.8,359.9 M648,291.4c0.1,0.1,0.2,0.2,0.3,0.3
		c-0.2,0.2-0.4,0.3-0.6,0.5c0,0-0.2-0.2-0.2-0.2C647.6,291.8,647.8,291.6,648,291.4 M655.1,289.1c-0.5-0.5-0.9-1-1.3-1.4
		c0.4-0.7,0.9-1.3,1.8-1.2c0.1,0,0.3,0,0.4-0.1c0.8-1.6,2.3-1.8,3.8-1.9c0.7-0.1,1.5-0.3,2.2-0.3c1-0.1,2.2-0.6,2.9,0.7
		c0.1,0.2,0.5,0.2,0.7,0.3c0.4,0.1,0.8,0.2,1.2,0.4c3.3,1.4,3.1,1.3,2.9,4.6c-0.1,0.6-0.1,1.3-0.1,1.9c0,2.4-3.3,5.7-6,5.8
		c-3,0.7-5.6,0.7-8.2,0c-0.3-0.1-0.6-0.2-0.9-0.2c-1.5-0.1-2.5-0.9-3.3-2.2C652,292.9,652.1,290.2,655.1,289.1 M656.8,282
		c1.9-0.4,3.8-0.8,5.7-1.2c6.6-1.3,13.3-2.7,19.9-4c2.2-0.4,4.3-0.8,6.5-1.2c0.3-0.1,0.7,0,1.1,0c-1.2,1.3-2.3,2.6-3.5,3.9
		c-4.4-0.2-8.7,0.6-13,1.1c-2.6,0.3-5.2,0.8-7.8,1.2c-0.1,0-0.2,0.1-0.3,0c-3.3-0.5-6.2,0.7-9.2,1.6c-0.2,0-0.3,0-0.5,0
		c-0.1,0-0.2-0.1-0.3-0.2C655.5,282.3,656.2,282.1,656.8,282 M690.1,270.7C690.1,270.7,690.1,270.7,690.1,270.7l1,0l0,0.3
		c-0.7,0.2-1.3,0.3-2,0.5c0-0.1-0.1-0.1-0.1-0.2C689.4,271.1,689.8,270.9,690.1,270.7 M702.3,279.3c0.8,0.5,1.6,1,2.5,1.5
		c0.8,0.5,0.6,1,0.1,1.7c-0.4-0.1-0.7-0.2-1.1-0.3c-1.3-0.4-2.2,0.1-2.4,1.4c-0.3,1.3-0.6,2.5-0.7,3.8c-0.2,2.1-1.7,3.1-3.1,4.3
		c-1.6,1.5-3.7,1.4-5.7,1.8c-1.1,0.2-2.1,0-3.1-0.6c-0.8-0.4-1.1-1-0.9-1.8c0.2-1.3,0.4-2.6,0.7-3.9c0.2-1.1,0.4-2.2,0.6-3.3
		c0.1-0.6,0.3-1.3,0.6-1.8c0.3-0.4,0.4-0.8,0.5-1.2c0.2-0.5,0.6-1.1,1.1-1.3C695,277.7,698.6,277,702.3,279.3 M679.4,289.1
		c-2.8-2.4-6.1-3.9-9.6-5.9c5.2-0.7,10.2-1.4,15.4-2.1c-0.4,1.6-0.8,2.8-1.9,3.7c-0.4,0.3-0.7,0.7-0.9,1.1
		C681.8,287.3,680.8,288.4,679.4,289.1 M705.8,291.3c0.7-2.1,1.3-4.2,1.8-6.4c0.2-0.7-0.3-1.5-0.5-2.6c0.5,0.4,0.9,0.6,1,0.9
		c0.7,1.4,1.3,2.9,1.9,4.4c0.1,0.3,0,0.6,0,1c0,0.6,0,1.1,0.4,1.6c0.3,0.4,0.2,1.2,0,1.6c-1.1,2-1.4,4.3-2.1,6.4
		c-0.5,1.8-0.5,3.7-0.5,5.5c0,1.2,0.1,2.3,0,3.5c-0.1,0.7-0.3,1.3-0.4,2c-0.2,1.4,0.1,2.9,0.2,4.4c0.8,0.4,0.6,1.2,0.7,1.8
		c0.2,1.1,0.4,2.2,0.5,3.3c0.1,1.5,0.5,3.1-0.1,4.6c-0.2,0.6-0.1,1.3-0.1,1.9c0.3,2.8,0.3,5.7,1.2,8.5c0.9,2.6,1.5,5.4,0.8,8.2
		c-0.3,1.2,0,2.4,0,3.7c0.1,0,0.1,0,0.2,0c0.2-0.5,0.3-1,0.5-1.5c0.4-1.2,0.4-1.2,1.5-0.9c0.2,0.1,0.5,0.1,0.9,0.2
		c0-0.9,0.1-1.7,0.1-2.6c1,0.5,1.2,0.7,0.9,1.6c-0.4,1.1-0.9,2.3-1.6,3.3c-1.2,1.5-2.5,2.9-3.9,4.3c-0.4,0.4-0.9,0.8-0.8,1.5
		c0.1,0.7-0.3,1.1-0.8,1.4c-0.8,0.5-1.5,1-2.3,1.6c-1.4,1.1-3.1,1.3-4.7,2c-1.1,0.5-2.2,0.8-3.5,1.2c-0.1-0.2-0.3-0.5-0.5-0.9
		c2-0.8,4-1.5,5.9-2.2c1.3-0.5,2.7-1,4-1.6c0.7-0.3,1.1-1,1-1.7c-0.1-0.5-0.4-1.1-0.8-1.5c-0.2-0.2-0.9,0.2-1.2,0.4
		c-0.5,0.3-0.9,0.7-1.4,1.1c-0.3-0.1-0.7-0.2-1.1-0.3c-0.2,0.3-0.5,0.5-0.6,0.8c-0.5,1.6-1.7,2.3-3.3,2.5c-3.2,0.4-6.3,1.4-9.4,2.3
		c-3.4,1.1-7,1.2-10.5,1c-0.3,1.5,1.4,3,2.8,2.6c0.5-0.1,1.1-0.4,1.5-0.3c2.5,0.7,5.1,0.1,7.7,0.4c-2.3,1.4-4.5,2.7-7.4,2.3
		c-0.4-0.1-0.8,0-1.3,0c-1.6,0-2.9-0.4-3.9-1.7c-0.6-0.8-1.3-1.4-1.9-2.1c-0.2-0.3-0.5-0.6-0.5-1c-0.5-1.8-1-3.5-1.4-5.3
		c-0.8-3.7-1.7-7.3-2.1-11.1c-0.8-6.8-1.8-13.7-1.6-20.6c0-0.4-0.1-1,0.1-1.3c0.9-1.4,0.5-2.8,0.3-4.2c-0.1-0.5,0.1-1,0.2-1.4
		c0.2-0.8,0.4-1.5,0.6-2.3c0.5-1.9,0.8-3.9,1.4-5.8c0.4-1.4,1.1-2.7,1.8-3.9c2.3-3.9,4.6-7.8,7.1-11.7c0.1,1.1-0.1,2.2,0.7,3
		c1.4,1.5,2.7,3.2,4.9,3.6c0.5,0.1,1.1,0.2,1.4,0c1.4-0.9,2.9-0.7,4.4-0.8c3.8-0.3,7-1.5,9.6-4.3c0.1-0.1,0.2-0.2,0.4-0.4
		C704.9,292.3,705.5,292.1,705.8,291.3 M643.8,377.3c0.5,0,1-0.1,1.4-0.1c0,0.1,0,0.2,0,0.4h-1.5
		C643.8,377.5,643.8,377.4,643.8,377.3 M647.9,281.1c0-0.1,0-0.2-0.1-0.4l1.5-0.3c0,0.1,0,0.2,0,0.3
		C648.9,280.9,648.4,281,647.9,281.1 M708.8,267.2c0,0.1,0.1,0.2,0.1,0.3c-0.8,0.2-1.5,0.4-2.3,0.5c0-0.1-0.1-0.3-0.1-0.4
		C707.3,267.5,708,267.3,708.8,267.2 M717.7,270.1c-1.1,0.8-2.2,1.2-3.4,1.1c0-0.1,0-0.3,0-0.4C715.4,270.5,716.6,270.3,717.7,270.1
		 M718.8,282.1c0.7-1.5,1.4-3,2.1-4.6c0.5,0.2,0.9,0.3,1.3,0.4c1.6-2.5,4.1-2.6,6.9-2.2c0.1,1.5,0,3-0.6,4.4
		c-0.7,1.8-1.7,3.6-2.6,5.3c-0.2,0.5-0.6,0.6-1.2,0.6c-0.6,0-1.2,0-1.7,0.2c-1.4,0.7-2.7,0.1-4.2,0.1c0-0.3,0.1-0.7-0.1-0.8
		C717.7,284.4,718.3,283.2,718.8,282.1 M736.3,179.1c0.3,0.5,0.7,0.9,1,1.4C736.5,180.4,736.4,179.8,736.3,179.1 M497.7,279.9
		c0.2,0,8,4.6,10.1,5c6.2,1.7,20.9,3.3,22,3.1c2.5-0.2,8.3-1.1,9.1-1.3c5.4-1.3,10.5-3.1,15.5-5.4c3.1-1.4,6.4-2.6,9.6-3.9
		c0.9-0.4,3.6-2,4.5-2.3c3.1-1.1,4.6-0.8,7.9-1.9c0.2,0.4,0.5,0.7,0.6,1.2c1,2.4,2.2,4.6,4.5,6.1c1.2,0.8,2.4,1.7,3.6,2.5
		c0.3,0.2,0.7,0.4,1,0.5c0.8,0.4,1.5,0.7,2.2,1.2c0.2,0.2,0.4,0.6,0.5,0.9c0.3,1.5,1.4,3.9,1.8,5.3c1.2,4,0.4,7.2,0.9,11.3
		c0.1,1-0.4,2.1-0.6,3.1c-0.3,1.3-2.2,22.7-2.2,28.3c0,1.5,0.3,3,0.3,4.5c0.1,3.1,0.1,6.1,0.1,9.2c0,2.1,0,4.2,0.1,6.3
		c0,2.7-0.1,5.4,0,8.1c0,0.7,0.3,4,0.3,4.4c0.1,0.7,0.1,1.5,0.1,2.2c0,1.4-0.1,2.8-0.2,4.1c-0.1,1.8-0.1,3.5-0.2,5.3
		c-0.1,1.9-0.3,3.7-0.4,5.6c-0.2,2.8-0.2,5.6-0.4,8.4c-0.3,3.5-0.4,7.1-1,10.6c-0.5,2.8-0.2,5.8-0.2,8.7c0,2.4,0.4,4.9,0.2,7.3
		c-0.2,3.1-0.9,6.1-1.3,9.2c-0.3,2.2,0.1,4.8-0.2,7c-0.5,3.3-2.7,21.4-2.8,27.3c0,1.1-0.1,2.1-0.3,3.2c-0.4,2.8-0.5,14-0.5,14.2
		c0.8,1.8,0.4,3.7,0.6,5.5c0.1,0.6,0.1,1.2,0.4,1.8c0.2,0.3,6.1,5.2,6.5,5.3c0.7,0.3,1.4,0.5,2.1,0.8c2,0.8,4,1.6,6,2.3
		c3.1,1.1,6.4,0.7,9.6,0.4c2.4-0.2,4.8-0.6,7.2-1c2.2-0.3,4.4-0.6,6.3-1.8c0.9-0.6,2-1,3.1-1.4c1-0.4,2.8-2.6,2.9-3.3
		c0.1-1.9,0.2-3.8,0.3-5.6c0.1-2.8,0-5.6,0.2-8.4c0.3-5.8,0.8-11.6,1.1-17.4c0.2-3.4,0.2-6.9,0.5-10.3c0.4-4,0.6-8.1,0.6-12.1
		c0-2.7-0.2-5.4,0.3-8.1c0-0.3-0.3-1.9-0.1-2.6c0.2-0.8,0.4-1.6,0.7-2.3c0.2-0.9,1.4-6.5,1.7-7.3c0.4-1.1,0.9-4.1,0.9-4.2
		c0.1-0.8,3.3-13.3,2.9-18c-0.3-3.4,0.9-7.6,1.7-10.9c0.3-1.2,0.7-2.3,1-3.6c1.2,0.9,1.4,2,1.9,3c1,2.1,2.7,3.4,5,3.9
		c0.9,0.2,1.8,0.7,2.7,1s1.8,0.5,2.8,0.6c1.5,0.2,3.1,0.2,4.7,0.3c2.6,0.2,6.4,0.1,8.9-0.9c1.3-0.5,5.5-2.4,6.7-3.4
		c2.1-1.7,4.2-3.5,5.7-5.9c1.8-2.8,3.5-5.6,5.3-8.5c0.6-1,1.4-1.7,2.7-1.7c3.3-0.1,5.4-0.6,8.7-0.8c2.6-0.1,5.5-1.5,8-2.4
		c3.6-1.2,7-2.7,9.5-5.4c0.9-0.9,7-9.3,8.5-13.3c0.8-0.2,1.7-0.1,2.2-0.5c0.9-0.7,1.9-0.6,2.9-0.6c2.1,0.2,4.2,0.1,6.2-0.8
		c0.6-0.3,1.2-0.5,1.8-0.7c1.5-0.5,3-0.8,4.4-1.5c1.8-1,3.7-2,5.2-3.4c1.1-1,5.5-3.4,6.3-4.6c1.6-2.7,3.1-5.4,5.1-7.8
		c4.6-5.8,7.6-12.2,7.9-19.7c0.1-1.9-0.4-3.3-1.7-4.6c-0.6-0.6-1-1.5-1.2-2.4c-0.2-0.9-0.2-1.8,0-2.7c0.2-2,0.5-4,0.9-6
		c0.8-4.1,1-8.2,1.3-12.4c0.1-2.3-0.1-4.5,0.1-6.8c0.4-3.4,0.4-6.7,0.2-10.1c-0.2-3.2-0.2-6.4-0.3-9.7c-0.1-2.1-0.1-4.2-0.2-6.3
		c-0.1-2.4-0.2-4.7-0.4-7.1c-0.2-2.5-0.3-5-0.6-7.5c-0.3-3-0.7-6-1.1-8.9c-0.6-4.4-1.2-8.8-2.9-13c-1.3-3.2-3-6.2-4.4-9.3
		c-1.3-2.9-3-5.6-4.5-8.3c-0.6-1.2-1.2-2.4-1.8-3.6c-1.8-3.1-3.6-6.2-5.5-9.3c-1.1-1.8-2.4-3.6-3.7-5.3c-1.4-1.8-3-3.5-4.5-5.3
		c-0.7-0.8-1.3-1.6-2.1-2.2c-1.9-1.5-3.9-3-5.7-4.5c-2.6-2.3-5.1-4.7-7.6-6.9c-0.9-0.8-1.8-1.6-3.5-1.6c0.6,0.9,0.9,1.7,1.5,2.2
		c2.2,2.3,4.4,4.6,6.6,6.9c1.2,1.3,2.3,2.9,3.6,4.2c1.7,1.6,3.4,3.2,4.6,5.3c1.6,2.7,3.6,5.1,5.7,7.4c0.5,0.5,0.7,1.3,1.1,1.9
		c0.5,1,1,2,1.6,3c0.3,0.4,0.7,0.9,1.5,0.7c0.5-0.1,1,0.4,0.7,1.2c-0.3,0.9-0.1,1.9,0.6,2.5c1,0.8,1.3,1.9,1.7,3
		c1.1,2.8,1.8,5.8,3.5,8.3c0.1,0.1,0.1,0.2,0.1,0.3c0.5,1.5,1.1,2.9,1.6,4.4c0.2,0.5,3.9,11.6,3.8,11.1c0.8,1.3,1.7,2.5,1.5,4.1
		c-0.1,0.4,0.4,2.7,0.4,3.5c0.1,1.1,0.3,2.2,0.5,3.3c0.1,0.5,0.5,0.9,0.6,1.2c0,0.5,0.4,2.2,0.2,2.9c-0.1,0.5-0.2,1.4,0.2,1.7
		c1,0.8,0.7,1.7,0.7,2.8c-0.1,1.9-0.2,3.7-0.1,5.6c0,1.2,0.4,2.3,0.5,3.5c0.3,2.5,0.6,5,0.8,7.5c0.2,2.3,0.2,4.7,0.3,7
		c0,1.8-0.1,3.6-0.1,5.4c0.2,4.5-0.1,9.1-0.5,13.6c-0.2,2-0.5,3.9-0.9,5.9c-0.6,3.3-1.2,6.7-1,10.1c0.1,1.5-0.2,3-0.3,4.5
		c-0.1,2,0.7,3.7,2.2,5c1.1,0.9,1.6,2.1,2.4,3.2c0.2,0.3,0.2,0.7,0.1,1.1c-0.5,2-1.1,4-1.6,6.1c-0.3,1.1-0.7,2.2-0.7,3.3
		c0,0.6-0.1,1.1-0.4,1.7c-0.3,0.5-0.6,1-0.9,1.6c-1.1,2-2.2,4-3.3,5.9c-1,1.5-2.2,2.9-3.1,4.5c-1.4,2.3-3.1,4.1-5.6,5.3
		c-1,0.5-1.8,1.3-2.8,1.9c-0.9,0.7-1.7,1.4-2.9,1.7c-2.2,0.7-4.3,1.4-6.7,1.6c-1.8,0.1-3.5,0.4-5.3,0.4c-0.7,0-1.7,0-2.2,0.4
		c-1.5,1.2-2.9,0.5-4.3-0.1c-0.5-0.2-1-0.8-1.2-1.4c-0.7-1.8-1.2-3.5-1.7-5.4c-0.5-2-0.8-4.1-1.3-6.2c-0.4-1.6-0.3-3.2-0.7-4.8
		c-0.5-2.1-0.6-4.4-0.8-6.6c-0.2-1.8,0-3.5-0.3-5.3c-0.4-3.2-0.6-6.3-0.3-9.5c0.1-1.2,0.6-2.1,1.4-3c0.3-0.3,0.5-0.6,0.7-1
		c0.8-1.6,1.5-3.3,2.3-5c0.3-0.7,0.7-1.3,1.1-2c0.5,0.2,1,0.5,1.4,0.6c1.7,0.6,3.4,1.2,5.3,0.5c1-0.4,2.2-0.6,3.3-0.8
		c1.2-0.3,2.3-0.8,3-2c0.3-0.5,0.9-0.9,1.3-1.3l0,0c0.2-0.6,0.5-1.1,0.7-1.7l-0.1,0c-0.1-1.2,0.8-2.1,0.9-3.3
		c0.1-0.8,0.3-1.6,0.5-2.4c0.1,0,0.3-0.1,0.4-0.1c0.9,1,1.8,2,2.6,3c0.2,0.3,0.3,0.8,0.3,1.2c-0.1,2-0.3,4.1-0.5,6.1
		c-0.1,0.7-0.5,1.4-0.7,2c-0.8-0.2-1.4-0.3-2.1-0.5c-0.1,0.1-0.2,0.2-0.2,0.3c0.7,1.5,1.2,3.1,2.3,4.4c2.2,2.5,3.2,5.5,4.3,8.5
		c0.1,0.2,0.1,0.5,0.1,0.8c0.1,0.8,0.2,1.6,0.5,2.3c1.2,2.8,1.6,5.7,2.4,8.6c0.3,1.2,0.5,2.5,1.4,3.5c0.7-0.2,1.4-0.4,2.1-0.6
		c0.1-1.5,0.2-3,0.3-4.4c0-0.3,0.1-0.6,0-0.8c-1.1-1.9-1.1-4.1-1.7-6.2c-0.4-1.3-0.6-2.6-0.9-4.3c1.1,0.5,1.8,1,2.5,1.3
		c0.4,0.1,0.9,0,1.3,0c-0.1-1.3,0.9-0.6,1.5-0.9c-0.4-0.6-0.7-1.2-1.1-1.6c-1.7-1.4-3.1-3.4-5.9-2.3c-0.4-1.2-0.6-2.2-1-3.3
		c-0.4-1-0.9-2-1.4-3.1c1.8-1.1,3.7-1.2,5.5-1.9c1.8-0.7,3.6-0.3,5.5,0c-0.6-1.2-1.6-1.8-1.7-3.2c0-0.5-0.7-0.8-1.3-0.7
		c-0.8,0.2-1.7,0.3-2.5,0.5c-0.1-0.1-0.1-0.2-0.2-0.3c0.5-0.4,0.9-0.9,1.4-1.3c-1.6-0.5-1.9-0.4-2.9,0.4c-1.2,0.9-2.4,1.7-3.9,2.7
		c0.1-1.8,0.1-3.3,0.4-4.8c0.3-1.3-0.1-2.3-0.7-3.4c-0.4-0.8-0.8-1.5-1-2.3c-0.4-1.2-0.9-2.3-2.2-2.8c-1.2-0.5-2.5-1.1-3.7-1.6
		c-0.5-0.2-1-0.5-1.7-0.7c-1.1,0.1-2.5-0.4-3.6-0.5c-0.3,0-0.6,0-0.8,0.1c-1.7,0.9-3.6,0.6-5.4,0.9c-1.5,0.3-2.5,1.1-3.2,2.5
		c-1.4,2.8-1.9,5.9-3.1,8.7c-0.1,0.3-0.2,0.6-0.5,1.1c-1-1.3-1.9-2.5-2.8-3.7c-0.9-1.1-1.7-2.3-2.7-3.4c-0.4-0.4-1.1-0.6-1.7-0.9
		c-0.3-0.2-0.7-0.3-1-0.5c-1.7-1.2-3.4-2.5-5.4-3.3c-0.1,0-0.1-0.2-0.3-0.4c1.8-0.4,3.5-0.8,5.2-1.1c0.7-0.1,1.4-0.3,2.1-0.4
		c0.6-0.1,1.3-0.1,1.9-0.1c0.3,0,0.6,0.1,0.8,0c1.9-0.7,3.9-0.1,5.8-0.2c2-0.1,4,0,6-0.1c2.2-0.1,4.4,0.6,6.6,0.1
		c1.1-0.3,3.5-0.4,3.5-0.4c2.8-0.4,4.7,0.4,7.4,0.1c0.6-0.1,1.2,0.1,1.5-0.6c-0.3-0.4-0.6-0.9-1-1.2c-0.9-0.6-1.7-1.4-3-1.1
		c-1.5,0.4-2.9,0.7-4.4,1c-1,0.2-2,0.6-3,0.4c-2.8-0.3-5.7-0.3-8.5,0.1c-0.3,0-0.6-0.1-0.9-0.1c9.9-2.5,19.9-3.8,29.9-6.4
		c-0.1-1.2-0.2-2.6-0.2-4c-1.3-1.5-2.7-1.9-4.6-1.3c-0.7,0.2-1.5,0.3-2.2,0.5c-0.4,0.1-0.8,0.1-1.1,0.3c-1.5,0.8-3.2,1-4.9,1.3
		c-1.4,0.2-2.8,0.3-4,1.4c-0.7,0.6-1.8,1.1-2.8,1.2c-2.1,0.3-4.1,0.8-6.1,1.4c-1.1,0.3-2.2,0.3-3.3-0.1c-0.3,0.3-0.6,0.6-1,0.8
		c-0.3,0.2-1,0.3-1,0.2c-0.2-0.5-0.5-0.4-0.9-0.3c-2.5,0.8-5.3,0.4-7.7,1.7c-0.1,0.1-0.3,0-0.5,0c-0.6,0.1-1.2,0.2-1.9,0.3
		c-0.7,0.1-1.3,0.2-2,0.4c-0.6,0.1-1.4-0.4-1.8,0.5c-1-0.3-1.3,0.8-2.1,0.9c-1.3,0.1-2.7,0.2-4,0c-0.6-0.1-1.1,0-1.7,0.2
		c-1.5,0.3-2.9,1.3-4.6,1.2c-0.5,0-1.3,0.1-1.6,0.8c-2.1,0-4,0.9-6.1,1c-1.6,0.1-3.1,1.1-4.6,1.6c-1.1,0.4-2.2,0.6-3.4,0.9
		c-0.8,0.5-0.8-0.1-0.8-0.7c-0.9,0.3-1.8,0.6-2.6,1.2c-0.7,0.6-2,0.5-3,0.7c-0.3,0.1-0.6,0.2-0.9,0.3c-1.3,0.3-2.4,1.2-3.9,0.8
		c-0.2,0-0.4,0.2-0.7,0.3c-0.2,0.1-0.5,0.2-0.7,0.2c-0.9-0.3-1.7,0-2.5,0.4c-0.5,0.2-1,0.7-1.7,0c0.4-1.4,1.1-2.6,1.9-3.8
		c2.3-3.1,4.7-6.1,7.1-9.2c0.3-0.4,0.7-0.8,1.1-1.2c0.3-0.2,0.6-0.5,0.9-0.6c1.6-0.5,3.3-1,4.9-1.5c5-1.5,10.1-3,15.1-4.5
		c2.5-0.8,4.9-1.8,7.5-2.8c-0.1-0.9,0.7-1.2,1.4-1.6c1.9-0.9,3.8-1.9,5.6-2.9c-0.7-0.4-1.3-0.6-1.9-0.5c-1.5,0.2-3.2,0.1-4.4,0.8
		c-1.6,1-3.4,1.6-5.1,2.2c-4.3,1.3-8.5,2.8-12.9,3.5c-2.3,0.4-4.5,0.7-6.9,0.8c0.2-0.3,0.4-0.6,0.6-0.8c1.4-1.6,2.9-3.2,4.1-4.9
		c2.1-3,4.1-6.2,6-9.4c0.4-0.7,1.1-1.5,0.4-2.5c-0.1-0.2,0-0.7,0.2-1c1-1.8,2-3.6,2.9-5.5c0.3-0.5,0.3-1.2,0.2-1.8
		c0-0.3-0.4-0.5-0.7-0.9c-0.3,0.4-0.6,0.6-0.8,0.9c-1.4,2.5-2.8,5-4.1,7.5c-1,2.2-2.5,4-4.1,5.7c-3.2,3.5-6.2,7.1-8.6,11.2
		c-0.3,0.5-0.5,1.1-0.7,1.6c-0.2,0.6-0.3,1.3-0.5,2c-1.4,0.2-2.8,0.3-4.1,0.5c-4.3,0.9-8.5,1.8-12.8,2.7c-0.5,0.1-1,0.1-1.4,0.1
		c-0.6,0-1.1-0.1-1.7-0.1c-0.6,0-1.2,0.1-1.7,0.3c-0.5,0.2-1.2,0-1.6,0.7c-0.1,0.2-1-0.2-1.6-0.2c-0.2,0-0.5,0.2-0.7,0.3
		c-0.5,0.2-1,0.5-1.6,0.6c-1.5,0.3-3,0.4-4.4,0.7c-1.8,0.4-3.6,0.9-5.5,1.3c-1.5,0.3-3.1,0.5-4.7,0.8c0.7-2,1.9-3.4,3.3-4.6
		c2.5-2.1,4.9-4.2,7.3-6.4c4.4-4.1,8.2-8.7,12.1-13.2c5.2-5.9,10-12.1,14.3-18.7c0.6-0.8,1-1.8,1.5-2.7c0.2-0.4,0.4-0.9,0.6-1.3
		c2.5-3.7,4.7-7.6,6.5-11.6c0.5-1.1,0.8-2.2,1.3-3.3c1.2-2.7,2.1-5.4,2.4-8.3c0.2-2.3,0.5-4.6,0.7-6.9c0.1-1.2,0.2-2.4,0.3-3.5
		c0-0.3-0.2-0.6-0.4-0.8c-0.1,0-0.2,0-0.4,0c-0.8,2.3-1.6,4.5-2.3,6.8c-0.4,1.3-1,2.6-1.3,4c-0.3,1.5-0.8,2.8-1.8,4
		c-0.5,0.6-0.8,1.4-1.1,2.1c-0.3,0.8-0.3,1.8-0.8,2.6c-1.2,2-2.7,3.9-4,5.9c-1.1,1.7-2.2,3.4-3.3,5.2c-0.2,0.4-0.1,0.9-0.2,1.2
		c-0.6,0.9-1.2,1.7-1.7,2.5c-0.2,0.4-0.3,0.8-0.6,1.1c-1.7,2.4-3.4,4.7-5,7.1c-0.9,1.4-1.9,2.8-2.5,4.3c-0.3,0.9-0.6,1.7-1.2,2.4
		c-0.1-0.2-0.2-0.4-0.4-0.8c-1.1,1.4-2.1,2.6-3.1,3.9c-0.1,0.1-0.1,0.4-0.1,0.4c1,0.4,0.2,0.9,0,1.2c-0.3,0.6-0.8,1.2-1.2,1.7
		c-1.2,1.5-2.4,2.9-3.5,4.4c-0.6,0.8-1,1.6-2,2c-0.5,0.2-0.8,0.8-1.2,1.3c-0.2,0.3-0.4,0.7-0.6,0.9c-0.7,0.8-1.4,1.6-2.1,2.4
		c-0.2,0.3-0.5,0.5-0.8,0.8c-0.1-0.3-0.7-0.5-0.8-0.3c-1.6,1.5-3.1,3.1-4.7,4.6c-1,1-2,2-3.1,3.1c-0.9,0.9-1.6,2-2.6,2.5
		c-1.7,1-3.3,2.1-4.9,3.3c-0.4,0.3-0.7,0.6-1.1,0.9c-0.8,0.6-1.5,1.3-2.3,1.6c-1.3,0.5-2.7,0.7-4.1,0.9c-3.4,0.6-6.8,1.1-10.2,1.8
		c-1.9,0.4-3.7,1.1-5.7,1.7c0.8,0.4,1.3,0.7,1.8,1c1,0.5,1.9,0.5,2.9,0c0.4-0.2,0.8-0.2,1.2-0.2c1.5-0.1,3.1,0,4.6-0.3
		c1.4-0.2,5.4,0,6.1-0.3c1.8-0.7,3.8-0.8,5.7-1c1-0.1,1.7-0.7,2.5-0.9c2.3-0.4,4.5-0.7,6.8-1c0.8-0.1,1.7,0,2.5-0.1
		c1.4-0.3,2.8-0.7,4.2-1c0.6-0.1,1.2-0.2,1.8-0.3c0.9-0.1,1.9,0,2.7-0.3c2.5-1,5.1-0.1,7.6-1c0.1,0,0.2,0,0.3,0
		c0.4-0.1,0.9-0.1,1.2-0.3c2.8-1.1,5.7-1.7,8.8-1.9c0.9-0.1,2.1,0,2.7-0.5c0.8-0.6,1.6-0.6,2.4-0.8c0.7-0.2,1.6-0.2,2.5-0.2
		c-0.1,0.3-0.1,0.6-0.3,0.7c-1.2,1.7-2.5,3.3-3.6,5.1c-1.4,2.3-2.6,4.7-3.8,7.1c-0.6,1.2-1.3,1.9-2.6,2.2c-2.4,0.4-4.7,0.9-7.1,1.3
		c-2.4,0.4-4.9,0.9-7.3,1.1c-2.2,0.2-4.5,0.4-6.7,0.9c-1.9,0.4-3.9,0.6-5.8,1c-2.4,0.5-4.8,1.2-7.2,1.8c-0.9,0.2-1.8,0.6-2.7,0.9
		c-0.2,0.1-0.3,0.5-0.6,1c0.9,0.1,1.5,0.2,2.2,0.1c4.8-0.2,9.5-0.5,14.3-1.2c0.5-0.1,1,0.1,1.4-0.1c3.7-1.1,7.4-1.5,11.2-1.2
		c0.6,0,1-0.2,1.4-0.5c1.2-1,2.7-1.1,4.2-1c-0.8,0.8-1.5,1.4-2.1,2c0.5,0.5,0.9,0.9,1.4,1.4c-0.7,0.3-1.2,0.5-1.6,0.8
		c-0.7,0.4-1.6,0.7-2.2,1.3c-0.9,0.8-1.5,1.8-2.3,2.6c-0.5,0.6-1.2,1-1.5,1.6c-1,2.2-2.7,4.1-2.8,6.6c0,0.4-0.2,0.7-0.4,1
		c-0.8,1.5-1.3,3.1-1.4,4.7c-0.1,1.2,0,2.5-0.3,3.7c-0.6,2.7-0.7,5.3-0.4,8c0.1,1.4,0.2,2.9,0.1,4.3c-0.3,2.6-0.7,5.2-1.1,7.8
		c-0.4,2.8-0.8,5.6-1.3,8.5c-0.3,2.3-0.7,4.7-1,7c-0.5,5.4-1,10.8-1.5,16.2c-0.1,1.3,0.1,2.7,0.2,4c0.1,1.3,0.5,2.5,0.6,3.8
		c0,0.4-0.2,0.8-0.4,1.2c-0.9,1.3-1.4,2.6-1.7,4.1c-0.3,1.6-0.7,3.1-1,4.7c-0.3,1.2-0.5,2.4-0.7,3.7c-0.3,2.6-0.5,5.1-0.6,7.7
		c0,1.8,0.6,7.3,0.5,7.7c-0.8,3-1,6.3-2.2,9.2c-0.3,0.7-1.9,9.7-2.5,13.4c-0.5,2.6-1.1,5.6-1.2,8.3c-0.1,4.4-0.7,8.4-0.6,12.8
		c0,1-0.2,1.9-0.1,2.9c0.1,4,0.3,8,0.3,12.1c0,3.5-0.2,7.1-0.3,10.6c-0.1,2.2-0.2,4.4-0.4,6.6c-0.2,2.9-0.4,5.8-0.6,8.7
		c-0.2,2.1,0.6,5.4-0.5,6.2c-3.4,1.8-11.5,2.4-12.5,2.5c-3.4,0.1-6.9,0-10.3,0c-0.5,0-4.9-0.6-5.8-1.3c-2.2-1.7-4.4-3.4-6.6-5.1
		c-0.7-0.5-0.7-1.1-0.6-1.9c0.1-0.5,0.3-0.9,0.2-1.4c-0.1-2.4-0.4-4.7-0.2-7.1c0.2-3.2,0.7-6.3,1.1-9.5c0.5-3.5,1.1-7,1.4-10.6
		c0.4-4.5,0.6-9,1.4-13.5c0.1-0.6-0.3-4.9-0.1-6.5c0.5-3.7,1.9-7.6,2.3-11.3c0.4-3.3-0.1-6.1,0.2-9.4c0.1-1.4-0.4-8.4-0.4-9.4
		c0-3-0.1-5.9-0.1-8.9c0-1.3,2.4-22.3,2.3-22.3c-0.2-1.7-0.7-4.3-0.5-5.1c0.2-0.8-0.6-10.1,0.1-13.8c0-0.2,0-0.3,0-0.5
		c-0.2-1.9-0.4-3.7-0.7-5.6c-0.4-2.7-0.4-5.4-0.1-8c0.3-2.6,0.8-5.2,1.1-7.8c0.2-2.5,0.3-5.1,0.4-7.6c0.1-3.9-0.4-7.7,0.2-11.6
		c0.2-1.6,0.5-3.2,0.8-4.8c0.7-3.7,1.6-11.3,1.3-11.2c0.1-1.6-0.8-4.2-0.1-5.8c0.6,0.5,2.4,1.9,2.7,2.4c0.7,1.2,1.4,2.5,2,3.9
		c0.3,0.7,0.7,1.2,1.4,1.5c0.6,0.2,1.2,0.4,1.9,0.5c0.2,0.2,0.4,0.6,0.5,0.9c0.5,0.9,1.2,1.1,2.1,0.7c0.6-0.3,0.7-0.7,0.3-1.3
		c-0.3-0.3-0.6-0.6-0.8-0.9c0.3-0.5,0.5-0.8,0.7-1.1c-1.1-0.6-1.5-1.2-1.2-1.6c0.3-0.1,0.6-0.1,0.9-0.2c0-0.2-0.1-0.3,0-0.4
		c0.3-1.6-0.6-2.3-2-2.9c-1.6-0.8-3.3-1.7-4.5-3c-1-1.2-2.2-2.1-3.4-3c-1.1-0.9-2.3-1.6-3.3-2.5c-1.9-1.7-3.7-3.4-5.6-5.1
		c-1.4-1.3-2.8-2.6-4.1-3.9c-1.2-1.1-1.2-2.5-0.9-4.1c1.2-0.4,2.4-0.7,3.5-1.1c1.2-0.5,6-1,5.6-1.3c1.6-0.1,3.1,0.8,4.6-0.2
		c-0.3-1.5-1-2.7-2.6-2.8c-1.2-0.1-2.3-0.4-3.3-1c-2.1-1.1-4.4-0.7-6.6-1.3c-0.2-0.1-0.5,0-0.8,0.1c-1.5,0.7-2.9,1.4-4.4,2
		c-1.3,0.6-2.6,1.3-4.1,0.7c-0.4-0.1-1.4,0.7-1.9,0.9c-1.9,0.8-3,1.3-4.9,2.2c-1.1,0.5-2.5,0.6-3.4,1.3c-2.6,2.1-5.5,3.7-8.6,5.1
		c-0.4,0.2-0.9,0.4-1.3,0.7c-3.4,2.2-7.2,3.6-11,5.1c-0.4,0.1-0.8,0.1-1.4,0.3c1.5-2.7,2.8-5.2,4.2-7.6c1.5-2.6,2.4-5.3,2.5-8.2
		c0-0.9,0-1.8-0.6-2.4c-1.4,0.4-0.9,1.9-1.8,2.7c-0.1-0.9-0.2-1.6-0.3-2.3c-0.4-0.1-0.7-0.1-0.9-0.2c0.4-3.6,0.8-7.1,1.1-10.7
		c-0.3-0.3-0.7-0.7-1.2-1.1c-1.7,2.4-1.1,5.2-2.1,7.7c-0.9,0-1.3,0.6-1.3,1.5c0,1-0.1,1.9-0.2,2.9c-0.3,3.4-0.8,6.8-2.1,10
		c-0.6,1.5-1,3.1-1.5,4.6c-0.4,1.3-0.8,2.6-1.3,4.1c-2.5,0.8-9.9,1-11.9,0.7c-3.5,0-11.9-1.9-13.2-2.2c-2.6-0.6-6.6-0.7-9.2-1.3
		c-3.7-0.8-6.5-2-9.6-4c-2.2-1.4-4.6-3.9-6.2-3.3C490.5,274.9,494.5,278.5,497.7,279.9"/>
	<path d="M483.9,267.6c0,0.7,0.2,1.4,0.9,1.8c0.8-0.7,0.5-1.7,0.4-2.4c-0.1-1.4,0.2-2.6,0.9-3.9c0.8-1.4,1.4-2.9,2.1-4.3
		c0.9-1.7,1.7-3.5,2.6-5.2c0.3-0.6,3.8-6.6,6-8.4c0.2-0.8,1.1-1.2,2-1.5c0.1,0,0.2,0,0.4,0c0.1,0.3,3,1.4,4.3,1.5
		c1.6,0.2,3.1,0.3,4.7,0.5c2.3,0.2,4.7,0.8,7,0.7c3-0.2,6.1-0.8,9-1.7c4.9-1.5,9.6-3.6,13.4-7.1c0.5-0.4,1-0.5,1.6-0.3
		c1.8,0.8,3.7,1.9,5.6,2.2c2.4-0.6,4.3-1.8,6-3.5c1.7-1.7,3.6-3.2,5.4-4.8c0.5-0.5,0.9-1.1,1.3-1.7c0.4-0.5,0.8-1,1.1-1.6
		c2.1-2.9,4.2-5.8,6.2-8.8c2.3-3.4,4.5-7,6.7-10.5c0.6-1,1.2-1.9,1.8-2.9c1.2-1.9,2.2-3.8,3.5-5.6c3.4-4.5,7.9-7.8,12.1-11.5
		c1.8-1.5,3.7-3,5.5-4.5c2-1.6,3.9-3.4,5.9-4.9c3.8-2.7,7.7-5.3,11.6-7.9c4.1-2.8,12.9-6.3,12.5-6.8c4.6-2.3,8.8-5.1,13.8-6.5
		c-1.2-0.1-2.3-0.2-3.3,0.1c-3.4,1.2-9.8,3.5-10,3.7c-0.5,0.5-1.6,1.3-1.6,1.3c-0.8,0.5-1.8,0.9-2.7,1c0.7-0.8,1.6-1.2,2.4-1.6
		c0,0,1.3-0.9,1.4-1c-0.2-0.4-0.6-0.4-1.1-0.5c-2.2-0.3-4.3,0.4-6.2,1.2c-3.2,1.3-5.8,3.8-9.1,5c-1.8,0.7-3.4,1.9-5,3
		c-2.8,2-5.4,4.1-8.1,6.2c-0.8,0.6-14.5,11.2-17.8,14.9c-3.1,3.3-5.4,7.1-7.5,11c-1.3,2.3-2.5,4.6-4.1,6.7
		c-0.6,0.8-6.6,11.8-9.3,16.1c-1.4,2.8-2.8,5-5.3,6.5c-1,0.6-1.9,1.2-2.8,1.9c-0.8,0.6-1.5,0.7-2.3,0.2c-1.2-0.7-2.4-0.9-3.5,0.3
		c-0.5-0.2-0.9-0.5-1.3-0.7c-1.6-0.7-3.3-0.4-4.5,1c-0.6,0.6-1.2,1.1-2.1,1.3c-1.2,0.3-2.5,0.8-3,1.9c-0.4,0.9-1.1,1.3-1.9,1.5
		c-2.7,0.8-5.4,1.5-8,2.3c-2.8,0.8-5.6,1.1-8.5,0.9c-3.2-0.2-7.1-0.3-9.8-2.2c-1.6-1.1-3.5-1.1-5.4-1c-1.2,0.1-2.9,1.5-3.2,1.6
		c-1.7,1.2-2.5,2-3.3,3.9c-0.9,2.1-2.4,3.7-3.3,5.8c-0.8,2-1.6,4.1-2.5,6.1c-0.5,1.1-0.8,2.2-1.1,3.4
		C483.7,262.7,483.9,265.1,483.9,267.6"/>
	<path d="M610.6,321.8c0-0.1,0-0.1,0-0.2h-1.1c0,0.1,0,0.1,0,0.2H610.6z M617.9,321.8c1.9,0.2,3.7-0.2,5.6-0.6
		C621.5,320.4,619.7,321.2,617.9,321.8 M601.3,323.4c1-0.9,1.9-2,3.8-1.5c-2-1.4-4.2-1-6-2.5c1-0.3,1.8-0.2,2.5-0.1
		c3.1,0.3,6.2,0.7,9.3,0.9c2,0.2,4.1,0.2,6.1,0.2c0.7,0,1.3-0.3,2-0.5c0.3-0.1,0.6-0.2,0.9-0.2c3.3,0.1,6.7,0.2,10,0.3
		c0.5,0,1.1,0.3,1.4-0.4c0.1-0.1,0.5-0.2,0.7-0.2c1.4,0.1,2.8,0.2,4.2,0.3c0.5,0.1,1.2,0.2,1.2,0.8c0,0.4-0.3,0.9-0.6,1.2
		c-1.7,1.6-3.8,1.9-5.9,2.3c-1.3,0.2-2.6,0.2-3.9,0.3c-2.5,0.2-5,0.7-7.5,0.7c-2.8,0.1-5.6,0-8.4-0.3c-2.1-0.2-4.2-0.9-6.3-1.3
		c-0.6-0.1-1.3-0.1-1.9-0.1C602.4,323.5,601.8,323.5,601.3,323.4"/>
	<path d="M594.7,439.3c1,0.1,1.9-0.4,3-0.1c-0.7,1.1-1.9,0.3-2.7,1.1c-3.8,1.1,0.7,1.4,1.8,1.1c1.1-0.3,13.3-1.1,15-0.8
		c5,0.7,0.5-0.5-0.5-0.8c-1-0.3-6.6-0.4-8.1-0.1c-1.2,0.1-0.8-0.2,0-0.6c1.7-0.2,3.3-0.2,5.3,0c0,0,3.1,0.3,3.2,0.2
		c0.7,0.1,1.4,0.1,2,0.3c1.3,0.4,2.6,0.8,4,1.2c0.8,0.3,1.7,0.6,2.8,0c-0.3-0.4-0.5-0.9-0.8-1.1c-0.3-0.3-0.7-0.5-1.1-0.6
		c-0.4-0.2-0.9-0.2-1.4-0.4c-0.4-0.1-0.8-0.2-1.2-0.4c0-0.1,0-0.2,0.1-0.3c1.2,0.1,2.4,0.3,3.7,0.5c-0.2-0.9-1-1.3-1.6-1.5
		c-1.8-0.4-3.6-0.7-5.4-0.9c-1.6-0.2-3.2-0.2-4.8-0.3c-0.8,0-1.6-0.2-2.4-0.2c-4-0.2-7.9,0.5-11.7,1.9c-0.7,0.3-1.5,0.5-2,1.1
		C592.9,438.8,593.8,439.2,594.7,439.3"/>
	<path d="M741.9,324.5c-0.2,1.2-1.4,1.4-2.1,2c-0.7,0.7-1.7,1.2-2.6,1.8c0.4,0.5,0.7,1,1.1,1.5c-4.6,3.3-15.4,6.8-18.7,5.9
		c0.2-0.1,0.4-0.2,0.7-0.4c-0.4-0.1-0.7-0.2-1.1-0.3c0.3-0.3,0.5-0.6,0.8-0.8c-1.3-0.1-1.2-1.3-1.8-2.1c0.4-0.2,0.7-0.4,1.1-0.4
		c0.9-0.1,1.7-0.1,2.6-0.1c1.3,0,2.5-0.3,3.7-0.9c2.2-1.2,4.5-2,6.8-3c2-0.9,4.1-1.8,6.1-2.8C739.9,323.9,739.9,323.9,741.9,324.5"
		/>
	<path d="M727.1,292c0.4,0,1.9-0.1,1.9,0.2c0.2,1.4,1.3,1.4,2.3,1.9c-0.6,0.2-1.2,0.4-1.8,0.5c-2.7,0.2-5.3,1-7.9,1.7
		c-0.4,0.1-0.8,0.3-1.1,0.6c-0.7,0.5-1.4,0.9-2.4,0.7c-0.4-0.1-0.8,0.2-1.2,0.3c-1.3,0.4-2.5,0.8-3.9,0.3c0.2-0.9,1-1.2,1.6-1.6
		c0.7-0.5,1.4-1,2.1-1.4c0.7-0.4,1.3-0.8,2.2-0.9C721,294.2,725.7,292,727.1,292"/>
	<path d="M662.2,312.2c0.3,0.5,0.6,0.9,0.9,1.5c-1.9,0.3-3.7,0.6-5.4,1c-1,0.2-1.9,0.6-2.9,0.9c-1.4,0.4-2.8,0.8-4.2,1.1
		c-0.9,0.2-2-0.6-2.4-1.5c-0.4-0.8-0.7-1.6-1.2-2.6c-1.1,0.3-2.4,0.6-3.9,0.9c1-1.4,1.8-2.7,3.3-3.3c2.9-1.2,5.9-2.2,9.1-2.5
		c1.7-0.2,3.3-0.5,5-0.6c1.5-0.1,3.1-0.1,4.6,0.1c2,0.3,3,1.5,2.7,3.1c-0.2,0.9-0.7,1.5-1.5,1.2
		C664.8,310.9,663.6,311.8,662.2,312.2"/>
	<path d="M699.2,300.6c0-0.1-0.1-0.3-0.1-0.4c-0.7,0.1-1.5,0.2-2.1,0.9C697.8,301,698.5,300.8,699.2,300.6 M699.9,299.8
		c0,0.2-0.1,0.5-0.1,1c1.1,0.3,2.2,0.6,3.5,0.9c-0.2,0.6-0.4,1.1-0.7,1.7c-6.4-0.4-12.5,0.7-18.5,2.8c-0.1-0.2-0.2-0.4-0.4-0.7
		c-1.4,0.7-3,0.9-4.2,2.2c-0.5,0.5-1.2,0.3-1.3-0.5c0-0.6,0.1-1.4,0.5-1.9c0.7-1.1,1.8-1.8,3-2.1c3.6-1.1,7.1-2.6,10.9-3.3
		c1.4-0.2,2.7-0.6,4.1-0.9c0.4-0.1,0.8,0,1.2,0.1C698.5,299.2,699.1,299.5,699.9,299.8"/>
	<path d="M695.9,305.8c-2.7,1.1-5.2,2.2-7.7,3.2c-1,0.4-2,0.8-3,1.2c-0.1,0-0.2,0.1-0.3,0.1c-1.9,0-3.4,1.2-5.1,1.7
		c-0.8,0.2-1.6,0.3-2.2-0.4c-0.7-0.7-0.8-1.5,0.1-2c0.8-0.5,1.7-0.9,2.6-1.2c4.1-1.4,8.4-1.9,12.6-3
		C693.8,305.3,694.7,305.3,695.9,305.8"/>
</g>
</svg>
